{"glyphs":{"0":{"ha":749,"x_min":78,"x_max":678,"o":"m 418 688 q 610 613 543 688 q 678 400 678 539 q 590 101 678 207 q 339 -6 501 -6 q 146 67 214 -6 q 78 275 78 140 q 166 578 78 469 q 418 688 254 688 m 415 660 q 188 560 269 660 q 106 282 106 460 q 166 90 106 157 q 342 22 226 22 q 569 120 489 22 q 650 393 650 218 q 590 590 650 521 q 415 660 529 660 z "},"1":{"ha":456,"x_min":54,"x_max":303,"o":"m 256 286 l 219 0 l 192 0 l 226 279 l 271 647 l 61 585 l 54 589 l 57 611 l 299 685 l 303 679 l 256 286 z "},"2":{"ha":610,"x_min":38,"x_max":524,"o":"m 342 683 q 447 649 407 683 q 488 560 488 614 q 440 431 488 501 q 286 247 393 361 l 85 32 l 88 28 l 413 28 l 521 29 l 524 24 l 515 -1 l 401 0 l 93 0 l 40 -1 l 38 1 l 40 24 l 265 265 q 415 441 371 379 q 460 554 460 503 q 428 626 460 597 q 339 656 396 656 q 131 549 226 656 l 125 549 l 122 572 q 342 683 222 683 z "},"3":{"ha":544,"x_min":7,"x_max":453,"o":"m 289 685 q 408 644 363 685 q 453 539 453 604 q 404 408 453 471 q 279 311 356 346 l 278 307 q 401 242 358 289 q 443 124 443 194 q 402 -11 443 49 q 290 -104 361 -71 q 128 -137 218 -137 q 8 -126 67 -137 l 7 -103 l 11 -99 q 131 -110 71 -110 q 278 -81 214 -110 q 379 1 343 -51 q 415 122 415 54 q 360 242 415 199 q 201 290 306 285 l 136 290 l 132 294 l 136 317 l 196 317 q 296 346 242 317 q 387 425 350 375 q 424 533 424 475 q 386 622 424 589 q 288 656 349 656 q 96 568 196 656 l 90 568 l 89 594 q 289 685 196 685 z "},"4":{"ha":636,"x_min":24,"x_max":567,"o":"m 558 136 l 460 138 l 413 138 l 379 -128 l 376 -132 l 354 -136 l 351 -132 l 385 138 l 86 138 l 28 136 l 24 142 l 26 165 l 447 682 l 478 682 l 415 165 l 561 165 l 567 160 l 558 136 m 444 628 l 439 628 l 63 165 l 388 165 l 444 628 z "},"5":{"ha":560,"x_min":17,"x_max":524,"o":"m 518 656 l 513 653 l 456 654 l 185 654 l 147 368 l 236 347 q 406 271 351 321 q 461 143 461 221 q 418 -1 461 63 q 297 -101 375 -65 q 119 -137 219 -137 q 19 -128 72 -137 l 17 -104 l 22 -100 q 125 -110 76 -110 q 285 -78 215 -110 q 394 11 356 -46 q 433 140 433 68 q 382 249 433 206 q 224 319 331 293 l 124 343 l 119 350 l 160 672 l 174 683 l 242 682 l 431 682 l 521 683 l 524 681 l 518 656 z "},"6":{"ha":632,"x_min":75,"x_max":578,"o":"m 578 801 q 274 626 383 736 q 125 388 164 515 l 129 383 q 347 465 231 465 q 497 414 443 465 q 551 267 551 363 q 528 143 551 206 q 445 36 504 81 q 288 -8 386 -8 q 129 56 183 -8 q 75 236 75 119 q 119 449 75 339 q 273 661 164 560 q 563 822 382 763 l 568 822 l 578 807 l 578 801 m 346 438 q 114 343 224 438 q 103 240 103 294 q 150 77 103 135 q 289 19 197 19 q 429 58 376 19 q 503 153 482 97 q 524 264 524 208 q 477 392 524 347 q 346 438 431 438 z "},"7":{"ha":557,"x_min":72,"x_max":560,"o":"m 508 682 l 560 683 l 557 658 l 164 -26 l 100 -146 l 72 -137 l 72 -132 l 524 654 l 167 654 l 86 653 l 82 660 l 89 683 l 178 682 l 508 682 z "},"8":{"ha":633,"x_min":67,"x_max":553,"o":"m 374 818 q 504 774 456 818 q 553 650 553 731 q 361 426 553 497 l 361 422 q 454 375 418 397 q 513 316 490 353 q 536 224 536 279 q 504 106 536 158 q 414 24 472 54 q 281 -6 356 -6 q 124 45 182 -6 q 67 182 67 96 q 286 424 67 344 l 286 428 q 183 499 218 458 q 149 610 149 540 q 212 760 149 703 q 374 818 275 818 m 372 790 q 230 740 285 790 q 175 610 175 690 q 213 508 175 543 q 324 439 250 472 q 525 649 525 503 q 485 753 525 717 q 372 790 444 790 m 319 411 q 158 326 221 376 q 94 183 94 276 q 144 65 94 108 q 282 22 194 22 q 446 78 383 22 q 508 221 508 135 q 483 308 508 274 q 424 361 458 342 q 319 411 390 381 z "},"9":{"ha":632,"x_min":61,"x_max":564,"o":"m 61 -118 q 365 58 256 -53 q 514 296 475 168 l 510 300 q 292 218 408 218 q 142 269 196 218 q 88 417 88 321 q 111 540 88 478 q 194 647 135 603 q 351 692 253 692 q 510 628 456 692 q 564 447 564 564 q 519 234 564 344 q 366 22 475 124 q 76 -139 257 -79 l 71 -139 l 61 -124 l 61 -118 m 293 246 q 525 340 415 246 q 536 443 536 389 q 489 606 536 549 q 350 664 442 664 q 210 625 263 664 q 136 531 157 586 q 115 419 115 475 q 162 291 115 336 q 293 246 208 246 z "}," ":{"ha":208,"x_min":0,"x_max":0,"o":""},"!":{"ha":346,"x_min":115,"x_max":272,"o":"m 185 275 l 163 275 l 157 282 l 244 904 l 250 908 l 269 908 l 272 904 l 185 275 m 143 53 q 171 25 171 53 q 143 -3 171 -3 q 115 25 115 -3 q 143 53 115 53 z "},"\"":{"ha":308,"x_min":111,"x_max":314,"o":"m 138 676 l 114 674 l 111 679 l 151 879 l 176 882 l 179 876 l 138 676 m 272 676 l 249 674 l 246 679 l 286 879 l 311 882 l 314 876 l 272 676 z "},"#":{"ha":667,"x_min":28,"x_max":639,"o":"m 414 340 l 582 340 l 586 336 l 583 313 l 407 313 l 339 44 l 317 44 l 313 50 l 379 313 l 215 313 l 147 44 l 125 44 l 121 50 l 188 313 l 32 313 l 28 317 l 31 340 l 194 340 l 240 519 l 85 519 l 81 524 l 83 547 l 247 547 l 311 799 l 333 799 l 336 792 l 275 547 l 439 547 l 503 799 l 525 799 l 528 792 l 467 547 l 635 547 l 639 543 l 636 519 l 458 519 l 414 340 m 267 519 l 222 340 l 386 340 l 432 519 l 267 519 z "},"$":{"ha":568,"x_min":57,"x_max":478,"o":"m 349 685 q 478 654 419 682 l 468 629 l 460 628 q 344 657 410 654 l 301 354 q 409 283 371 319 q 447 186 447 247 q 392 61 447 115 q 253 -3 338 7 l 228 -172 l 207 -172 l 201 -167 l 225 -4 l 222 -4 q 57 46 124 -4 l 60 74 l 67 75 q 224 24 132 24 l 228 24 l 271 336 q 161 408 199 372 q 124 504 124 444 q 178 626 124 574 q 318 683 232 678 l 346 875 l 368 875 l 374 868 l 349 685 m 151 503 q 183 427 151 457 q 275 367 214 397 l 315 656 q 197 603 242 649 q 151 503 151 558 m 419 188 q 388 263 419 233 q 297 324 357 293 l 257 26 q 374 83 329 36 q 419 188 419 131 z "},"%":{"ha":1110,"x_min":108,"x_max":1032,"o":"m 946 911 l 144 -125 l 133 -119 l 129 -107 l 929 929 l 943 922 l 946 911 m 336 886 q 455 838 414 886 q 496 697 496 789 q 437 488 496 564 q 269 411 378 411 q 149 460 190 411 q 108 600 108 508 q 169 810 108 733 q 336 886 229 886 m 329 860 q 186 792 238 860 q 135 606 135 725 q 171 481 135 524 q 276 438 207 438 q 419 505 368 438 q 471 692 471 572 q 435 817 471 774 q 329 860 399 860 m 872 471 q 991 422 950 471 q 1032 282 1032 374 q 973 72 1032 149 q 806 -4 914 -4 q 685 44 726 -4 q 644 185 644 93 q 705 394 644 318 q 872 471 765 471 m 865 444 q 722 377 774 444 q 671 190 671 310 q 707 65 671 108 q 813 22 743 22 q 956 90 904 22 q 1007 276 1007 157 q 971 401 1007 358 q 865 444 935 444 z "},"&":{"ha":1058,"x_min":86,"x_max":1151,"o":"m 1151 496 q 1091 405 1125 433 q 999 372 1057 376 q 829 400 951 372 q 785 183 833 276 q 647 38 738 89 q 433 -14 556 -14 q 251 33 331 -14 q 129 166 172 81 q 86 363 86 251 q 119 531 86 457 q 206 646 151 604 q 325 688 261 688 q 426 656 388 688 q 464 575 464 625 q 439 492 464 532 q 692 720 581 592 q 864 988 803 849 l 869 988 q 881 960 876 975 q 696 682 814 814 q 428 449 578 550 q 118 294 279 349 q 222 91 138 167 q 433 15 306 15 q 634 64 549 15 q 763 201 719 113 q 801 406 807 290 q 690 424 719 424 q 560 317 599 424 l 553 314 l 535 328 q 595 419 561 390 q 688 451 629 447 q 832 426 721 451 q 996 400 961 400 q 1126 507 1088 400 l 1133 510 l 1151 496 m 326 660 q 219 622 268 660 q 142 517 171 585 q 114 363 114 450 q 115 324 114 336 q 375 450 251 371 q 435 578 442 503 q 403 638 433 615 q 326 660 374 660 z "},"'":{"ha":174,"x_min":111,"x_max":179,"o":"m 138 676 l 114 674 l 111 679 l 151 879 l 176 882 l 179 876 l 138 676 z "},"(":{"ha":389,"x_min":114,"x_max":442,"o":"m 440 900 q 203 605 265 783 q 142 201 142 426 q 181 -20 142 69 q 308 -178 221 -110 l 307 -183 l 293 -199 l 288 -199 q 155 -32 196 -124 q 114 197 114 60 q 179 617 114 433 q 425 921 244 800 l 431 921 l 442 906 l 440 900 z "},")":{"ha":390,"x_min":-40,"x_max":288,"o":"m -39 -178 q 198 117 136 -61 q 260 521 260 296 q 220 742 260 653 q 93 900 181 832 l 94 906 l 108 921 l 114 921 q 247 754 206 846 q 288 525 288 663 q 222 106 288 289 q -24 -199 157 -78 l -29 -199 l -40 -183 l -39 -178 z "},"*":{"ha":507,"x_min":115,"x_max":513,"o":"m 319 833 l 300 831 l 296 838 l 303 989 q 332 993 317 993 l 335 990 l 319 833 m 264 790 l 257 789 l 115 842 q 119 871 115 861 l 124 874 l 268 810 l 264 790 m 499 856 q 513 829 507 846 l 511 826 l 357 792 l 350 810 l 354 815 l 499 856 m 435 628 q 414 607 425 614 l 410 607 l 329 743 l 344 756 l 351 753 l 435 628 m 290 736 l 197 618 q 171 632 183 622 l 169 636 l 275 754 l 292 744 l 290 736 z "},"+":{"ha":664,"x_min":60,"x_max":619,"o":"m 356 389 l 615 389 l 619 385 l 614 361 l 351 361 l 319 99 l 296 96 l 292 100 l 324 361 l 64 361 l 60 365 l 65 389 l 328 389 l 360 651 l 383 654 l 388 650 l 356 389 z "},",":{"ha":319,"x_min":63,"x_max":168,"o":"m 115 57 q 168 -10 168 33 q 76 -139 168 -68 l 63 -124 l 64 -119 q 139 -11 139 -64 q 97 36 139 17 l 97 42 q 115 57 104 51 z "},"-":{"ha":433,"x_min":44,"x_max":397,"o":"m 396 363 l 49 317 l 44 322 l 47 344 l 393 390 l 397 385 l 396 363 z "},".":{"ha":319,"x_min":96,"x_max":151,"o":"m 124 53 q 151 25 151 53 q 124 -3 151 -3 q 96 25 96 -3 q 124 53 96 53 z "},"/":{"ha":404,"x_min":28,"x_max":413,"o":"m 54 -153 l 32 -153 l 28 -147 l 386 938 l 408 938 l 413 931 l 54 -153 z "},":":{"ha":318,"x_min":96,"x_max":199,"o":"m 124 53 q 151 25 151 53 q 124 -3 151 -3 q 96 25 96 -3 q 124 53 96 53 m 171 438 q 199 410 199 438 q 171 382 199 382 q 143 410 143 382 q 171 438 143 438 z "},";":{"ha":319,"x_min":61,"x_max":197,"o":"m 114 57 q 167 -10 167 33 q 75 -139 167 -68 l 61 -124 l 63 -119 q 138 -11 138 -64 q 96 36 138 17 l 96 42 q 114 57 103 51 m 169 438 q 197 410 197 438 q 169 382 197 382 q 142 410 142 382 q 169 438 142 438 z "},"<":{"ha":694,"x_min":50,"x_max":635,"o":"m 631 606 l 89 378 l 88 372 l 581 160 l 569 139 l 564 136 l 50 358 l 54 389 l 58 394 l 628 632 l 635 613 l 631 606 z "},"=":{"ha":665,"x_min":56,"x_max":639,"o":"m 636 461 l 85 461 l 81 465 l 83 489 l 635 489 l 639 485 l 636 461 m 611 261 l 60 261 l 56 265 l 58 289 l 610 289 l 614 285 l 611 261 z "},">":{"ha":696,"x_min":76,"x_max":660,"o":"m 660 389 l 656 358 l 88 136 l 82 139 l 76 160 l 622 372 l 622 378 l 136 606 l 133 613 l 146 632 l 657 394 l 660 389 z "},"?":{"ha":449,"x_min":136,"x_max":482,"o":"m 194 908 q 406 846 329 897 q 482 713 482 794 q 351 517 482 600 l 207 425 l 204 421 l 193 271 l 169 269 l 167 275 l 176 431 l 185 443 l 338 539 q 453 707 453 611 q 382 828 453 782 q 178 882 311 874 l 175 886 l 185 904 l 194 908 m 164 53 q 192 25 192 53 q 164 -3 192 -3 q 136 25 136 -3 q 164 53 136 53 z "},"@":{"ha":1118,"x_min":61,"x_max":1060,"o":"m 613 822 q 849 768 747 822 q 1005 617 950 714 q 1060 394 1060 521 q 953 109 1060 211 q 643 -6 846 7 l 693 376 l 686 376 q 406 -6 557 131 l 390 -6 q 335 67 353 22 q 318 190 318 111 q 355 407 318 308 q 463 567 392 506 q 633 635 535 628 l 639 635 l 729 628 l 747 638 l 754 633 l 690 147 l 679 22 q 942 134 851 39 q 1032 394 1032 229 q 981 604 1032 514 q 835 744 931 694 q 613 794 740 794 q 338 728 457 794 q 154 542 219 661 q 89 269 89 424 q 155 3 89 115 q 342 -169 221 -110 q 625 -229 464 -229 l 626 -235 l 608 -257 q 322 -189 446 -254 q 130 -7 199 -124 q 61 264 61 110 q 130 556 61 429 q 324 753 199 683 q 613 822 449 822 m 401 33 q 463 89 413 33 q 578 243 513 144 q 706 467 643 342 l 710 503 l 719 600 l 636 607 q 483 548 549 606 q 381 397 417 490 q 346 196 346 303 q 356 103 346 139 q 378 50 365 67 q 401 33 392 33 z "},"A":{"ha":728,"x_min":-11,"x_max":653,"o":"m 621 0 l 613 60 l 561 296 l 168 296 l 50 60 l 22 0 l -11 0 l 432 885 l 461 885 l 653 0 l 621 0 m 442 838 l 438 838 l 182 324 l 554 324 l 442 838 z "},"B":{"ha":654,"x_min":111,"x_max":588,"o":"m 421 464 q 544 403 500 451 q 588 275 588 356 q 501 69 588 143 q 256 -4 415 -4 q 111 0 178 -4 l 146 271 l 224 885 l 385 888 q 526 842 476 888 q 576 713 576 796 q 421 464 576 525 m 368 472 q 501 552 454 490 q 547 706 547 614 q 506 817 547 776 q 392 858 464 858 l 249 858 l 200 476 l 368 472 m 251 24 q 478 89 397 24 q 558 271 558 154 q 512 392 558 347 q 378 444 465 438 l 196 444 l 174 271 l 143 28 q 251 24 196 24 z "},"C":{"ha":690,"x_min":76,"x_max":708,"o":"m 486 890 q 607 869 549 890 q 708 808 665 847 l 696 785 l 686 785 q 483 863 604 863 q 278 801 364 863 q 149 624 193 739 q 104 351 104 510 q 170 106 104 192 q 363 21 236 21 q 613 114 493 21 l 622 111 l 617 86 q 361 -7 489 -7 q 149 85 222 -7 q 76 349 76 178 q 125 638 76 517 q 265 825 174 760 q 486 890 357 890 z "},"D":{"ha":846,"x_min":111,"x_max":804,"o":"m 486 892 q 722 802 640 892 q 804 546 804 713 q 752 253 804 378 q 600 61 700 129 q 361 -7 500 -7 q 111 0 257 -7 l 146 271 l 222 885 l 486 892 m 365 21 q 585 85 493 21 q 726 266 678 149 q 775 542 775 383 q 700 781 775 697 q 483 864 625 864 q 247 857 375 864 l 174 271 l 142 26 q 365 21 375 21 z "},"E":{"ha":600,"x_min":111,"x_max":629,"o":"m 199 472 l 508 472 l 513 467 l 504 444 l 196 444 l 174 271 l 143 28 l 522 28 l 526 22 l 518 0 l 111 0 l 146 271 l 222 885 l 626 885 l 629 879 l 621 857 l 247 857 l 199 472 z "},"F":{"ha":547,"x_min":111,"x_max":617,"o":"m 197 458 l 494 458 l 497 453 l 489 431 l 193 431 l 174 271 l 139 0 l 111 0 l 146 271 l 222 885 l 613 885 l 617 879 l 608 857 l 247 857 l 197 458 z "},"G":{"ha":799,"x_min":76,"x_max":753,"o":"m 525 890 q 753 815 643 890 l 742 790 l 732 790 q 521 863 626 863 q 297 801 390 863 q 153 625 203 740 q 104 350 104 510 q 172 106 104 192 q 369 21 240 21 q 484 30 431 21 q 621 63 538 39 l 642 219 l 654 328 l 682 331 l 669 219 l 646 42 q 496 4 553 14 q 369 -6 439 -6 q 151 86 226 -6 q 76 347 76 178 q 130 639 76 517 q 284 826 183 761 q 525 890 385 890 z "},"H":{"ha":889,"x_min":111,"x_max":813,"o":"m 736 271 l 701 0 l 674 0 l 708 271 l 729 436 l 194 436 l 174 271 l 139 0 l 111 0 l 146 271 l 222 885 l 250 885 l 197 464 l 732 464 l 785 885 l 813 885 l 736 271 z "},"I":{"ha":326,"x_min":111,"x_max":250,"o":"m 139 0 l 111 0 l 146 271 l 222 885 l 250 885 l 174 271 l 139 0 z "},"J":{"ha":361,"x_min":-37,"x_max":278,"o":"m 204 294 l 188 160 q 126 -5 175 63 q -25 -136 78 -72 l -37 -121 l -37 -112 q 104 10 57 -54 q 161 160 151 74 l 176 289 l 247 857 l 74 857 l 68 863 l 75 885 l 278 885 l 204 294 z "},"K":{"ha":671,"x_min":111,"x_max":714,"o":"m 139 0 l 111 0 l 146 271 l 224 885 l 251 885 l 174 271 l 139 0 m 275 471 q 619 7 436 225 l 619 1 q 600 -10 614 -4 l 594 -8 q 236 471 388 240 l 236 475 l 604 819 l 669 885 l 714 885 l 275 471 z "},"L":{"ha":525,"x_min":110,"x_max":485,"o":"m 476 0 l 110 0 l 144 271 l 221 885 l 249 885 l 172 271 l 142 28 l 481 28 l 485 22 l 476 0 z "},"M":{"ha":1031,"x_min":65,"x_max":913,"o":"m 860 0 l 868 271 l 879 818 l 874 818 l 506 113 l 471 113 l 286 818 l 281 818 l 156 271 l 94 0 l 65 0 l 268 885 l 300 885 l 336 747 l 489 153 l 494 153 l 815 763 l 879 885 l 913 885 l 889 0 l 860 0 z "},"N":{"ha":889,"x_min":111,"x_max":813,"o":"m 699 0 l 672 0 l 250 826 l 244 826 l 174 276 l 139 0 l 111 0 l 144 264 l 224 885 l 250 885 l 672 58 l 678 58 l 785 883 l 813 886 l 731 244 l 699 0 z "},"O":{"ha":832,"x_min":78,"x_max":789,"o":"m 493 892 q 713 801 638 892 q 789 543 789 711 q 740 250 789 374 q 597 60 690 126 q 371 -7 503 -7 q 153 86 229 -7 q 78 351 78 179 q 126 641 78 519 q 269 827 175 763 q 493 892 363 892 m 492 864 q 285 803 371 864 q 153 627 199 742 q 107 356 107 513 q 176 108 107 196 q 372 21 244 21 q 581 84 493 21 q 714 263 668 147 q 760 538 760 379 q 692 779 760 694 q 492 864 624 864 z "},"P":{"ha":644,"x_min":111,"x_max":617,"o":"m 407 888 q 563 833 508 888 q 617 679 617 779 q 533 434 617 522 q 297 346 450 346 l 183 346 l 174 271 l 139 0 l 111 0 l 146 271 l 222 885 l 407 888 m 342 374 q 523 466 457 385 q 589 674 589 547 q 544 808 589 760 q 414 860 499 856 l 247 858 l 186 374 l 342 374 z "},"Q":{"ha":822,"x_min":78,"x_max":919,"o":"m 442 -1 q 660 -153 538 -94 q 919 -228 782 -211 l 918 -236 q 904 -253 906 -253 l 899 -253 q 632 -171 758 -235 q 406 -6 506 -107 q 371 -7 394 -7 q 153 86 229 -7 q 78 351 78 179 q 126 641 78 519 q 269 827 175 763 q 493 892 363 892 q 713 801 638 892 q 789 543 789 711 q 698 168 789 311 q 442 -1 607 25 m 107 356 q 176 108 107 196 q 372 21 244 21 q 581 84 493 21 q 714 263 668 147 q 760 538 760 379 q 692 779 760 694 q 492 864 624 864 q 285 803 371 864 q 153 627 199 742 q 107 356 107 513 z "},"R":{"ha":686,"x_min":111,"x_max":618,"o":"m 618 682 q 558 484 618 565 q 389 369 499 403 q 579 7 472 183 l 578 1 q 560 -10 571 -6 l 553 -7 q 358 365 440 183 l 185 365 l 174 271 l 139 0 l 111 0 l 146 271 l 222 885 l 407 888 q 563 834 508 888 q 618 682 618 781 m 375 393 q 534 495 478 421 q 590 678 590 569 q 545 808 590 761 q 414 860 500 856 l 247 858 l 189 393 l 375 393 z "},"S":{"ha":588,"x_min":39,"x_max":553,"o":"m 394 889 q 553 849 479 889 l 544 824 l 535 822 q 390 861 471 861 q 271 833 324 861 q 189 758 218 804 q 160 663 160 713 q 182 582 160 617 q 235 523 204 547 q 322 465 267 499 q 419 401 383 429 q 481 331 456 374 q 506 232 506 289 q 469 113 506 168 q 369 26 432 58 q 231 -6 306 -6 q 128 11 179 -6 q 39 60 76 28 l 43 86 l 51 89 q 136 39 88 56 q 233 22 185 22 q 359 51 303 22 q 447 128 415 81 q 478 229 478 175 q 455 315 478 278 q 399 376 432 351 q 310 436 367 401 q 215 500 250 474 q 156 567 181 526 q 132 664 132 608 q 167 778 132 726 q 261 859 201 829 q 394 889 321 889 z "},"T":{"ha":625,"x_min":107,"x_max":658,"o":"m 650 857 l 396 857 l 321 271 l 288 0 l 260 0 l 293 271 l 368 857 l 111 857 l 107 863 l 115 885 l 654 885 l 658 879 l 650 857 z "},"U":{"ha":810,"x_min":113,"x_max":765,"o":"m 694 318 q 594 79 679 164 q 369 -6 508 -6 q 179 59 246 -6 q 113 244 113 124 q 118 318 113 285 l 136 447 l 192 885 l 219 885 l 146 318 q 140 250 140 271 q 199 81 140 140 q 368 22 258 22 q 571 99 494 22 q 667 318 647 175 l 738 885 l 765 885 l 708 433 l 694 318 z "},"V":{"ha":706,"x_min":99,"x_max":763,"o":"m 292 0 l 99 885 l 131 885 l 140 825 l 310 47 l 315 47 l 704 825 l 729 885 l 763 885 l 322 0 l 292 0 z "},"W":{"ha":1158,"x_min":103,"x_max":1213,"o":"m 749 0 l 622 608 l 617 608 l 321 0 l 290 0 l 103 885 l 135 885 l 144 825 l 310 47 l 315 47 l 611 654 l 561 885 l 592 885 l 601 825 l 765 47 l 771 47 l 1154 825 l 1181 885 l 1213 885 l 776 0 l 749 0 z "},"X":{"ha":746,"x_min":10,"x_max":733,"o":"m 643 0 l 608 0 l 586 53 l 381 436 l 82 50 l 47 0 l 10 0 l 367 460 l 143 885 l 179 885 l 201 836 l 388 481 l 658 829 l 696 885 l 733 885 l 403 457 l 643 0 z "},"Y":{"ha":651,"x_min":107,"x_max":683,"o":"m 321 271 l 288 0 l 260 0 l 293 271 l 303 340 l 107 885 l 142 885 l 151 849 l 318 385 l 325 385 l 628 849 l 647 885 l 683 885 l 331 343 l 321 271 z "},"Z":{"ha":669,"x_min":7,"x_max":679,"o":"m 47 28 l 478 28 l 568 29 l 574 22 l 565 0 l 54 0 l 7 -1 l 10 24 l 639 857 l 222 857 l 146 856 l 140 863 l 149 886 l 233 885 l 631 885 l 679 886 l 676 861 l 47 28 z "},"[":{"ha":392,"x_min":99,"x_max":438,"o":"m 435 871 l 253 858 l 131 -146 l 308 -158 l 307 -179 l 300 -185 l 99 -171 l 164 357 l 229 883 l 433 897 l 438 892 l 435 871 z "},"\\":{"ha":500,"x_min":117,"x_max":426,"o":"m 426 -147 l 422 -153 l 400 -153 l 117 931 l 121 938 l 143 938 l 426 -147 z "},"]":{"ha":392,"x_min":-36,"x_max":303,"o":"m -33 -158 l 149 -146 l 271 858 l 93 871 l 94 892 l 101 897 l 303 883 l 238 356 l 172 -171 l -32 -185 l -36 -179 l -33 -158 z "},"^":{"ha":565,"x_min":17,"x_max":513,"o":"m 510 163 l 488 156 l 335 642 l 329 642 l 42 161 l 35 157 l 17 167 l 317 672 l 322 676 l 353 676 l 513 168 l 510 163 z "},"_":{"ha":632,"x_min":-76,"x_max":599,"o":"m 593 -147 l -74 -147 l -76 -143 l -71 -119 l 596 -119 l 599 -124 l 593 -147 z "},"`":{"ha":542,"x_min":221,"x_max":444,"o":"m 242 929 q 444 739 349 819 l 429 721 l 422 719 q 222 907 318 811 l 221 914 l 235 928 l 242 929 z "},"a":{"ha":657,"x_min":8,"x_max":561,"o":"m 529 0 l 521 49 l 479 224 l 154 224 l 63 49 l 40 0 l 8 0 l 365 682 l 396 682 l 561 0 l 529 0 m 378 640 l 374 640 l 168 250 l 472 250 l 378 640 z "},"b":{"ha":594,"x_min":108,"x_max":507,"o":"m 369 357 q 471 310 435 347 q 507 210 507 272 q 435 53 507 108 q 232 -3 363 -3 q 108 0 147 -3 l 136 208 l 196 682 l 333 683 q 454 647 411 683 q 497 544 497 610 q 369 357 497 407 m 324 365 q 428 424 390 378 q 465 540 465 471 q 431 626 465 594 q 335 657 397 657 l 221 657 l 183 368 l 324 365 m 231 22 q 413 72 347 22 q 478 207 478 121 q 328 340 478 328 l 181 339 l 164 210 l 139 26 q 231 22 182 22 z "},"c":{"ha":622,"x_min":81,"x_max":601,"o":"m 417 686 q 601 625 525 686 l 590 600 l 582 600 q 415 660 514 660 q 190 558 269 660 q 110 275 110 457 q 164 87 110 153 q 321 21 218 21 q 528 92 428 21 l 535 89 l 529 64 q 322 -6 428 -6 q 143 67 206 -6 q 81 272 81 139 q 168 576 81 467 q 417 686 256 686 z "},"d":{"ha":754,"x_min":110,"x_max":683,"o":"m 414 688 q 613 616 543 688 q 683 415 683 544 q 588 107 683 219 q 319 -6 492 -6 q 110 0 204 -6 l 136 208 l 196 682 l 414 688 m 324 21 q 567 126 479 21 q 654 413 654 231 q 592 596 654 532 q 413 660 529 660 l 221 654 l 164 210 l 140 26 q 324 21 232 21 z "},"e":{"ha":551,"x_min":108,"x_max":538,"o":"m 182 367 l 439 367 l 442 361 l 435 339 l 179 339 l 163 210 l 139 26 l 454 26 l 458 22 l 450 0 l 108 0 l 135 208 l 194 682 l 533 682 l 538 676 l 529 654 l 219 656 l 182 367 z "},"f":{"ha":494,"x_min":100,"x_max":515,"o":"m 174 354 l 310 354 l 417 356 l 419 350 l 413 328 l 171 328 l 156 210 l 128 0 l 100 0 l 128 208 l 188 682 l 514 682 l 515 676 l 508 654 l 213 656 l 174 354 z "},"g":{"ha":713,"x_min":79,"x_max":639,"o":"m 447 686 q 639 629 544 686 l 628 604 l 621 604 q 447 660 529 660 q 197 559 286 660 q 108 275 108 458 q 165 87 108 153 q 328 21 222 21 q 532 53 415 21 l 546 169 l 558 254 l 586 257 l 574 171 l 557 32 q 432 3 479 11 q 328 -4 385 -4 q 144 67 208 -4 q 79 271 79 139 q 175 578 79 469 q 447 686 271 686 z "},"h":{"ha":786,"x_min":108,"x_max":686,"o":"m 628 210 l 600 0 l 572 0 l 600 208 l 615 333 l 179 333 l 164 210 l 136 0 l 108 0 l 136 208 l 194 682 l 222 682 l 182 360 l 618 360 l 658 682 l 686 682 l 628 210 z "},"i":{"ha":324,"x_min":108,"x_max":222,"o":"m 136 0 l 108 0 l 136 208 l 194 682 l 222 682 l 164 210 l 136 0 z "},"j":{"ha":363,"x_min":8,"x_max":246,"o":"m 190 226 l 178 124 q 133 -5 168 47 q 21 -106 97 -57 l 8 -87 l 8 -81 q 108 12 75 -36 q 150 125 142 60 l 161 222 l 215 656 l 74 656 l 69 660 l 76 682 l 246 682 l 190 226 z "},"k":{"ha":610,"x_min":108,"x_max":603,"o":"m 136 0 l 108 0 l 136 208 l 194 682 l 222 682 l 164 210 l 136 0 m 247 363 q 538 7 376 178 l 535 1 q 513 -8 531 -1 l 508 -6 q 211 361 340 181 l 211 365 l 511 631 l 564 682 l 603 682 l 247 363 z "},"l":{"ha":488,"x_min":107,"x_max":421,"o":"m 414 0 l 107 0 l 135 208 l 194 682 l 222 682 l 163 210 l 139 26 l 419 26 l 421 22 l 414 0 z "},"m":{"ha":903,"x_min":71,"x_max":768,"o":"m 728 0 l 735 208 l 738 621 l 732 621 l 439 86 l 407 86 l 253 621 l 247 621 l 149 210 l 100 0 l 71 0 l 232 682 l 265 682 l 294 576 l 425 126 l 429 126 l 685 588 l 736 682 l 768 682 l 756 0 l 728 0 z "},"n":{"ha":786,"x_min":108,"x_max":686,"o":"m 597 0 l 569 0 l 219 626 l 217 626 l 163 214 l 136 0 l 108 0 l 135 203 l 196 682 l 224 682 l 574 56 l 579 56 l 658 681 l 686 683 l 624 190 l 597 0 z "},"o":{"ha":740,"x_min":79,"x_max":669,"o":"m 421 688 q 605 615 540 688 q 669 413 669 543 q 579 106 669 217 q 328 -6 489 -6 q 144 68 208 -6 q 79 275 79 142 q 169 578 79 469 q 421 688 258 688 m 418 660 q 190 560 271 660 q 110 278 110 460 q 165 88 110 154 q 326 22 221 22 q 557 124 474 22 q 640 408 640 226 q 583 595 640 531 q 418 660 526 660 z "},"p":{"ha":589,"x_min":110,"x_max":531,"o":"m 351 683 q 483 640 436 683 q 531 518 531 596 q 460 334 531 404 q 267 264 389 264 l 171 264 l 164 210 l 138 0 l 110 0 l 136 208 l 196 682 l 351 683 m 301 290 q 447 360 394 300 q 500 515 500 419 q 356 658 500 650 l 221 657 l 174 290 l 301 290 z "},"q":{"ha":732,"x_min":79,"x_max":757,"o":"m 389 -1 q 558 -115 463 -71 q 757 -172 653 -160 l 756 -179 l 744 -196 l 739 -196 q 533 -132 632 -182 q 356 -4 433 -82 l 328 -6 q 144 68 208 -6 q 79 275 79 142 q 169 578 79 469 q 421 688 258 688 q 605 615 540 688 q 669 413 669 543 q 597 128 669 236 q 389 -1 524 19 m 326 22 q 557 124 474 22 q 640 408 640 226 q 583 595 640 531 q 418 660 526 660 q 190 560 271 660 q 110 278 110 460 q 165 88 110 154 q 326 22 221 22 z "},"r":{"ha":625,"x_min":110,"x_max":531,"o":"m 531 522 q 482 373 531 435 q 344 285 433 311 q 504 7 415 142 l 504 1 l 483 -8 l 475 -4 q 315 279 382 144 l 172 279 l 164 210 l 138 0 l 110 0 l 136 208 l 196 682 l 349 683 q 483 641 435 683 q 531 522 531 599 m 326 307 q 456 383 410 328 q 501 518 501 438 q 354 658 501 650 l 221 657 l 176 308 l 326 307 z "},"s":{"ha":538,"x_min":56,"x_max":469,"o":"m 333 685 q 469 654 404 685 l 460 629 l 451 628 q 332 657 399 657 q 236 635 278 657 q 172 577 194 613 q 150 503 150 542 q 183 424 150 454 q 285 361 217 394 q 365 316 335 336 q 417 264 396 296 q 439 186 439 232 q 410 92 439 136 q 331 22 382 49 q 218 -4 281 -4 q 56 46 121 -4 l 58 74 l 65 75 q 219 24 129 24 q 318 47 274 24 q 387 109 363 71 q 411 188 411 147 q 377 267 411 238 q 275 331 343 296 q 194 377 224 357 q 143 428 164 397 q 122 504 122 460 q 149 594 122 553 q 224 660 176 635 q 333 685 272 685 z "},"t":{"ha":571,"x_min":101,"x_max":560,"o":"m 553 654 l 442 656 l 344 656 l 288 210 l 261 0 l 233 0 l 260 208 l 317 656 l 217 656 l 104 654 l 101 660 l 108 682 l 558 682 l 560 676 l 553 654 z "},"u":{"ha":725,"x_min":110,"x_max":650,"o":"m 594 244 q 512 61 582 126 q 325 -4 442 -4 q 165 47 221 -4 q 110 193 110 97 q 114 244 110 218 l 129 344 l 171 682 l 200 682 l 142 246 q 139 199 139 229 q 187 67 139 113 q 326 22 235 22 q 491 80 429 22 q 567 246 553 138 l 622 682 l 650 682 l 606 333 l 594 244 z "},"v":{"ha":639,"x_min":94,"x_max":647,"o":"m 258 0 l 94 682 l 126 682 l 133 633 l 276 42 l 279 42 l 592 633 l 615 682 l 647 682 l 288 0 l 258 0 z "},"w":{"ha":1011,"x_min":99,"x_max":1018,"o":"m 639 0 l 528 460 l 524 460 l 288 0 l 258 0 l 99 682 l 131 682 l 136 633 l 276 43 l 279 43 l 518 504 l 476 682 l 507 682 l 515 632 l 654 43 l 660 43 l 965 633 l 988 682 l 1018 682 l 668 0 l 639 0 z "},"x":{"ha":671,"x_min":25,"x_max":624,"o":"m 556 0 l 521 0 l 499 42 l 331 329 l 92 40 l 63 0 l 25 0 l 315 357 l 126 682 l 164 682 l 183 643 l 336 376 l 553 638 l 585 682 l 624 682 l 351 350 l 556 0 z "},"y":{"ha":594,"x_min":101,"x_max":585,"o":"m 289 207 l 261 0 l 233 0 l 261 207 l 268 263 l 101 682 l 136 682 l 144 653 l 283 301 l 289 301 l 533 653 l 550 682 l 585 682 l 294 257 l 289 207 z "},"z":{"ha":606,"x_min":24,"x_max":576,"o":"m 64 26 l 414 26 l 492 28 l 496 22 l 489 0 l 65 0 l 24 -1 l 26 22 l 536 656 l 196 656 l 131 654 l 126 660 l 133 683 l 207 682 l 535 682 l 576 683 l 572 658 l 64 26 z "},"{":{"ha":392,"x_min":74,"x_max":432,"o":"m 378 907 q 428 900 404 907 l 432 896 l 424 872 q 369 879 386 879 q 281 835 308 879 q 253 685 253 792 l 254 553 q 226 422 254 468 q 142 353 199 375 l 142 350 q 217 229 217 319 q 186 81 217 192 q 154 -82 154 -42 q 240 -176 154 -176 q 296 -169 257 -176 l 299 -193 l 293 -197 q 240 -204 268 -204 q 126 -83 126 -204 q 133 -22 126 -56 q 149 44 140 13 q 160 88 157 76 q 189 226 189 190 q 74 339 189 325 l 76 364 q 191 417 156 374 q 226 556 226 460 l 225 686 q 263 855 225 803 q 378 907 301 907 z "},"|":{"ha":446,"x_min":126,"x_max":333,"o":"m 247 396 l 153 -368 l 129 -368 l 126 -362 l 219 396 l 306 1096 l 331 1099 l 333 1096 l 247 396 z "},"}":{"ha":390,"x_min":-32,"x_max":326,"o":"m 22 -204 q -28 -197 -4 -204 l -32 -193 l -24 -169 q 31 -176 14 -176 q 119 -133 92 -176 q 147 18 147 -89 l 146 150 q 174 281 146 235 q 258 350 201 328 l 258 353 q 183 474 183 383 q 214 622 183 511 q 246 785 246 744 q 160 879 246 879 q 104 872 143 879 l 101 896 l 107 900 q 160 907 132 907 q 274 786 274 907 q 267 724 274 758 q 251 658 260 690 q 240 615 243 626 q 211 476 211 513 q 326 364 211 378 l 324 339 q 209 286 244 329 q 174 147 174 243 l 175 17 q 137 -152 175 -100 q 22 -204 99 -204 z "},"~":{"ha":668,"x_min":99,"x_max":568,"o":"m 204 388 q 143 347 190 388 l 117 324 l 108 324 l 99 336 l 99 343 l 188 417 l 196 421 q 325 390 213 418 q 463 358 435 358 q 488 369 474 358 q 521 397 501 379 q 550 422 540 414 l 558 422 l 568 408 l 568 403 l 478 328 l 469 325 q 329 358 438 328 q 204 388 228 388 z "}," ":{"ha":208,"x_min":0,"x_max":0,"o":""},"¡":{"ha":346,"x_min":71,"x_max":228,"o":"m 158 360 l 181 360 l 186 353 l 99 -269 l 93 -274 l 74 -274 l 71 -269 l 158 360 m 200 582 q 172 610 172 582 q 200 638 172 638 q 228 610 228 638 q 200 582 228 582 z "},"¢":{"ha":528,"x_min":76,"x_max":479,"o":"m 471 642 l 464 638 q 369 669 408 669 l 344 668 l 243 86 q 400 225 333 104 l 408 225 l 419 210 q 336 106 379 140 q 239 61 293 72 l 200 -158 l 179 -158 l 174 -153 l 211 57 l 204 57 q 137 81 164 64 q 93 141 110 97 q 76 265 76 185 q 138 549 76 435 q 319 690 199 663 l 356 903 l 378 903 l 385 896 l 349 694 q 390 697 376 697 l 472 671 l 479 661 l 471 642 m 314 663 q 159 534 214 639 q 104 264 104 429 q 214 83 104 83 l 215 83 l 314 663 z "},"£":{"ha":533,"x_min":7,"x_max":515,"o":"m 381 821 q 515 794 442 821 l 508 768 l 504 765 q 381 793 450 793 q 211 621 233 793 l 190 456 l 365 456 l 368 450 l 361 428 l 188 428 l 157 181 q 83 31 144 78 l 83 28 l 344 28 l 440 29 l 444 22 l 438 0 l 11 0 l 7 6 l 14 25 q 91 72 61 32 q 129 181 121 113 l 160 428 l 67 428 l 63 433 l 69 456 l 163 456 l 183 621 q 381 821 210 821 z "},"¤":{"ha":606,"x_min":74,"x_max":579,"o":"m 578 715 l 478 626 q 508 528 508 585 q 449 394 508 450 l 529 303 l 528 296 l 511 282 l 504 283 l 425 374 q 306 329 372 329 q 194 374 239 329 l 92 282 l 85 283 l 74 297 l 75 304 l 176 394 q 146 493 146 433 q 206 626 146 567 l 125 718 l 128 725 l 142 738 l 149 738 l 229 646 q 349 690 282 690 q 460 647 413 690 l 561 738 l 568 736 l 579 722 l 578 715 m 346 663 q 262 640 301 663 q 198 578 222 617 q 174 494 174 539 q 213 397 174 438 q 308 357 251 357 q 392 380 353 357 q 456 442 432 403 q 481 525 481 481 q 442 622 481 582 q 346 663 403 663 z "},"¥":{"ha":636,"x_min":22,"x_max":610,"o":"m 606 385 l 599 361 l 386 361 l 314 257 l 308 208 l 579 208 l 583 204 l 576 181 l 304 181 l 281 0 l 253 0 l 276 181 l 25 181 l 22 185 l 28 208 l 281 208 l 288 263 l 247 361 l 47 361 l 44 365 l 50 389 l 236 389 l 117 682 l 151 682 l 160 653 l 303 301 l 308 301 l 557 653 l 575 682 l 610 682 l 406 389 l 601 389 l 606 385 z "},"¦":{"ha":446,"x_min":126,"x_max":333,"o":"m 261 511 l 238 508 l 233 513 l 306 1096 l 331 1099 l 333 1096 l 261 511 m 153 -368 l 129 -368 l 126 -362 l 197 218 l 221 222 l 225 215 l 153 -368 z "},"§":{"ha":565,"x_min":21,"x_max":528,"o":"m 404 889 q 528 861 465 889 l 519 835 l 511 833 q 397 861 454 861 q 307 840 346 861 q 247 785 268 818 q 226 717 226 751 q 256 637 226 674 q 350 544 286 600 q 456 437 419 483 q 492 333 492 390 q 344 149 492 224 q 392 35 392 92 q 363 -54 392 -12 q 283 -121 333 -96 q 174 -146 233 -146 q 21 -97 85 -146 l 28 -74 l 36 -69 q 178 -118 96 -118 q 274 -97 232 -118 q 340 -41 317 -75 q 363 31 363 -7 q 331 117 363 78 q 235 213 300 156 q 131 315 167 271 q 96 415 96 360 q 135 519 96 471 q 243 604 175 568 q 197 715 197 660 q 225 801 197 761 q 300 865 253 842 q 404 889 347 889 m 464 331 q 431 420 464 379 q 333 518 399 461 q 261 585 275 569 q 160 508 196 551 q 124 418 124 464 q 156 333 124 372 q 251 239 189 293 q 326 169 313 185 q 464 331 464 235 z "},"¨":{"ha":542,"x_min":201,"x_max":465,"o":"m 229 856 q 257 828 257 856 q 229 800 257 800 q 201 828 201 800 q 229 856 201 856 m 438 856 q 465 828 465 856 q 438 800 465 800 q 410 828 410 800 q 438 856 410 856 z "},"©":{"ha":956,"x_min":83,"x_max":893,"o":"m 488 831 q 700 778 608 831 q 842 629 792 725 q 893 407 893 533 q 842 185 893 281 q 700 36 792 89 q 488 -17 608 -17 q 275 36 367 -17 q 133 185 183 89 q 83 407 83 281 q 133 629 83 533 q 275 778 183 725 q 488 831 367 831 m 488 803 q 290 753 375 803 q 158 615 204 704 q 111 407 111 525 q 158 199 111 289 q 290 60 204 110 q 488 11 375 11 q 685 60 600 11 q 818 199 771 110 q 865 407 865 289 q 818 615 865 525 q 685 753 771 704 q 488 803 600 803 m 500 646 q 636 606 574 646 l 629 581 l 622 581 q 500 618 572 618 q 366 565 413 618 q 319 410 319 511 q 365 255 319 308 q 493 201 410 201 q 631 246 569 201 l 636 244 l 633 218 q 492 174 561 174 q 343 235 394 174 q 292 410 292 296 q 345 585 292 524 q 500 646 399 646 z "},"ª":{"ha":415,"x_min":100,"x_max":396,"o":"m 354 581 l 347 486 l 315 482 l 346 717 l 340 717 q 164 482 261 568 l 153 482 q 112 529 124 500 q 100 611 100 558 q 155 805 100 725 q 307 893 210 885 l 311 893 l 371 888 l 390 896 l 396 893 l 354 581 m 163 515 q 201 549 171 515 q 274 645 232 583 q 354 785 315 707 l 357 807 l 363 864 l 307 868 q 176 794 225 867 q 126 618 126 721 q 139 541 126 567 q 163 515 151 515 z "},"«":{"ha":506,"x_min":65,"x_max":529,"o":"m 68 321 l 311 550 l 326 538 l 325 529 l 97 310 l 272 90 l 271 82 l 253 69 l 65 306 l 68 321 m 271 321 l 514 550 l 529 538 l 528 529 l 300 310 l 475 90 l 474 82 l 456 69 l 268 306 l 271 321 z "},"¬":{"ha":667,"x_min":56,"x_max":586,"o":"m 551 99 l 528 96 l 524 100 l 556 361 l 58 361 l 56 365 l 61 389 l 579 389 l 586 381 l 551 99 z "},"­":{"ha":433,"x_min":44,"x_max":397,"o":"m 396 363 l 49 317 l 44 322 l 47 344 l 393 390 l 397 385 l 396 363 z "},"®":{"ha":600,"x_min":56,"x_max":546,"o":"m 301 975 q 479 908 413 975 q 546 731 546 842 q 479 552 546 619 q 301 485 413 485 q 123 552 190 485 q 56 731 56 619 q 123 908 56 842 q 301 975 190 975 m 301 511 q 460 572 400 511 q 519 731 519 632 q 460 889 519 829 q 301 949 400 949 q 142 889 203 949 q 82 731 82 829 q 142 572 82 632 q 301 511 203 511 m 386 797 q 329 714 386 738 q 403 613 365 657 l 403 608 q 374 603 404 608 l 369 606 q 299 708 338 647 l 250 708 l 250 690 l 251 607 l 221 607 l 221 874 l 303 874 q 386 797 386 874 m 306 733 q 356 794 356 750 q 296 849 356 846 l 251 847 l 250 736 l 306 733 z "},"¯":{"ha":542,"x_min":132,"x_max":538,"o":"m 535 815 l 136 815 l 132 819 l 135 843 l 533 843 l 538 839 l 535 815 z "},"°":{"ha":410,"x_min":85,"x_max":425,"o":"m 276 892 q 383 849 340 892 q 425 742 425 806 q 399 650 425 692 q 328 584 372 608 q 235 560 285 560 q 127 602 169 560 q 85 708 85 644 q 111 800 85 758 q 182 867 138 842 q 276 892 226 892 m 272 864 q 195 843 232 864 q 135 787 158 822 q 113 713 113 751 q 149 624 113 661 q 239 588 186 588 q 315 608 278 588 q 374 664 351 629 q 396 738 396 699 q 360 827 396 790 q 272 864 324 864 z "},"±":{"ha":665,"x_min":6,"x_max":619,"o":"m 356 389 l 615 389 l 619 385 l 614 361 l 351 361 l 319 99 l 296 96 l 292 100 l 324 361 l 64 361 l 60 365 l 65 389 l 328 389 l 360 651 l 383 654 l 388 650 l 356 389 m 561 -90 l 10 -90 l 6 -86 l 8 -62 l 560 -62 l 564 -67 l 561 -90 z "},"²":{"ha":467,"x_min":81,"x_max":456,"o":"m 317 975 q 398 949 367 975 q 429 882 429 924 q 395 791 429 839 q 274 650 361 743 l 124 489 l 126 486 l 369 486 l 454 488 l 456 482 l 449 458 l 358 460 l 124 460 l 83 458 l 81 461 l 83 482 l 254 664 q 369 795 338 753 q 400 875 400 838 q 376 928 400 907 q 311 949 353 949 q 153 869 225 949 l 149 869 l 146 893 q 317 975 221 975 z "},"³":{"ha":408,"x_min":74,"x_max":376,"o":"m 263 976 q 345 951 314 976 q 376 882 376 925 q 344 801 376 840 q 261 740 313 763 l 261 738 q 342 697 314 726 q 371 622 371 667 q 310 503 371 550 q 156 457 249 457 q 74 465 114 457 l 74 488 l 76 490 q 160 483 121 483 q 292 521 240 483 q 343 621 343 558 q 307 693 343 667 q 204 722 271 719 l 158 722 l 156 725 l 160 746 l 200 746 q 264 763 229 746 q 322 810 299 781 q 346 875 346 840 q 322 930 346 910 q 257 950 297 950 q 131 896 197 950 l 126 896 l 124 919 q 263 976 194 976 z "},"´":{"ha":542,"x_min":222,"x_max":446,"o":"m 446 914 l 444 907 q 244 719 349 811 l 238 721 l 222 739 q 425 929 318 819 l 432 928 l 446 914 z "},"µ":{"ha":636,"x_min":53,"x_max":550,"o":"m 486 147 l 474 0 l 439 -6 l 489 371 l 482 371 q 323 122 392 215 q 186 -15 254 29 l 171 -15 q 118 26 135 -4 l 100 -117 l 88 -264 l 53 -269 l 153 503 l 161 628 l 196 633 l 128 104 q 140 44 124 68 q 176 21 157 21 q 302 139 213 21 q 500 458 392 257 l 506 503 l 515 628 l 550 633 l 486 147 z "},"¶":{"ha":622,"x_min":110,"x_max":642,"o":"m 635 857 l 522 857 l 446 233 l 438 169 q 233 -94 419 18 l 221 -79 l 222 -71 q 410 164 393 33 l 417 219 l 494 857 l 396 857 q 206 783 274 850 q 138 600 138 715 q 193 451 138 508 q 354 374 249 393 l 346 346 q 171 428 232 365 q 110 594 110 490 q 189 808 110 731 q 410 885 268 885 l 638 885 l 642 879 l 635 857 z "},"·":{"ha":319,"x_min":133,"x_max":189,"o":"m 161 358 q 189 331 189 358 q 161 303 189 303 q 133 331 133 303 q 161 358 133 358 z "},"¸":{"ha":542,"x_min":125,"x_max":290,"o":"m 244 -104 q 290 -174 290 -133 q 266 -227 290 -207 q 207 -247 242 -247 q 125 -201 156 -247 l 133 -176 l 139 -176 q 168 -209 153 -199 q 207 -219 183 -219 q 247 -208 232 -219 q 263 -174 263 -196 q 255 -149 263 -158 q 229 -128 247 -140 l 169 -89 l 203 15 l 231 15 l 201 -76 l 244 -104 z "},"¹":{"ha":333,"x_min":94,"x_max":272,"o":"m 231 640 l 208 460 l 181 460 l 203 635 l 240 943 l 100 906 l 94 908 l 97 931 l 268 979 l 272 974 l 231 640 z "},"º":{"ha":392,"x_min":99,"x_max":383,"o":"m 292 894 q 361 860 339 890 q 383 768 383 829 q 333 565 383 644 q 197 481 283 486 l 192 481 q 121 515 143 483 q 99 610 99 546 q 149 813 99 733 q 288 894 200 893 l 292 894 m 285 869 q 170 797 214 869 q 126 613 126 725 q 199 506 126 506 q 312 578 268 506 q 356 764 356 651 q 339 844 356 818 q 285 869 322 869 z "},"»":{"ha":493,"x_min":-19,"x_max":444,"o":"m 442 299 l 199 69 l 183 82 l 185 90 l 413 310 l 238 529 l 239 538 l 257 550 l 444 314 l 442 299 m 239 299 l -4 69 l -19 82 l -18 90 l 210 310 l 35 529 l 36 538 l 54 550 l 242 314 l 239 299 z "},"¼":{"ha":863,"x_min":-58,"x_max":792,"o":"m -43 -125 l -54 -119 l -58 -107 l 742 929 l 756 922 l 758 911 l -43 -125 m 85 821 l 88 843 l 258 892 l 263 886 l 221 553 l 199 372 l 171 372 l 193 547 l 231 856 l 90 818 l 85 821 m 785 164 l 715 165 l 689 165 l 671 3 l 667 0 l 644 -3 l 642 0 l 663 165 l 468 165 l 425 164 l 421 168 l 424 189 l 706 513 l 732 513 l 692 190 l 788 190 l 792 186 l 785 164 m 700 468 l 696 468 l 454 190 l 665 190 l 700 468 z "},"½":{"ha":864,"x_min":-58,"x_max":794,"o":"m 758 911 l -43 -125 l -54 -119 l -58 -107 l 742 929 l 756 922 l 758 911 m 221 553 l 199 372 l 171 372 l 193 547 l 231 856 l 90 818 l 85 821 l 88 843 l 258 892 l 263 886 l 221 553 m 656 515 q 737 490 706 515 q 768 422 768 464 q 734 331 768 379 q 613 190 700 283 l 463 29 l 465 26 l 708 26 l 793 28 l 794 22 l 788 -1 l 697 0 l 463 0 l 422 -1 l 419 1 l 422 22 l 593 204 q 708 335 676 293 q 739 415 739 378 q 715 468 739 447 q 650 489 692 489 q 492 410 564 489 l 488 410 l 485 433 q 656 515 560 515 z "},"¾":{"ha":938,"x_min":17,"x_max":867,"o":"m 32 -125 l 21 -119 l 17 -107 l 817 929 l 831 922 l 833 911 l 32 -125 m 360 535 q 299 416 360 463 q 144 369 238 369 q 63 378 101 369 l 63 400 l 65 403 q 149 396 110 396 q 281 433 229 396 q 332 533 332 471 q 296 606 332 579 q 193 635 260 632 l 147 635 l 144 638 l 149 658 l 189 658 q 253 676 218 658 q 311 723 288 693 q 335 788 335 753 q 310 842 335 822 q 246 863 286 863 q 119 808 186 863 l 115 808 l 113 832 q 251 889 183 889 q 334 863 303 889 q 365 794 365 838 q 333 714 365 753 q 250 653 301 675 l 250 650 q 331 609 303 639 q 360 535 360 579 m 860 164 l 790 165 l 764 165 l 746 3 l 742 0 l 719 -3 l 717 0 l 738 165 l 543 165 l 500 164 l 496 168 l 499 189 l 781 513 l 807 513 l 767 190 l 863 190 l 867 186 l 860 164 m 775 468 l 771 468 l 529 190 l 740 190 l 775 468 z "},"¿":{"ha":449,"x_min":-29,"x_max":317,"o":"m 258 -274 q 47 -211 124 -262 q -29 -78 -29 -160 q 101 118 -29 35 l 246 210 l 249 214 l 260 364 l 283 365 l 286 360 l 276 204 l 268 192 l 115 96 q 0 -72 0 24 q 71 -193 0 -147 q 275 -247 142 -239 l 278 -251 l 268 -269 l 258 -274 m 289 582 q 261 610 261 582 q 289 638 261 638 q 317 610 317 638 q 289 582 317 582 z "},"À":{"ha":728,"x_min":-11,"x_max":653,"o":"m 621 0 l 613 60 l 561 296 l 168 296 l 50 60 l 22 0 l -11 0 l 432 885 l 461 885 l 653 0 l 621 0 m 442 838 l 438 838 l 182 324 l 554 324 l 442 838 m 353 1161 q 597 1031 471 1092 l 588 1010 l 581 1006 q 339 1135 432 1082 l 336 1142 l 346 1158 l 353 1161 z "},"Á":{"ha":728,"x_min":-11,"x_max":653,"o":"m 621 0 l 613 60 l 561 296 l 168 296 l 50 60 l 22 0 l -11 0 l 432 885 l 461 885 l 653 0 l 621 0 m 442 838 l 438 838 l 182 324 l 554 324 l 442 838 m 613 1142 l 610 1135 q 368 1006 517 1082 l 361 1010 l 351 1031 q 596 1161 478 1092 l 603 1158 l 613 1142 z "},"Â":{"ha":728,"x_min":-11,"x_max":653,"o":"m 621 0 l 613 60 l 561 296 l 168 296 l 50 60 l 22 0 l -11 0 l 432 885 l 461 885 l 653 0 l 621 0 m 442 838 l 438 838 l 182 324 l 554 324 l 442 838 m 319 1042 q 467 1147 381 1081 l 489 1147 q 615 1042 572 1075 l 604 1022 l 597 1022 q 476 1119 542 1063 q 333 1022 411 1071 l 326 1022 l 319 1042 z "},"Ã":{"ha":728,"x_min":-11,"x_max":661,"o":"m 621 0 l 613 60 l 561 296 l 168 296 l 50 60 l 22 0 l -11 0 l 432 885 l 461 885 l 653 0 l 621 0 m 442 838 l 438 838 l 182 324 l 554 324 l 442 838 m 661 1113 l 589 1047 l 581 1044 q 468 1072 553 1047 q 364 1097 379 1097 q 322 1067 353 1097 l 293 1040 l 288 1040 l 275 1056 l 275 1061 l 347 1126 l 356 1129 q 468 1101 383 1126 q 572 1076 557 1076 q 614 1107 583 1076 l 643 1133 l 649 1133 l 661 1118 l 661 1113 z "},"Ä":{"ha":728,"x_min":-11,"x_max":653,"o":"m 621 0 l 613 60 l 561 296 l 168 296 l 50 60 l 22 0 l -11 0 l 432 885 l 461 885 l 653 0 l 621 0 m 442 838 l 438 838 l 182 324 l 554 324 l 442 838 m 364 1113 q 392 1085 392 1113 q 364 1057 392 1057 q 336 1085 336 1057 q 364 1113 336 1113 m 572 1113 q 600 1085 600 1113 q 572 1057 600 1057 q 544 1085 544 1057 q 572 1113 544 1113 z "},"Å":{"ha":728,"x_min":-11,"x_max":653,"o":"m 621 0 l 613 60 l 561 296 l 168 296 l 50 60 l 22 0 l -11 0 l 432 885 l 461 885 l 653 0 l 621 0 m 442 838 l 438 838 l 182 324 l 554 324 l 442 838 m 467 1185 q 539 1156 513 1185 q 565 1088 565 1126 q 535 1018 565 1044 q 467 992 506 992 q 399 1019 428 992 q 369 1089 369 1046 q 397 1158 369 1131 q 467 1185 424 1185 m 467 1157 q 416 1138 435 1157 q 397 1089 397 1119 q 417 1038 397 1057 q 467 1019 438 1019 q 517 1038 496 1019 q 538 1088 538 1056 q 519 1137 538 1117 q 467 1157 500 1157 z "},"Æ":{"ha":1033,"x_min":-58,"x_max":965,"o":"m 957 0 l 560 0 l 560 60 l 549 403 l 203 343 l 15 60 l -21 0 l -58 0 l 533 885 l 929 885 l 932 879 l 922 857 l 564 857 l 576 435 l 892 489 l 894 485 l 888 461 l 576 408 l 588 28 l 964 28 l 965 22 l 957 0 m 535 836 l 531 836 l 225 375 l 547 431 l 535 836 z "},"Ç":{"ha":690,"x_min":76,"x_max":708,"o":"m 486 890 q 607 869 549 890 q 708 808 665 847 l 696 785 l 686 785 q 483 863 604 863 q 278 801 364 863 q 149 624 193 739 q 104 351 104 510 q 170 106 104 192 q 363 21 236 21 q 613 114 493 21 l 622 111 l 617 86 q 388 -6 500 3 l 365 -76 l 408 -104 q 454 -174 454 -133 q 430 -227 454 -207 q 371 -247 406 -247 q 289 -201 319 -247 l 297 -176 l 303 -176 q 332 -209 317 -199 q 371 -219 347 -219 q 411 -208 396 -219 q 426 -174 426 -196 q 419 -149 426 -158 q 393 -128 411 -140 l 333 -89 l 360 -7 q 149 86 222 -6 q 76 349 76 178 q 125 638 76 517 q 265 825 174 760 q 486 890 357 890 z "},"È":{"ha":600,"x_min":111,"x_max":629,"o":"m 199 472 l 508 472 l 513 467 l 504 444 l 196 444 l 174 271 l 143 28 l 522 28 l 526 22 l 518 0 l 111 0 l 146 271 l 222 885 l 626 885 l 629 879 l 621 857 l 247 857 l 199 472 m 342 1161 q 586 1031 460 1092 l 576 1010 l 569 1006 q 328 1135 421 1082 l 325 1142 l 335 1158 l 342 1161 z "},"É":{"ha":600,"x_min":111,"x_max":629,"o":"m 199 472 l 508 472 l 513 467 l 504 444 l 196 444 l 174 271 l 143 28 l 522 28 l 526 22 l 518 0 l 111 0 l 146 271 l 222 885 l 626 885 l 629 879 l 621 857 l 247 857 l 199 472 m 601 1142 l 599 1135 q 357 1006 506 1082 l 350 1010 l 340 1031 q 585 1161 467 1092 l 592 1158 l 601 1142 z "},"Ê":{"ha":600,"x_min":111,"x_max":629,"o":"m 199 472 l 508 472 l 513 467 l 504 444 l 196 444 l 174 271 l 143 28 l 522 28 l 526 22 l 518 0 l 111 0 l 146 271 l 222 885 l 626 885 l 629 879 l 621 857 l 247 857 l 199 472 m 308 1042 q 456 1147 369 1081 l 478 1147 q 604 1042 561 1075 l 593 1022 l 586 1022 q 465 1119 531 1063 q 322 1022 400 1071 l 315 1022 l 308 1042 z "},"Ë":{"ha":600,"x_min":111,"x_max":629,"o":"m 199 472 l 508 472 l 513 467 l 504 444 l 196 444 l 174 271 l 143 28 l 522 28 l 526 22 l 518 0 l 111 0 l 146 271 l 222 885 l 626 885 l 629 879 l 621 857 l 247 857 l 199 472 m 353 1113 q 381 1085 381 1113 q 353 1057 381 1057 q 325 1085 325 1057 q 353 1113 325 1113 m 561 1113 q 589 1085 589 1113 q 561 1057 589 1057 q 533 1085 533 1057 q 561 1113 533 1113 z "},"Ì":{"ha":326,"x_min":111,"x_max":388,"o":"m 139 0 l 111 0 l 146 271 l 222 885 l 250 885 l 174 271 l 139 0 m 143 1161 q 388 1031 261 1092 l 378 1010 l 371 1006 q 129 1135 222 1082 l 126 1142 l 136 1158 l 143 1161 z "},"Í":{"ha":326,"x_min":111,"x_max":403,"o":"m 139 0 l 111 0 l 146 271 l 222 885 l 250 885 l 174 271 l 139 0 m 403 1142 l 400 1135 q 158 1006 307 1082 l 151 1010 l 142 1031 q 386 1161 268 1092 l 393 1158 l 403 1142 z "},"Î":{"ha":326,"x_min":110,"x_max":406,"o":"m 139 0 l 111 0 l 146 271 l 222 885 l 250 885 l 174 271 l 139 0 m 110 1042 q 257 1147 171 1081 l 279 1147 q 406 1042 363 1075 l 394 1022 l 388 1022 q 267 1119 332 1063 q 124 1022 201 1071 l 117 1022 l 110 1042 z "},"Ï":{"ha":326,"x_min":111,"x_max":357,"o":"m 139 0 l 111 0 l 146 271 l 222 885 l 250 885 l 174 271 l 139 0 m 188 1113 q 215 1085 215 1113 q 188 1057 215 1057 q 160 1085 160 1057 q 188 1113 160 1113 m 329 1113 q 357 1085 357 1113 q 329 1057 357 1057 q 301 1085 301 1057 q 329 1113 301 1113 z "},"Ð":{"ha":875,"x_min":43,"x_max":832,"o":"m 514 892 q 750 802 668 892 q 832 546 832 713 q 780 253 832 378 q 628 61 728 129 q 389 -7 528 -7 q 139 0 285 -7 l 174 271 l 194 443 l 44 443 l 43 447 l 46 471 l 199 471 l 250 885 l 514 892 m 393 21 q 613 85 521 21 q 754 266 706 149 q 803 542 803 383 q 728 781 803 697 q 511 864 653 864 q 275 857 403 864 l 226 471 l 476 471 l 479 467 l 475 443 l 222 443 l 201 271 l 169 26 q 393 21 403 21 z "},"Ñ":{"ha":889,"x_min":111,"x_max":813,"o":"m 699 0 l 672 0 l 250 826 l 244 826 l 174 276 l 139 0 l 111 0 l 144 264 l 224 885 l 250 885 l 672 58 l 678 58 l 785 883 l 813 886 l 731 244 l 699 0 m 733 1113 l 661 1047 l 653 1044 q 540 1072 625 1047 q 436 1097 451 1097 q 394 1067 425 1097 l 365 1040 l 360 1040 l 347 1056 l 347 1061 l 419 1126 l 428 1129 q 540 1101 456 1126 q 644 1076 629 1076 q 686 1107 656 1076 l 715 1133 l 721 1133 l 733 1118 l 733 1113 z "},"Ò":{"ha":832,"x_min":78,"x_max":789,"o":"m 493 892 q 713 801 638 892 q 789 543 789 711 q 740 250 789 374 q 597 60 690 126 q 371 -7 503 -7 q 153 86 229 -7 q 78 351 78 179 q 126 641 78 519 q 269 827 175 763 q 493 892 363 892 m 492 864 q 285 803 371 864 q 153 627 199 742 q 107 356 107 513 q 176 108 107 196 q 372 21 244 21 q 581 84 493 21 q 714 263 668 147 q 760 538 760 379 q 692 779 760 694 q 492 864 624 864 m 396 1161 q 640 1031 514 1092 l 631 1010 l 624 1006 q 382 1135 475 1082 l 379 1142 l 389 1158 l 396 1161 z "},"Ó":{"ha":832,"x_min":78,"x_max":789,"o":"m 493 892 q 713 801 638 892 q 789 543 789 711 q 740 250 789 374 q 597 60 690 126 q 371 -7 503 -7 q 153 86 229 -7 q 78 351 78 179 q 126 641 78 519 q 269 827 175 763 q 493 892 363 892 m 492 864 q 285 803 371 864 q 153 627 199 742 q 107 356 107 513 q 176 108 107 196 q 372 21 244 21 q 581 84 493 21 q 714 263 668 147 q 760 538 760 379 q 692 779 760 694 q 492 864 624 864 m 656 1142 l 653 1135 q 411 1006 560 1082 l 404 1010 l 394 1031 q 639 1161 521 1092 l 646 1158 l 656 1142 z "},"Ô":{"ha":832,"x_min":78,"x_max":789,"o":"m 493 892 q 713 801 638 892 q 789 543 789 711 q 740 250 789 374 q 597 60 690 126 q 371 -7 503 -7 q 153 86 229 -7 q 78 351 78 179 q 126 641 78 519 q 269 827 175 763 q 493 892 363 892 m 492 864 q 285 803 371 864 q 153 627 199 742 q 107 356 107 513 q 176 108 107 196 q 372 21 244 21 q 581 84 493 21 q 714 263 668 147 q 760 538 760 379 q 692 779 760 694 q 492 864 624 864 m 363 1042 q 510 1147 424 1081 l 532 1147 q 658 1042 615 1075 l 647 1022 l 640 1022 q 519 1119 585 1063 q 376 1022 454 1071 l 369 1022 l 363 1042 z "},"Õ":{"ha":832,"x_min":78,"x_max":789,"o":"m 493 892 q 713 801 638 892 q 789 543 789 711 q 740 250 789 374 q 597 60 690 126 q 371 -7 503 -7 q 153 86 229 -7 q 78 351 78 179 q 126 641 78 519 q 269 827 175 763 q 493 892 363 892 m 492 864 q 285 803 371 864 q 153 627 199 742 q 107 356 107 513 q 176 108 107 196 q 372 21 244 21 q 581 84 493 21 q 714 263 668 147 q 760 538 760 379 q 692 779 760 694 q 492 864 624 864 m 704 1113 l 632 1047 l 624 1044 q 511 1072 596 1047 q 407 1097 422 1097 q 365 1067 396 1097 l 336 1040 l 331 1040 l 318 1056 l 318 1061 l 390 1126 l 399 1129 q 511 1101 426 1126 q 615 1076 600 1076 q 657 1107 626 1076 l 686 1133 l 692 1133 l 704 1118 l 704 1113 z "},"Ö":{"ha":832,"x_min":78,"x_max":789,"o":"m 493 892 q 713 801 638 892 q 789 543 789 711 q 740 250 789 374 q 597 60 690 126 q 371 -7 503 -7 q 153 86 229 -7 q 78 351 78 179 q 126 641 78 519 q 269 827 175 763 q 493 892 363 892 m 492 864 q 285 803 371 864 q 153 627 199 742 q 107 356 107 513 q 176 108 107 196 q 372 21 244 21 q 581 84 493 21 q 714 263 668 147 q 760 538 760 379 q 692 779 760 694 q 492 864 624 864 m 407 1113 q 435 1085 435 1113 q 407 1057 435 1057 q 379 1085 379 1057 q 407 1113 379 1113 m 615 1113 q 643 1085 643 1113 q 615 1057 643 1057 q 588 1085 588 1057 q 615 1113 588 1113 z "},"×":{"ha":668,"x_min":114,"x_max":569,"o":"m 568 560 l 361 375 l 522 190 l 522 185 l 503 169 l 339 356 l 131 169 l 114 185 l 114 190 l 322 375 l 160 560 l 161 565 l 181 581 l 343 394 l 553 581 l 569 565 l 568 560 z "},"Ø":{"ha":833,"x_min":78,"x_max":789,"o":"m 679 835 q 789 543 789 746 q 740 250 789 374 q 597 60 690 126 q 371 -7 503 -7 q 225 26 286 -7 l 142 -121 l 121 -117 l 118 -111 l 203 40 q 78 351 78 128 q 126 641 78 519 q 269 827 175 763 q 493 892 363 892 q 657 850 592 892 l 733 985 l 756 981 l 757 974 l 679 835 m 107 356 q 218 67 107 150 l 643 824 q 492 864 582 864 q 285 803 371 864 q 153 627 199 742 q 107 356 107 513 m 372 21 q 581 84 493 21 q 714 263 668 147 q 760 538 760 379 q 664 808 760 728 l 239 53 q 372 21 296 21 z "},"Ù":{"ha":810,"x_min":113,"x_max":765,"o":"m 694 318 q 594 79 679 164 q 369 -6 508 -6 q 179 59 246 -6 q 113 244 113 124 q 118 318 113 285 l 136 447 l 192 885 l 219 885 l 146 318 q 140 250 140 271 q 199 81 140 140 q 368 22 258 22 q 571 99 494 22 q 667 318 647 175 l 738 885 l 765 885 l 708 433 l 694 318 m 385 1161 q 629 1031 503 1092 l 619 1010 l 613 1006 q 371 1135 464 1082 l 368 1142 l 378 1158 l 385 1161 z "},"Ú":{"ha":810,"x_min":113,"x_max":765,"o":"m 694 318 q 594 79 679 164 q 369 -6 508 -6 q 179 59 246 -6 q 113 244 113 124 q 118 318 113 285 l 136 447 l 192 885 l 219 885 l 146 318 q 140 250 140 271 q 199 81 140 140 q 368 22 258 22 q 571 99 494 22 q 667 318 647 175 l 738 885 l 765 885 l 708 433 l 694 318 m 644 1142 l 642 1135 q 400 1006 549 1082 l 393 1010 l 383 1031 q 628 1161 510 1092 l 635 1158 l 644 1142 z "},"Û":{"ha":810,"x_min":113,"x_max":765,"o":"m 694 318 q 594 79 679 164 q 369 -6 508 -6 q 179 59 246 -6 q 113 244 113 124 q 118 318 113 285 l 136 447 l 192 885 l 219 885 l 146 318 q 140 250 140 271 q 199 81 140 140 q 368 22 258 22 q 571 99 494 22 q 667 318 647 175 l 738 885 l 765 885 l 708 433 l 694 318 m 351 1042 q 499 1147 413 1081 l 521 1147 q 647 1042 604 1075 l 636 1022 l 629 1022 q 508 1119 574 1063 q 365 1022 443 1071 l 358 1022 l 351 1042 z "},"Ü":{"ha":810,"x_min":113,"x_max":765,"o":"m 694 318 q 594 79 679 164 q 369 -6 508 -6 q 179 59 246 -6 q 113 244 113 124 q 118 318 113 285 l 136 447 l 192 885 l 219 885 l 146 318 q 140 250 140 271 q 199 81 140 140 q 368 22 258 22 q 571 99 494 22 q 667 318 647 175 l 738 885 l 765 885 l 708 433 l 694 318 m 396 1113 q 424 1085 424 1113 q 396 1057 424 1057 q 368 1085 368 1057 q 396 1113 368 1113 m 604 1113 q 632 1085 632 1113 q 604 1057 632 1057 q 576 1085 576 1057 q 604 1113 576 1113 z "},"Ý":{"ha":651,"x_min":107,"x_max":683,"o":"m 321 271 l 288 0 l 260 0 l 293 271 l 303 340 l 107 885 l 142 885 l 151 849 l 318 385 l 325 385 l 628 849 l 647 885 l 683 885 l 331 343 l 321 271 m 565 1142 l 563 1135 q 321 1006 469 1082 l 314 1010 l 304 1031 q 549 1161 431 1092 l 556 1158 l 565 1142 z "},"Þ":{"ha":649,"x_min":111,"x_max":596,"o":"m 386 717 q 542 663 488 717 q 596 508 596 608 q 513 263 596 351 q 276 175 429 175 l 161 175 l 139 0 l 111 0 l 146 271 l 222 885 l 250 885 l 229 714 l 386 717 m 321 203 q 502 295 436 214 q 568 503 568 376 q 523 637 568 589 q 393 689 478 685 l 225 688 l 174 271 l 165 203 l 321 203 z "},"ß":{"ha":706,"x_min":83,"x_max":624,"o":"m 410 685 q 621 626 508 685 l 624 614 l 390 372 q 615 194 615 338 q 586 92 615 138 q 506 22 557 47 q 396 -4 456 -4 q 306 9 351 -4 q 229 46 261 22 l 238 72 l 243 74 q 316 35 272 49 q 399 22 360 22 q 494 45 451 22 q 563 106 538 68 q 588 190 588 144 q 349 347 588 322 l 346 364 l 586 611 q 406 658 497 658 q 246 605 311 658 q 169 463 181 551 l 139 210 l 111 0 l 83 0 l 110 203 l 142 463 q 229 624 156 563 q 410 685 303 685 z "},"à":{"ha":657,"x_min":8,"x_max":561,"o":"m 529 0 l 521 49 l 479 224 l 154 224 l 63 49 l 40 0 l 8 0 l 365 682 l 396 682 l 561 0 l 529 0 m 378 640 l 374 640 l 168 250 l 472 250 l 378 640 m 299 983 q 501 793 406 874 l 486 775 l 479 774 q 279 961 375 865 l 278 968 l 292 982 l 299 983 z "},"á":{"ha":657,"x_min":8,"x_max":561,"o":"m 529 0 l 521 49 l 479 224 l 154 224 l 63 49 l 40 0 l 8 0 l 365 682 l 396 682 l 561 0 l 529 0 m 378 640 l 374 640 l 168 250 l 472 250 l 378 640 m 519 968 l 518 961 q 318 774 422 865 l 311 775 l 296 793 q 499 983 392 874 l 506 982 l 519 968 z "},"â":{"ha":657,"x_min":8,"x_max":561,"o":"m 529 0 l 521 49 l 479 224 l 154 224 l 63 49 l 40 0 l 8 0 l 365 682 l 396 682 l 561 0 l 529 0 m 378 640 l 374 640 l 168 250 l 472 250 l 378 640 m 249 779 q 410 954 300 829 l 435 954 q 554 779 499 851 l 539 763 l 532 763 q 419 925 478 832 q 267 763 338 831 l 260 763 l 249 779 z "},"ã":{"ha":657,"x_min":8,"x_max":597,"o":"m 529 0 l 521 49 l 479 224 l 154 224 l 63 49 l 40 0 l 8 0 l 365 682 l 396 682 l 561 0 l 529 0 m 378 640 l 374 640 l 168 250 l 472 250 l 378 640 m 597 910 l 525 844 l 517 842 q 404 869 489 844 q 300 894 315 894 q 258 864 289 894 l 229 838 l 224 838 l 211 853 l 211 858 l 283 924 l 292 926 q 404 899 319 924 q 508 874 493 874 q 550 904 519 874 l 579 931 l 585 931 l 597 915 l 597 910 z "},"ä":{"ha":657,"x_min":8,"x_max":561,"o":"m 529 0 l 521 49 l 479 224 l 154 224 l 63 49 l 40 0 l 8 0 l 365 682 l 396 682 l 561 0 l 529 0 m 378 640 l 374 640 l 168 250 l 472 250 l 378 640 m 300 910 q 328 882 328 910 q 300 854 328 854 q 272 882 272 854 q 300 910 272 910 m 508 910 q 536 882 536 910 q 508 854 536 854 q 481 882 481 854 q 508 910 481 910 z "},"å":{"ha":657,"x_min":8,"x_max":561,"o":"m 529 0 l 521 49 l 479 224 l 154 224 l 63 49 l 40 0 l 8 0 l 365 682 l 396 682 l 561 0 l 529 0 m 378 640 l 374 640 l 168 250 l 472 250 l 378 640 m 403 982 q 475 953 449 982 q 501 885 501 924 q 472 815 501 842 q 403 789 442 789 q 335 816 364 789 q 306 886 306 843 q 333 955 306 928 q 403 982 360 982 m 403 954 q 352 935 371 954 q 333 886 333 917 q 353 835 333 854 q 403 817 374 817 q 453 835 432 817 q 474 885 474 853 q 455 934 474 914 q 403 954 436 954 z "},"æ":{"ha":911,"x_min":-29,"x_max":822,"o":"m 815 0 l 481 0 l 483 49 l 472 307 l 185 258 l 36 49 l 7 0 l -29 0 l 454 682 l 788 682 l 790 676 l 782 654 l 486 656 l 499 338 l 757 379 l 760 376 l 754 353 l 499 313 l 510 26 l 821 26 l 822 22 l 815 0 m 457 639 l 453 639 l 206 290 l 471 333 l 457 639 z "},"ç":{"ha":622,"x_min":81,"x_max":601,"o":"m 417 686 q 601 625 525 686 l 590 600 l 582 600 q 415 660 514 660 q 190 558 269 660 q 110 275 110 457 q 164 87 110 153 q 321 21 218 21 q 528 92 428 21 l 535 89 l 529 64 q 336 -6 435 -1 l 311 -82 l 354 -110 q 400 -179 400 -139 q 376 -233 400 -212 q 317 -253 351 -253 q 235 -207 265 -253 l 243 -182 l 249 -182 q 278 -215 263 -204 q 317 -225 293 -225 q 357 -213 342 -225 q 372 -179 372 -201 q 365 -155 372 -164 q 339 -133 357 -146 l 279 -94 l 308 -6 q 139 72 197 0 q 81 272 81 143 q 168 576 81 467 q 417 686 256 686 z "},"è":{"ha":551,"x_min":108,"x_max":538,"o":"m 182 367 l 439 367 l 442 361 l 435 339 l 179 339 l 163 210 l 139 26 l 454 26 l 458 22 l 450 0 l 108 0 l 135 208 l 194 682 l 533 682 l 538 676 l 529 654 l 219 656 l 182 367 m 282 983 q 485 793 389 874 l 469 775 l 463 774 q 263 961 358 865 l 261 968 l 275 982 l 282 983 z "},"é":{"ha":551,"x_min":108,"x_max":538,"o":"m 182 367 l 439 367 l 442 361 l 435 339 l 179 339 l 163 210 l 139 26 l 454 26 l 458 22 l 450 0 l 108 0 l 135 208 l 194 682 l 533 682 l 538 676 l 529 654 l 219 656 l 182 367 m 503 968 l 501 961 q 301 774 406 865 l 294 775 l 279 793 q 482 983 375 874 l 489 982 l 503 968 z "},"ê":{"ha":551,"x_min":108,"x_max":538,"o":"m 182 367 l 439 367 l 442 361 l 435 339 l 179 339 l 163 210 l 139 26 l 454 26 l 458 22 l 450 0 l 108 0 l 135 208 l 194 682 l 533 682 l 538 676 l 529 654 l 219 656 l 182 367 m 232 779 q 393 954 283 829 l 418 954 q 538 779 482 851 l 522 763 l 515 763 q 403 925 461 832 q 250 763 321 831 l 243 763 l 232 779 z "},"ë":{"ha":551,"x_min":108,"x_max":538,"o":"m 182 367 l 439 367 l 442 361 l 435 339 l 179 339 l 163 210 l 139 26 l 454 26 l 458 22 l 450 0 l 108 0 l 135 208 l 194 682 l 533 682 l 538 676 l 529 654 l 219 656 l 182 367 m 283 910 q 311 882 311 910 q 283 854 311 854 q 256 882 256 854 q 283 910 256 910 m 492 910 q 519 882 519 910 q 492 854 519 854 q 464 882 464 854 q 492 910 464 910 z "},"ì":{"ha":324,"x_min":108,"x_max":332,"o":"m 136 0 l 108 0 l 136 208 l 194 682 l 222 682 l 164 210 l 136 0 m 129 983 q 332 793 236 874 l 317 775 l 310 774 q 110 961 206 865 l 108 968 l 122 982 l 129 983 z "},"í":{"ha":324,"x_min":108,"x_max":350,"o":"m 136 0 l 108 0 l 136 208 l 194 682 l 222 682 l 164 210 l 136 0 m 350 968 l 349 961 q 149 774 253 865 l 142 775 l 126 793 q 329 983 222 874 l 336 982 l 350 968 z "},"î":{"ha":324,"x_min":79,"x_max":385,"o":"m 136 0 l 108 0 l 136 208 l 194 682 l 222 682 l 164 210 l 136 0 m 79 779 q 240 954 131 829 l 265 954 q 385 779 329 851 l 369 763 l 363 763 q 250 925 308 832 q 97 763 168 831 l 90 763 l 79 779 z "},"ï":{"ha":324,"x_min":108,"x_max":333,"o":"m 136 0 l 108 0 l 136 208 l 194 682 l 222 682 l 164 210 l 136 0 m 164 910 q 192 882 192 910 q 164 854 192 854 q 136 882 136 854 q 164 910 136 910 m 306 910 q 333 882 333 910 q 306 854 333 854 q 278 882 278 854 q 306 910 278 910 z "},"ð":{"ha":754,"x_min":13,"x_max":683,"o":"m 414 688 q 613 616 543 688 q 683 415 683 544 q 588 107 683 219 q 319 -6 492 -6 q 110 0 204 -6 l 136 208 l 151 325 l 15 325 l 13 329 l 17 353 l 154 353 l 196 682 l 414 688 m 324 21 q 567 126 479 21 q 654 413 654 231 q 592 596 654 532 q 413 660 529 660 l 221 654 l 182 353 l 374 353 l 376 349 l 372 325 l 178 325 l 164 210 l 140 26 q 324 21 232 21 z "},"ñ":{"ha":786,"x_min":108,"x_max":686,"o":"m 597 0 l 569 0 l 219 626 l 217 626 l 163 214 l 136 0 l 108 0 l 135 203 l 196 682 l 224 682 l 574 56 l 579 56 l 658 681 l 686 683 l 624 190 l 597 0 m 654 910 l 582 844 l 574 842 q 461 869 546 844 q 357 894 372 894 q 315 864 346 894 l 286 838 l 281 838 l 268 853 l 268 858 l 340 924 l 349 926 q 461 899 376 924 q 565 874 550 874 q 607 904 576 874 l 636 931 l 642 931 l 654 915 l 654 910 z "},"ò":{"ha":740,"x_min":79,"x_max":669,"o":"m 421 688 q 605 615 540 688 q 669 413 669 543 q 579 106 669 217 q 328 -6 489 -6 q 144 68 208 -6 q 79 275 79 142 q 169 578 79 469 q 421 688 258 688 m 418 660 q 190 560 271 660 q 110 278 110 460 q 165 88 110 154 q 326 22 221 22 q 557 124 474 22 q 640 408 640 226 q 583 595 640 531 q 418 660 526 660 m 332 983 q 535 793 439 874 l 519 775 l 513 774 q 313 961 408 865 l 311 968 l 325 982 l 332 983 z "},"ó":{"ha":740,"x_min":79,"x_max":669,"o":"m 421 688 q 605 615 540 688 q 669 413 669 543 q 579 106 669 217 q 328 -6 489 -6 q 144 68 208 -6 q 79 275 79 142 q 169 578 79 469 q 421 688 258 688 m 418 660 q 190 560 271 660 q 110 278 110 460 q 165 88 110 154 q 326 22 221 22 q 557 124 474 22 q 640 408 640 226 q 583 595 640 531 q 418 660 526 660 m 553 968 l 551 961 q 351 774 456 865 l 344 775 l 329 793 q 532 983 425 874 l 539 982 l 553 968 z "},"ô":{"ha":740,"x_min":79,"x_max":669,"o":"m 421 688 q 605 615 540 688 q 669 413 669 543 q 579 106 669 217 q 328 -6 489 -6 q 144 68 208 -6 q 79 275 79 142 q 169 578 79 469 q 421 688 258 688 m 418 660 q 190 560 271 660 q 110 278 110 460 q 165 88 110 154 q 326 22 221 22 q 557 124 474 22 q 640 408 640 226 q 583 595 640 531 q 418 660 526 660 m 282 779 q 443 954 333 829 l 468 954 q 588 779 532 851 l 572 763 l 565 763 q 453 925 511 832 q 300 763 371 831 l 293 763 l 282 779 z "},"õ":{"ha":740,"x_min":79,"x_max":669,"o":"m 421 688 q 605 615 540 688 q 669 413 669 543 q 579 106 669 217 q 328 -6 489 -6 q 144 68 208 -6 q 79 275 79 142 q 169 578 79 469 q 421 688 258 688 m 418 660 q 190 560 271 660 q 110 278 110 460 q 165 88 110 154 q 326 22 221 22 q 557 124 474 22 q 640 408 640 226 q 583 595 640 531 q 418 660 526 660 m 631 910 l 558 844 l 550 842 q 438 869 522 844 q 333 894 349 894 q 292 864 322 894 l 263 838 l 257 838 l 244 853 l 244 858 l 317 924 l 325 926 q 438 899 353 924 q 542 874 526 874 q 583 904 553 874 l 613 931 l 618 931 l 631 915 l 631 910 z "},"ö":{"ha":740,"x_min":79,"x_max":669,"o":"m 421 688 q 605 615 540 688 q 669 413 669 543 q 579 106 669 217 q 328 -6 489 -6 q 144 68 208 -6 q 79 275 79 142 q 169 578 79 469 q 421 688 258 688 m 418 660 q 190 560 271 660 q 110 278 110 460 q 165 88 110 154 q 326 22 221 22 q 557 124 474 22 q 640 408 640 226 q 583 595 640 531 q 418 660 526 660 m 333 910 q 361 882 361 910 q 333 854 361 854 q 306 882 306 854 q 333 910 306 910 m 542 910 q 569 882 569 910 q 542 854 569 854 q 514 882 514 854 q 542 910 514 910 z "},"÷":{"ha":665,"x_min":60,"x_max":618,"o":"m 615 361 l 64 361 l 60 365 l 63 389 l 614 389 l 618 385 l 615 361 m 310 150 q 338 122 338 150 q 310 94 338 94 q 282 122 282 94 q 310 150 282 150 m 371 654 q 399 626 399 654 q 371 599 399 599 q 343 626 343 599 q 371 654 343 654 z "},"ø":{"ha":740,"x_min":79,"x_max":669,"o":"m 557 654 q 669 413 669 589 q 579 106 669 217 q 328 -6 489 -6 q 208 19 258 -6 l 136 -111 l 114 -103 l 111 -97 l 183 33 q 79 275 79 104 q 169 578 79 469 q 421 688 258 688 q 532 667 483 688 l 593 778 l 615 771 l 618 764 l 557 654 m 110 278 q 197 58 110 121 l 518 642 q 418 660 476 660 q 190 560 271 660 q 110 278 110 460 m 326 22 q 557 124 474 22 q 640 408 640 226 q 543 629 640 568 l 221 44 q 326 22 265 22 z "},"ù":{"ha":725,"x_min":110,"x_max":650,"o":"m 594 244 q 512 61 582 126 q 325 -4 442 -4 q 165 47 221 -4 q 110 193 110 97 q 114 244 110 218 l 129 344 l 171 682 l 200 682 l 142 246 q 139 199 139 229 q 187 67 139 113 q 326 22 235 22 q 491 80 429 22 q 567 246 553 138 l 622 682 l 650 682 l 606 333 l 594 244 m 325 983 q 528 793 432 874 l 513 775 l 506 774 q 306 961 401 865 l 304 968 l 318 982 l 325 983 z "},"ú":{"ha":725,"x_min":110,"x_max":650,"o":"m 594 244 q 512 61 582 126 q 325 -4 442 -4 q 165 47 221 -4 q 110 193 110 97 q 114 244 110 218 l 129 344 l 171 682 l 200 682 l 142 246 q 139 199 139 229 q 187 67 139 113 q 326 22 235 22 q 491 80 429 22 q 567 246 553 138 l 622 682 l 650 682 l 606 333 l 594 244 m 546 968 l 544 961 q 344 774 449 865 l 338 775 l 322 793 q 525 983 418 874 l 532 982 l 546 968 z "},"û":{"ha":725,"x_min":110,"x_max":650,"o":"m 594 244 q 512 61 582 126 q 325 -4 442 -4 q 165 47 221 -4 q 110 193 110 97 q 114 244 110 218 l 129 344 l 171 682 l 200 682 l 142 246 q 139 199 139 229 q 187 67 139 113 q 326 22 235 22 q 491 80 429 22 q 567 246 553 138 l 622 682 l 650 682 l 606 333 l 594 244 m 275 779 q 436 954 326 829 l 461 954 q 581 779 525 851 l 565 763 l 558 763 q 446 925 504 832 q 293 763 364 831 l 286 763 l 275 779 z "},"ü":{"ha":725,"x_min":110,"x_max":650,"o":"m 594 244 q 512 61 582 126 q 325 -4 442 -4 q 165 47 221 -4 q 110 193 110 97 q 114 244 110 218 l 129 344 l 171 682 l 200 682 l 142 246 q 139 199 139 229 q 187 67 139 113 q 326 22 235 22 q 491 80 429 22 q 567 246 553 138 l 622 682 l 650 682 l 606 333 l 594 244 m 326 910 q 354 882 354 910 q 326 854 354 854 q 299 882 299 854 q 326 910 299 910 m 535 910 q 563 882 563 910 q 535 854 563 854 q 507 882 507 854 q 535 910 507 910 z "},"ý":{"ha":594,"x_min":101,"x_max":585,"o":"m 289 207 l 261 0 l 233 0 l 261 207 l 268 263 l 101 682 l 136 682 l 144 653 l 283 301 l 289 301 l 533 653 l 550 682 l 585 682 l 294 257 l 289 207 m 482 968 l 481 961 q 281 774 385 865 l 274 775 l 258 793 q 461 983 354 874 l 468 982 l 482 968 z "},"þ":{"ha":592,"x_min":108,"x_max":518,"o":"m 339 553 q 471 509 424 553 q 518 388 518 465 q 447 203 518 274 q 254 133 376 133 l 154 133 l 136 0 l 108 0 l 136 208 l 196 682 l 224 682 l 207 551 l 339 553 m 289 160 q 435 229 382 169 q 488 385 488 289 q 343 528 488 519 l 204 526 l 164 210 l 157 160 l 289 160 z "},"ÿ":{"ha":594,"x_min":101,"x_max":585,"o":"m 289 207 l 261 0 l 233 0 l 261 207 l 268 263 l 101 682 l 136 682 l 144 653 l 283 301 l 289 301 l 533 653 l 550 682 l 585 682 l 294 257 l 289 207 m 263 910 q 290 882 290 910 q 263 854 290 854 q 235 882 235 854 q 263 910 235 910 m 471 910 q 499 882 499 910 q 471 854 499 854 q 443 882 443 854 q 471 910 443 910 z "},"Ā":{"ha":728,"x_min":-11,"x_max":672,"o":"m 621 0 l 613 60 l 561 296 l 168 296 l 50 60 l 22 0 l -11 0 l 432 885 l 461 885 l 653 0 l 621 0 m 442 838 l 438 838 l 182 324 l 554 324 l 442 838 m 669 1072 l 271 1072 l 267 1076 l 269 1100 l 668 1100 l 672 1096 l 669 1072 z "},"ā":{"ha":657,"x_min":8,"x_max":608,"o":"m 529 0 l 521 49 l 479 224 l 154 224 l 63 49 l 40 0 l 8 0 l 365 682 l 396 682 l 561 0 l 529 0 m 378 640 l 374 640 l 168 250 l 472 250 l 378 640 m 606 869 l 207 869 l 203 874 l 206 897 l 604 897 l 608 893 l 606 869 z "},"Ă":{"ha":728,"x_min":-11,"x_max":653,"o":"m 621 0 l 613 60 l 561 296 l 168 296 l 50 60 l 22 0 l -11 0 l 432 885 l 461 885 l 653 0 l 621 0 m 442 838 l 438 838 l 182 324 l 554 324 l 442 838 m 606 1114 q 454 1011 561 1011 q 369 1038 403 1011 q 326 1114 335 1064 l 346 1129 l 353 1129 q 456 1039 364 1039 q 582 1129 547 1039 l 589 1129 l 606 1114 z "},"ă":{"ha":657,"x_min":8,"x_max":561,"o":"m 529 0 l 521 49 l 479 224 l 154 224 l 63 49 l 40 0 l 8 0 l 365 682 l 396 682 l 561 0 l 529 0 m 378 640 l 374 640 l 168 250 l 472 250 l 378 640 m 543 925 q 385 779 499 779 q 297 815 326 779 q 263 925 268 850 l 283 943 l 290 943 q 315 840 292 874 q 389 807 339 807 q 519 943 485 807 l 526 943 l 543 925 z "},"Ą":{"ha":728,"x_min":-11,"x_max":654,"o":"m 654 -193 q 542 -272 600 -272 q 474 -204 474 -272 q 483 -162 474 -183 q 524 -103 492 -142 q 621 0 556 -64 l 613 60 l 561 296 l 168 296 l 50 60 l 22 0 l -11 0 l 432 885 l 461 885 l 653 0 q 534 -129 565 -87 q 503 -201 503 -171 q 546 -244 503 -244 q 642 -171 593 -244 l 644 -171 l 654 -193 m 442 838 l 438 838 l 182 324 l 554 324 l 442 838 z "},"ą":{"ha":657,"x_min":8,"x_max":564,"o":"m 564 -193 q 449 -272 507 -272 q 379 -204 379 -272 q 406 -133 379 -174 q 529 0 433 -93 l 521 49 l 479 224 l 154 224 l 63 49 l 40 0 l 8 0 l 365 682 l 396 682 l 561 0 q 440 -130 472 -89 q 408 -201 408 -171 q 453 -244 408 -244 q 551 -171 500 -244 l 554 -171 l 564 -193 m 378 640 l 374 640 l 168 250 l 472 250 l 378 640 z "},"Ć":{"ha":690,"x_min":76,"x_max":708,"o":"m 486 890 q 607 869 549 890 q 708 808 665 847 l 696 785 l 686 785 q 483 863 604 863 q 278 801 364 863 q 149 624 193 739 q 104 351 104 510 q 170 106 104 192 q 363 21 236 21 q 613 114 493 21 l 622 111 l 617 86 q 361 -7 489 -7 q 149 85 222 -7 q 76 349 76 178 q 125 638 76 517 q 265 825 174 760 q 486 890 357 890 m 635 1142 l 632 1135 q 390 1006 539 1082 l 383 1010 l 374 1031 q 618 1161 500 1092 l 625 1158 l 635 1142 z "},"ć":{"ha":622,"x_min":81,"x_max":601,"o":"m 417 686 q 601 625 525 686 l 590 600 l 582 600 q 415 660 514 660 q 190 558 269 660 q 110 275 110 457 q 164 87 110 153 q 321 21 218 21 q 528 92 428 21 l 535 89 l 529 64 q 322 -6 428 -6 q 143 67 206 -6 q 81 272 81 139 q 168 576 81 467 q 417 686 256 686 m 515 968 l 514 961 q 314 774 418 865 l 307 775 l 292 793 q 494 983 388 874 l 501 982 l 515 968 z "},"Ĉ":{"ha":690,"x_min":76,"x_max":708,"o":"m 486 890 q 607 869 549 890 q 708 808 665 847 l 696 785 l 686 785 q 483 863 604 863 q 278 801 364 863 q 149 624 193 739 q 104 351 104 510 q 170 106 104 192 q 363 21 236 21 q 613 114 493 21 l 622 111 l 617 86 q 361 -7 489 -7 q 149 85 222 -7 q 76 349 76 178 q 125 638 76 517 q 265 825 174 760 q 486 890 357 890 m 342 1042 q 489 1147 403 1081 l 511 1147 q 638 1042 594 1075 l 626 1022 l 619 1022 q 499 1119 564 1063 q 356 1022 433 1071 l 349 1022 l 342 1042 z "},"ĉ":{"ha":622,"x_min":81,"x_max":601,"o":"m 417 686 q 601 625 525 686 l 590 600 l 582 600 q 415 660 514 660 q 190 558 269 660 q 110 275 110 457 q 164 87 110 153 q 321 21 218 21 q 528 92 428 21 l 535 89 l 529 64 q 322 -6 428 -6 q 143 67 206 -6 q 81 272 81 139 q 168 576 81 467 q 417 686 256 686 m 244 779 q 406 954 296 829 l 431 954 q 550 779 494 851 l 535 763 l 528 763 q 415 925 474 832 q 263 763 333 831 l 256 763 l 244 779 z "},"Ċ":{"ha":690,"x_min":76,"x_max":708,"o":"m 486 890 q 607 869 549 890 q 708 808 665 847 l 696 785 l 686 785 q 483 863 604 863 q 278 801 364 863 q 149 624 193 739 q 104 351 104 510 q 170 106 104 192 q 363 21 236 21 q 613 114 493 21 l 622 111 l 617 86 q 361 -7 489 -7 q 149 85 222 -7 q 76 349 76 178 q 125 638 76 517 q 265 825 174 760 q 486 890 357 890 m 492 1132 q 519 1104 519 1132 q 492 1076 519 1076 q 464 1104 464 1076 q 492 1132 464 1132 z "},"ċ":{"ha":622,"x_min":81,"x_max":601,"o":"m 417 686 q 601 625 525 686 l 590 600 l 582 600 q 415 660 514 660 q 190 558 269 660 q 110 275 110 457 q 164 87 110 153 q 321 21 218 21 q 528 92 428 21 l 535 89 l 529 64 q 322 -6 428 -6 q 143 67 206 -6 q 81 272 81 139 q 168 576 81 467 q 417 686 256 686 m 401 929 q 429 901 429 929 q 401 874 429 874 q 374 901 374 874 q 401 929 374 929 z "},"Č":{"ha":690,"x_min":76,"x_max":708,"o":"m 486 890 q 607 869 549 890 q 708 808 665 847 l 696 785 l 686 785 q 483 863 604 863 q 278 801 364 863 q 149 624 193 739 q 104 351 104 510 q 170 106 104 192 q 363 21 236 21 q 613 114 493 21 l 622 111 l 617 86 q 361 -7 489 -7 q 149 85 222 -7 q 76 349 76 178 q 125 638 76 517 q 265 825 174 760 q 486 890 357 890 m 636 1118 q 490 1013 585 1085 l 468 1013 q 340 1118 396 1075 l 351 1138 l 358 1138 q 479 1040 414 1097 q 622 1138 544 1089 l 629 1138 l 636 1118 z "},"č":{"ha":622,"x_min":81,"x_max":601,"o":"m 417 686 q 601 625 525 686 l 590 600 l 582 600 q 415 660 514 660 q 190 558 269 660 q 110 275 110 457 q 164 87 110 153 q 321 21 218 21 q 528 92 428 21 l 535 89 l 529 64 q 322 -6 428 -6 q 143 67 206 -6 q 81 272 81 139 q 168 576 81 467 q 417 686 256 686 m 551 951 q 392 776 493 894 l 367 776 q 246 951 299 885 l 261 968 l 268 968 q 381 806 322 899 q 533 968 463 900 l 540 968 l 551 951 z "},"Ď":{"ha":846,"x_min":111,"x_max":804,"o":"m 486 892 q 722 802 640 892 q 804 546 804 713 q 752 253 804 378 q 600 61 700 129 q 361 -7 500 -7 q 111 0 257 -7 l 146 271 l 222 885 l 486 892 m 365 21 q 585 85 493 21 q 726 266 678 149 q 775 542 775 383 q 700 781 775 697 q 483 864 625 864 q 247 857 375 864 l 174 271 l 142 26 q 365 21 375 21 m 635 1118 q 489 1013 583 1085 l 467 1013 q 339 1118 394 1075 l 350 1138 l 357 1138 q 478 1040 413 1097 q 621 1138 543 1089 l 628 1138 l 635 1118 z "},"ď":{"ha":754,"x_min":110,"x_max":683,"o":"m 414 688 q 613 616 543 688 q 683 415 683 544 q 588 107 683 219 q 319 -6 492 -6 q 110 0 204 -6 l 136 208 l 196 682 l 414 688 m 324 21 q 567 126 479 21 q 654 413 654 231 q 592 596 654 532 q 413 660 529 660 l 221 654 l 164 210 l 140 26 q 324 21 232 21 m 581 951 q 421 776 522 894 l 396 776 q 275 951 328 885 l 290 968 l 297 968 q 410 806 351 899 q 563 968 492 900 l 569 968 l 581 951 z "},"Đ":{"ha":846,"x_min":111,"x_max":804,"o":"m 486 892 q 722 802 640 892 q 804 546 804 713 q 752 253 804 378 q 600 61 700 129 q 361 -7 500 -7 q 111 0 257 -7 l 146 271 l 222 885 l 486 892 m 365 21 q 585 85 493 21 q 726 266 678 149 q 775 542 775 383 q 700 781 775 697 q 483 864 625 864 q 247 857 375 864 l 174 271 l 142 26 q 365 21 375 21 m 690 1072 l 292 1072 l 288 1076 l 290 1100 l 689 1100 l 693 1096 l 690 1072 z "},"đ":{"ha":754,"x_min":110,"x_max":683,"o":"m 414 688 q 613 616 543 688 q 683 415 683 544 q 588 107 683 219 q 319 -6 492 -6 q 110 0 204 -6 l 136 208 l 196 682 l 414 688 m 324 21 q 567 126 479 21 q 654 413 654 231 q 592 596 654 532 q 413 660 529 660 l 221 654 l 164 210 l 140 26 q 324 21 232 21 m 631 869 l 232 869 l 228 874 l 231 897 l 629 897 l 633 893 l 631 869 z "},"Ē":{"ha":600,"x_min":111,"x_max":661,"o":"m 199 472 l 508 472 l 513 467 l 504 444 l 196 444 l 174 271 l 143 28 l 522 28 l 526 22 l 518 0 l 111 0 l 146 271 l 222 885 l 626 885 l 629 879 l 621 857 l 247 857 l 199 472 m 658 1072 l 260 1072 l 256 1076 l 258 1100 l 657 1100 l 661 1096 l 658 1072 z "},"ē":{"ha":551,"x_min":108,"x_max":592,"o":"m 182 367 l 439 367 l 442 361 l 435 339 l 179 339 l 163 210 l 139 26 l 454 26 l 458 22 l 450 0 l 108 0 l 135 208 l 194 682 l 533 682 l 538 676 l 529 654 l 219 656 l 182 367 m 589 869 l 190 869 l 186 874 l 189 897 l 588 897 l 592 893 l 589 869 z "},"Ĕ":{"ha":600,"x_min":111,"x_max":629,"o":"m 199 472 l 508 472 l 513 467 l 504 444 l 196 444 l 174 271 l 143 28 l 522 28 l 526 22 l 518 0 l 111 0 l 146 271 l 222 885 l 626 885 l 629 879 l 621 857 l 247 857 l 199 472 m 594 1114 q 443 1011 550 1011 q 358 1038 392 1011 q 315 1114 324 1064 l 335 1129 l 342 1129 q 444 1039 353 1039 q 571 1129 536 1039 l 578 1129 l 594 1114 z "},"ĕ":{"ha":551,"x_min":108,"x_max":538,"o":"m 182 367 l 439 367 l 442 361 l 435 339 l 179 339 l 163 210 l 139 26 l 454 26 l 458 22 l 450 0 l 108 0 l 135 208 l 194 682 l 533 682 l 538 676 l 529 654 l 219 656 l 182 367 m 526 925 q 368 779 482 779 q 281 815 310 779 q 246 925 251 850 l 267 943 l 274 943 q 299 840 275 874 q 372 807 322 807 q 503 943 468 807 l 510 943 l 526 925 z "},"Ė":{"ha":600,"x_min":111,"x_max":629,"o":"m 199 472 l 508 472 l 513 467 l 504 444 l 196 444 l 174 271 l 143 28 l 522 28 l 526 22 l 518 0 l 111 0 l 146 271 l 222 885 l 626 885 l 629 879 l 621 857 l 247 857 l 199 472 m 458 1132 q 486 1104 486 1132 q 458 1076 486 1076 q 431 1104 431 1076 q 458 1132 431 1132 z "},"ė":{"ha":551,"x_min":108,"x_max":538,"o":"m 182 367 l 439 367 l 442 361 l 435 339 l 179 339 l 163 210 l 139 26 l 454 26 l 458 22 l 450 0 l 108 0 l 135 208 l 194 682 l 533 682 l 538 676 l 529 654 l 219 656 l 182 367 m 389 929 q 417 901 417 929 q 389 874 417 874 q 361 901 361 874 q 389 929 361 929 z "},"Ę":{"ha":600,"x_min":111,"x_max":629,"o":"m 199 472 l 508 472 l 513 467 l 504 444 l 196 444 l 174 271 l 143 28 l 522 28 l 526 22 l 518 0 l 425 0 l 351 -108 q 324 -182 324 -149 q 340 -228 324 -211 q 386 -246 357 -246 q 499 -172 444 -246 l 501 -172 l 517 -194 q 386 -274 456 -274 q 321 -249 346 -274 q 296 -185 296 -225 q 325 -100 296 -143 l 392 0 l 111 0 l 146 271 l 222 885 l 626 885 l 629 879 l 621 857 l 247 857 l 199 472 z "},"ę":{"ha":551,"x_min":108,"x_max":538,"o":"m 182 367 l 439 367 l 442 361 l 435 339 l 179 339 l 163 210 l 139 26 l 340 26 l 342 28 l 375 28 l 374 26 l 454 26 l 458 22 l 450 0 l 357 0 l 283 -108 q 256 -182 256 -149 q 272 -228 256 -211 q 318 -246 289 -246 q 431 -172 376 -246 l 433 -172 l 449 -194 q 318 -274 388 -274 q 253 -249 278 -274 q 228 -185 228 -225 q 257 -100 228 -143 l 324 0 l 108 0 l 135 208 l 194 682 l 533 682 l 538 676 l 529 654 l 219 656 l 182 367 z "},"Ě":{"ha":600,"x_min":111,"x_max":629,"o":"m 199 472 l 508 472 l 513 467 l 504 444 l 196 444 l 174 271 l 143 28 l 522 28 l 526 22 l 518 0 l 111 0 l 146 271 l 222 885 l 626 885 l 629 879 l 621 857 l 247 857 l 199 472 m 603 1118 q 457 1013 551 1085 l 435 1013 q 307 1118 363 1075 l 318 1138 l 325 1138 q 446 1040 381 1097 q 589 1138 511 1089 l 596 1138 l 603 1118 z "},"ě":{"ha":551,"x_min":108,"x_max":539,"o":"m 182 367 l 439 367 l 442 361 l 435 339 l 179 339 l 163 210 l 139 26 l 454 26 l 458 22 l 450 0 l 108 0 l 135 208 l 194 682 l 533 682 l 538 676 l 529 654 l 219 656 l 182 367 m 539 951 q 379 776 481 894 l 354 776 q 233 951 286 885 l 249 968 l 256 968 q 368 806 310 899 q 521 968 450 900 l 528 968 l 539 951 z "},"Ĝ":{"ha":799,"x_min":76,"x_max":753,"o":"m 525 890 q 753 815 643 890 l 742 790 l 732 790 q 521 863 626 863 q 297 801 390 863 q 153 625 203 740 q 104 350 104 510 q 172 106 104 192 q 369 21 240 21 q 484 30 431 21 q 621 63 538 39 l 642 219 l 654 328 l 682 331 l 669 219 l 646 42 q 496 4 553 14 q 369 -6 439 -6 q 151 86 226 -6 q 76 347 76 178 q 130 639 76 517 q 284 826 183 761 q 525 890 385 890 m 354 1042 q 501 1147 415 1081 l 524 1147 q 650 1042 607 1075 l 639 1022 l 632 1022 q 511 1119 576 1063 q 368 1022 446 1071 l 361 1022 l 354 1042 z "},"ĝ":{"ha":713,"x_min":79,"x_max":639,"o":"m 447 686 q 639 629 544 686 l 628 604 l 621 604 q 447 660 529 660 q 197 559 286 660 q 108 275 108 458 q 165 87 108 153 q 328 21 222 21 q 532 53 415 21 l 546 169 l 558 254 l 586 257 l 574 171 l 557 32 q 432 3 479 11 q 328 -4 385 -4 q 144 67 208 -4 q 79 271 79 139 q 175 578 79 469 q 447 686 271 686 m 283 779 q 444 954 335 829 l 469 954 q 589 779 533 851 l 574 763 l 567 763 q 454 925 513 832 q 301 763 372 831 l 294 763 l 283 779 z "},"Ğ":{"ha":799,"x_min":76,"x_max":753,"o":"m 525 890 q 753 815 643 890 l 742 790 l 732 790 q 521 863 626 863 q 297 801 390 863 q 153 625 203 740 q 104 350 104 510 q 172 106 104 192 q 369 21 240 21 q 484 30 431 21 q 621 63 538 39 l 642 219 l 654 328 l 682 331 l 669 219 l 646 42 q 496 4 553 14 q 369 -6 439 -6 q 151 86 226 -6 q 76 347 76 178 q 130 639 76 517 q 284 826 183 761 q 525 890 385 890 m 640 1114 q 489 1011 596 1011 q 403 1038 438 1011 q 361 1114 369 1064 l 381 1129 l 388 1129 q 490 1039 399 1039 q 617 1129 582 1039 l 624 1129 l 640 1114 z "},"ğ":{"ha":713,"x_min":79,"x_max":639,"o":"m 447 686 q 639 629 544 686 l 628 604 l 621 604 q 447 660 529 660 q 197 559 286 660 q 108 275 108 458 q 165 87 108 153 q 328 21 222 21 q 532 53 415 21 l 546 169 l 558 254 l 586 257 l 574 171 l 557 32 q 432 3 479 11 q 328 -4 385 -4 q 144 67 208 -4 q 79 271 79 139 q 175 578 79 469 q 447 686 271 686 m 578 925 q 419 779 533 779 q 332 815 361 779 q 297 925 303 850 l 318 943 l 325 943 q 350 840 326 874 q 424 807 374 807 q 554 943 519 807 l 561 943 l 578 925 z "},"Ġ":{"ha":799,"x_min":76,"x_max":753,"o":"m 525 890 q 753 815 643 890 l 742 790 l 732 790 q 521 863 626 863 q 297 801 390 863 q 153 625 203 740 q 104 350 104 510 q 172 106 104 192 q 369 21 240 21 q 484 30 431 21 q 621 63 538 39 l 642 219 l 654 328 l 682 331 l 669 219 l 646 42 q 496 4 553 14 q 369 -6 439 -6 q 151 86 226 -6 q 76 347 76 178 q 130 639 76 517 q 284 826 183 761 q 525 890 385 890 m 504 1132 q 532 1104 532 1132 q 504 1076 532 1076 q 476 1104 476 1076 q 504 1132 476 1132 z "},"ġ":{"ha":713,"x_min":79,"x_max":639,"o":"m 447 686 q 639 629 544 686 l 628 604 l 621 604 q 447 660 529 660 q 197 559 286 660 q 108 275 108 458 q 165 87 108 153 q 328 21 222 21 q 532 53 415 21 l 546 169 l 558 254 l 586 257 l 574 171 l 557 32 q 432 3 479 11 q 328 -4 385 -4 q 144 67 208 -4 q 79 271 79 139 q 175 578 79 469 q 447 686 271 686 m 440 929 q 468 901 468 929 q 440 874 468 874 q 413 901 413 874 q 440 929 413 929 z "},"Ģ":{"ha":799,"x_min":76,"x_max":753,"o":"m 525 890 q 753 815 643 890 l 742 790 l 732 790 q 521 863 626 863 q 297 801 390 863 q 153 625 203 740 q 104 350 104 510 q 172 106 104 192 q 369 21 240 21 q 484 30 431 21 q 621 63 538 39 l 642 219 l 654 328 l 682 331 l 669 219 l 646 42 q 496 4 553 14 q 369 -6 439 -6 q 151 86 226 -6 q 76 347 76 178 q 130 639 76 517 q 284 826 183 761 q 525 890 385 890 m 419 -99 q 472 -165 472 -122 q 381 -294 472 -224 l 367 -279 l 368 -275 q 443 -167 443 -219 q 401 -119 443 -139 l 401 -114 q 419 -99 408 -104 z "},"ģ":{"ha":713,"x_min":79,"x_max":639,"o":"m 447 686 q 639 629 544 686 l 628 604 l 621 604 q 447 660 529 660 q 197 559 286 660 q 108 275 108 458 q 165 87 108 153 q 328 21 222 21 q 532 53 415 21 l 546 169 l 558 254 l 586 257 l 574 171 l 557 32 q 432 3 479 11 q 328 -4 385 -4 q 144 67 208 -4 q 79 271 79 139 q 175 578 79 469 q 447 686 271 686 m 350 -99 q 403 -165 403 -122 q 311 -294 403 -224 l 297 -279 l 299 -275 q 374 -167 374 -219 q 332 -119 374 -139 l 332 -114 q 350 -99 339 -104 z "},"Ĥ":{"ha":889,"x_min":111,"x_max":813,"o":"m 736 271 l 701 0 l 674 0 l 708 271 l 729 436 l 194 436 l 174 271 l 139 0 l 111 0 l 146 271 l 222 885 l 250 885 l 197 464 l 732 464 l 785 885 l 813 885 l 736 271 m 392 1042 q 539 1147 453 1081 l 561 1147 q 688 1042 644 1075 l 676 1022 l 669 1022 q 549 1119 614 1063 q 406 1022 483 1071 l 399 1022 l 392 1042 z "},"ĥ":{"ha":786,"x_min":108,"x_max":686,"o":"m 628 210 l 600 0 l 572 0 l 600 208 l 615 333 l 179 333 l 164 210 l 136 0 l 108 0 l 136 208 l 194 682 l 222 682 l 182 360 l 618 360 l 658 682 l 686 682 l 628 210 m 306 779 q 467 954 357 829 l 492 954 q 611 779 556 851 l 596 763 l 589 763 q 476 925 535 832 q 324 763 394 831 l 317 763 l 306 779 z "},"Ħ":{"ha":918,"x_min":119,"x_max":892,"o":"m 799 672 l 749 271 l 714 0 l 686 0 l 721 271 l 742 436 l 207 436 l 186 271 l 151 0 l 124 0 l 158 271 l 208 672 l 124 672 l 119 676 l 122 700 l 211 700 l 235 885 l 263 885 l 239 700 l 774 700 l 797 885 l 825 885 l 801 700 l 888 700 l 892 696 l 889 672 l 799 672 m 236 672 l 210 464 l 744 464 l 771 672 l 236 672 z "},"ħ":{"ha":786,"x_min":94,"x_max":742,"o":"m 664 506 l 628 210 l 600 0 l 572 0 l 600 208 l 615 333 l 179 333 l 164 210 l 136 0 l 108 0 l 136 208 l 172 506 l 99 506 l 94 510 l 100 531 l 176 531 l 194 682 l 222 682 l 204 531 l 640 531 l 658 682 l 686 682 l 668 531 l 736 531 l 742 528 l 736 506 l 664 506 m 200 506 l 182 360 l 618 360 l 636 506 l 200 506 z "},"Ĩ":{"ha":326,"x_min":85,"x_max":429,"o":"m 139 0 l 111 0 l 146 271 l 222 885 l 250 885 l 174 271 l 139 0 m 429 1108 l 364 1043 l 356 1040 q 256 1068 333 1043 q 165 1093 181 1093 q 124 1060 154 1093 l 101 1038 l 97 1038 l 85 1053 l 85 1058 l 150 1124 l 158 1126 q 258 1099 181 1124 q 349 1074 333 1074 q 386 1103 360 1074 l 413 1129 l 417 1129 l 429 1114 l 429 1108 z "},"ĩ":{"ha":324,"x_min":61,"x_max":406,"o":"m 136 0 l 108 0 l 136 208 l 194 682 l 222 682 l 164 210 l 136 0 m 406 906 l 340 840 l 332 838 q 232 865 310 840 q 142 890 157 890 q 100 857 131 890 l 78 835 l 74 835 l 61 850 l 61 856 l 126 921 l 135 924 q 235 896 157 921 q 325 871 310 871 q 363 900 336 871 l 389 926 l 393 926 l 406 911 l 406 906 z "},"Ī":{"ha":326,"x_min":110,"x_max":404,"o":"m 139 0 l 111 0 l 146 271 l 222 885 l 250 885 l 174 271 l 139 0 m 401 1072 l 114 1072 l 110 1076 l 113 1100 l 400 1100 l 404 1096 l 401 1072 z "},"ī":{"ha":324,"x_min":86,"x_max":381,"o":"m 136 0 l 108 0 l 136 208 l 194 682 l 222 682 l 164 210 l 136 0 m 378 869 l 90 869 l 86 874 l 89 897 l 376 897 l 381 893 l 378 869 z "},"Ĭ":{"ha":326,"x_min":111,"x_max":396,"o":"m 139 0 l 111 0 l 146 271 l 222 885 l 250 885 l 174 271 l 139 0 m 396 1114 q 244 1011 351 1011 q 159 1038 193 1011 q 117 1114 125 1064 l 136 1129 l 143 1129 q 246 1039 154 1039 q 372 1129 338 1039 l 379 1129 l 396 1114 z "},"ĭ":{"ha":324,"x_min":93,"x_max":374,"o":"m 136 0 l 108 0 l 136 208 l 194 682 l 222 682 l 164 210 l 136 0 m 374 925 q 215 779 329 779 q 128 815 157 779 q 93 925 99 850 l 114 943 l 121 943 q 146 840 122 874 q 219 807 169 807 q 350 943 315 807 l 357 943 l 374 925 z "},"Į":{"ha":326,"x_min":-25,"x_max":250,"o":"m 174 271 l 139 0 q 31 -143 60 -101 q 3 -210 3 -185 q 12 -235 3 -225 q 38 -246 21 -246 q 107 -186 79 -246 l 110 -186 l 126 -207 q 35 -274 89 -274 q -10 -256 6 -274 q -25 -212 -25 -239 q 1 -140 -25 -181 q 113 8 28 -100 l 146 271 l 222 885 l 250 885 l 174 271 z "},"į":{"ha":324,"x_min":-28,"x_max":222,"o":"m 164 210 l 136 0 q 28 -143 57 -101 q 0 -210 0 -185 q 9 -235 0 -225 q 35 -246 18 -246 q 104 -186 76 -246 l 107 -186 l 124 -207 q 32 -274 86 -274 q -12 -256 3 -274 q -28 -212 -28 -239 q -1 -140 -28 -181 q 110 8 25 -100 l 136 208 l 194 682 l 222 682 l 164 210 z "},"İ":{"ha":326,"x_min":111,"x_max":288,"o":"m 139 0 l 111 0 l 146 271 l 222 885 l 250 885 l 174 271 l 139 0 m 260 1132 q 288 1104 288 1132 q 260 1076 288 1076 q 232 1104 232 1076 q 260 1132 232 1132 z "},"ı":{"ha":324,"x_min":108,"x_max":222,"o":"m 136 0 l 108 0 l 136 208 l 194 682 l 222 682 l 164 210 l 136 0 z "},"Ĳ":{"ha":688,"x_min":111,"x_max":604,"o":"m 139 0 l 111 0 l 146 271 l 222 885 l 250 885 l 174 271 l 139 0 m 531 294 l 514 160 q 453 -5 501 63 q 301 -136 404 -72 l 289 -121 l 289 -112 q 431 10 383 -54 q 488 160 478 74 l 503 289 l 574 857 l 400 857 l 394 863 l 401 885 l 604 885 l 531 294 z "},"ĳ":{"ha":686,"x_min":108,"x_max":569,"o":"m 136 0 l 108 0 l 136 208 l 194 682 l 222 682 l 164 210 l 136 0 m 514 226 l 501 124 q 456 -5 492 47 q 344 -106 421 -57 l 332 -87 l 332 -81 q 432 12 399 -36 q 474 125 465 60 l 485 222 l 539 656 l 397 656 l 393 660 l 400 682 l 569 682 l 514 226 z "},"Ĵ":{"ha":361,"x_min":-37,"x_max":354,"o":"m 204 294 l 188 160 q 126 -5 175 63 q -25 -136 78 -72 l -37 -121 l -37 -112 q 104 10 57 -54 q 161 160 151 74 l 176 289 l 247 857 l 74 857 l 68 863 l 75 885 l 278 885 l 204 294 m 58 1042 q 206 1147 119 1081 l 228 1147 q 354 1042 311 1075 l 343 1022 l 336 1022 q 215 1119 281 1063 q 72 1022 150 1071 l 65 1022 l 58 1042 z "},"ĵ":{"ha":363,"x_min":8,"x_max":342,"o":"m 190 226 l 178 124 q 133 -5 168 47 q 21 -106 97 -57 l 8 -87 l 8 -81 q 108 12 75 -36 q 150 125 142 60 l 161 222 l 215 656 l 74 656 l 69 660 l 76 682 l 246 682 l 190 226 m 36 779 q 197 954 88 829 l 222 954 q 342 779 286 851 l 326 763 l 319 763 q 207 925 265 832 q 54 763 125 831 l 47 763 l 36 779 z "},"Ķ":{"ha":671,"x_min":111,"x_max":714,"o":"m 139 0 l 111 0 l 146 271 l 224 885 l 251 885 l 174 271 l 139 0 m 275 471 q 619 7 436 225 l 619 1 q 600 -10 614 -4 l 594 -8 q 236 471 388 240 l 236 475 l 604 819 l 669 885 l 714 885 l 275 471 m 344 -99 q 397 -165 397 -122 q 306 -294 397 -224 l 292 -279 l 293 -275 q 368 -167 368 -219 q 326 -119 368 -139 l 326 -114 q 344 -99 333 -104 z "},"ķ":{"ha":610,"x_min":108,"x_max":603,"o":"m 136 0 l 108 0 l 136 208 l 194 682 l 222 682 l 164 210 l 136 0 m 247 363 q 538 7 376 178 l 535 1 q 513 -8 531 -1 l 508 -6 q 211 361 340 181 l 211 365 l 511 631 l 564 682 l 603 682 l 247 363 m 267 -99 q 319 -165 319 -122 q 228 -294 319 -224 l 214 -279 l 215 -275 q 290 -167 290 -219 q 249 -119 290 -139 l 249 -114 q 267 -99 256 -104 z "},"ĸ":{"ha":610,"x_min":108,"x_max":603,"o":"m 136 0 l 108 0 l 136 208 l 194 682 l 222 682 l 164 210 l 136 0 m 247 363 q 538 7 376 178 l 535 1 q 513 -8 531 -1 l 508 -6 q 211 361 340 181 l 211 365 l 511 631 l 564 682 l 603 682 l 247 363 z "},"Ĺ":{"ha":525,"x_min":110,"x_max":485,"o":"m 476 0 l 110 0 l 144 271 l 221 885 l 249 885 l 172 271 l 142 28 l 481 28 l 485 22 l 476 0 m 407 1142 l 404 1135 q 163 1006 311 1082 l 156 1010 l 146 1031 q 390 1161 272 1092 l 397 1158 l 407 1142 z "},"ĺ":{"ha":488,"x_min":107,"x_max":421,"o":"m 414 0 l 107 0 l 135 208 l 194 682 l 222 682 l 163 210 l 139 26 l 419 26 l 421 22 l 414 0 m 347 968 l 346 961 q 146 774 250 865 l 139 775 l 124 793 q 326 983 219 874 l 333 982 l 347 968 z "},"Ļ":{"ha":525,"x_min":110,"x_max":485,"o":"m 476 0 l 110 0 l 144 271 l 221 885 l 249 885 l 172 271 l 142 28 l 481 28 l 485 22 l 476 0 m 253 -99 q 306 -165 306 -122 q 214 -294 306 -224 l 200 -279 l 201 -275 q 276 -167 276 -219 q 235 -119 276 -139 l 235 -114 q 253 -99 242 -104 z "},"ļ":{"ha":488,"x_min":107,"x_max":421,"o":"m 414 0 l 107 0 l 135 208 l 194 682 l 222 682 l 163 210 l 139 26 l 419 26 l 421 22 l 414 0 m 253 -99 q 306 -165 306 -122 q 214 -294 306 -224 l 200 -279 l 201 -275 q 276 -167 276 -219 q 235 -119 276 -139 l 235 -114 q 253 -99 242 -104 z "},"Ľ":{"ha":540,"x_min":110,"x_max":538,"o":"m 485 22 l 476 0 l 110 0 l 144 271 l 221 885 l 249 885 l 172 271 l 142 28 l 481 28 l 485 22 m 497 596 l 472 593 l 469 599 l 510 799 l 535 801 l 538 796 l 497 596 z "},"ľ":{"ha":499,"x_min":108,"x_max":465,"o":"m 422 22 l 415 0 l 108 0 l 136 208 l 196 682 l 224 682 l 164 210 l 140 26 l 421 26 l 422 22 m 425 439 l 400 436 l 397 442 l 438 642 l 463 644 l 465 639 l 425 439 z "},"Ŀ":{"ha":525,"x_min":110,"x_max":485,"o":"m 476 0 l 110 0 l 144 271 l 221 885 l 249 885 l 172 271 l 142 28 l 481 28 l 485 22 l 476 0 m 417 538 q 444 510 444 538 q 417 482 444 482 q 389 510 389 482 q 417 538 389 538 z "},"ŀ":{"ha":503,"x_min":108,"x_max":422,"o":"m 415 0 l 108 0 l 136 208 l 196 682 l 224 682 l 164 210 l 140 26 l 421 26 l 422 22 l 415 0 m 344 340 q 317 368 317 340 q 344 396 317 396 q 372 368 372 396 q 344 340 372 340 z "},"Ł":{"ha":538,"x_min":43,"x_max":496,"o":"m 488 0 l 121 0 l 156 271 l 179 465 l 54 397 l 47 401 l 43 422 l 183 497 l 232 885 l 260 885 l 214 514 l 432 631 l 439 628 l 444 607 l 210 481 l 183 271 l 153 28 l 492 28 l 496 22 l 488 0 z "},"ł":{"ha":501,"x_min":43,"x_max":435,"o":"m 428 0 l 121 0 l 149 208 l 167 357 l 51 301 l 44 306 l 43 325 l 171 385 l 208 682 l 236 682 l 200 399 l 386 486 l 392 485 l 393 464 l 197 371 l 176 210 l 153 26 l 433 26 l 435 22 l 428 0 z "},"Ń":{"ha":889,"x_min":111,"x_max":813,"o":"m 699 0 l 672 0 l 250 826 l 244 826 l 174 276 l 139 0 l 111 0 l 144 264 l 224 885 l 250 885 l 672 58 l 678 58 l 785 883 l 813 886 l 731 244 l 699 0 m 685 1142 l 682 1135 q 440 1006 589 1082 l 433 1010 l 424 1031 q 668 1161 550 1092 l 675 1158 l 685 1142 z "},"ń":{"ha":786,"x_min":108,"x_max":686,"o":"m 597 0 l 569 0 l 219 626 l 217 626 l 163 214 l 136 0 l 108 0 l 135 203 l 196 682 l 224 682 l 574 56 l 579 56 l 658 681 l 686 683 l 624 190 l 597 0 m 576 968 l 575 961 q 375 774 479 865 l 368 775 l 353 793 q 556 983 449 874 l 563 982 l 576 968 z "},"Ņ":{"ha":889,"x_min":111,"x_max":813,"o":"m 699 0 l 672 0 l 250 826 l 244 826 l 174 276 l 139 0 l 111 0 l 144 264 l 224 885 l 250 885 l 672 58 l 678 58 l 785 883 l 813 886 l 731 244 l 699 0 m 382 -99 q 435 -165 435 -122 q 343 -294 435 -224 l 329 -279 l 331 -275 q 406 -167 406 -219 q 364 -119 406 -139 l 364 -114 q 382 -99 371 -104 z "},"ņ":{"ha":786,"x_min":108,"x_max":686,"o":"m 597 0 l 569 0 l 219 626 l 217 626 l 163 214 l 136 0 l 108 0 l 135 203 l 196 682 l 224 682 l 574 56 l 579 56 l 658 681 l 686 683 l 624 190 l 597 0 m 328 -99 q 381 -165 381 -122 q 289 -294 381 -224 l 275 -279 l 276 -275 q 351 -167 351 -219 q 310 -119 351 -139 l 310 -114 q 328 -99 317 -104 z "},"Ň":{"ha":889,"x_min":111,"x_max":813,"o":"m 699 0 l 672 0 l 250 826 l 244 826 l 174 276 l 139 0 l 111 0 l 144 264 l 224 885 l 250 885 l 672 58 l 678 58 l 785 883 l 813 886 l 731 244 l 699 0 m 686 1118 q 540 1013 635 1085 l 518 1013 q 390 1118 446 1075 l 401 1138 l 408 1138 q 529 1040 464 1097 q 672 1138 594 1089 l 679 1138 l 686 1118 z "},"ň":{"ha":786,"x_min":108,"x_max":686,"o":"m 597 0 l 569 0 l 219 626 l 217 626 l 163 214 l 136 0 l 108 0 l 135 203 l 196 682 l 224 682 l 574 56 l 579 56 l 658 681 l 686 683 l 624 190 l 597 0 m 613 951 q 453 776 554 894 l 428 776 q 307 951 360 885 l 322 968 l 329 968 q 442 806 383 899 q 594 968 524 900 l 601 968 l 613 951 z "},"Ŋ":{"ha":900,"x_min":111,"x_max":817,"o":"m 711 54 q 656 -85 701 -28 q 508 -200 611 -142 l 494 -185 l 496 -176 q 617 -88 576 -131 q 675 7 658 -46 l 246 826 l 240 826 l 172 276 l 139 0 l 111 0 l 143 264 l 221 885 l 247 885 l 679 58 l 685 58 l 789 883 l 817 886 l 736 244 l 711 54 z "},"ŋ":{"ha":786,"x_min":108,"x_max":686,"o":"m 604 49 q 565 -69 594 -22 q 474 -160 536 -115 l 463 -144 l 464 -137 q 568 4 546 -76 l 219 626 l 215 626 l 163 214 l 136 0 l 108 0 l 136 203 l 196 682 l 224 682 l 574 56 l 581 56 l 658 681 l 686 683 l 622 190 l 604 49 z "},"Ō":{"ha":832,"x_min":78,"x_max":789,"o":"m 493 892 q 713 801 638 892 q 789 543 789 711 q 740 250 789 374 q 597 60 690 126 q 371 -7 503 -7 q 153 86 229 -7 q 78 351 78 179 q 126 641 78 519 q 269 827 175 763 q 493 892 363 892 m 492 864 q 285 803 371 864 q 153 627 199 742 q 107 356 107 513 q 176 108 107 196 q 372 21 244 21 q 581 84 493 21 q 714 263 668 147 q 760 538 760 379 q 692 779 760 694 q 492 864 624 864 m 713 1072 l 314 1072 l 310 1076 l 313 1100 l 711 1100 l 715 1096 l 713 1072 z "},"ō":{"ha":740,"x_min":79,"x_max":669,"o":"m 421 688 q 605 615 540 688 q 669 413 669 543 q 579 106 669 217 q 328 -6 489 -6 q 144 68 208 -6 q 79 275 79 142 q 169 578 79 469 q 421 688 258 688 m 418 660 q 190 560 271 660 q 110 278 110 460 q 165 88 110 154 q 326 22 221 22 q 557 124 474 22 q 640 408 640 226 q 583 595 640 531 q 418 660 526 660 m 639 869 l 240 869 l 236 874 l 239 897 l 638 897 l 642 893 l 639 869 z "},"Ŏ":{"ha":832,"x_min":78,"x_max":789,"o":"m 493 892 q 713 801 638 892 q 789 543 789 711 q 740 250 789 374 q 597 60 690 126 q 371 -7 503 -7 q 153 86 229 -7 q 78 351 78 179 q 126 641 78 519 q 269 827 175 763 q 493 892 363 892 m 492 864 q 285 803 371 864 q 153 627 199 742 q 107 356 107 513 q 176 108 107 196 q 372 21 244 21 q 581 84 493 21 q 714 263 668 147 q 760 538 760 379 q 692 779 760 694 q 492 864 624 864 m 649 1114 q 497 1011 604 1011 q 412 1038 446 1011 q 369 1114 378 1064 l 389 1129 l 396 1129 q 499 1039 407 1039 q 625 1129 590 1039 l 632 1129 l 649 1114 z "},"ŏ":{"ha":740,"x_min":79,"x_max":669,"o":"m 421 688 q 605 615 540 688 q 669 413 669 543 q 579 106 669 217 q 328 -6 489 -6 q 144 68 208 -6 q 79 275 79 142 q 169 578 79 469 q 421 688 258 688 m 418 660 q 190 560 271 660 q 110 278 110 460 q 165 88 110 154 q 326 22 221 22 q 557 124 474 22 q 640 408 640 226 q 583 595 640 531 q 418 660 526 660 m 576 925 q 418 779 532 779 q 331 815 360 779 q 296 925 301 850 l 317 943 l 324 943 q 349 840 325 874 q 422 807 372 807 q 553 943 518 807 l 560 943 l 576 925 z "},"Ő":{"ha":832,"x_min":78,"x_max":789,"o":"m 493 892 q 713 801 638 892 q 789 543 789 711 q 740 250 789 374 q 597 60 690 126 q 371 -7 503 -7 q 153 86 229 -7 q 78 351 78 179 q 126 641 78 519 q 269 827 175 763 q 493 892 363 892 m 492 864 q 285 803 371 864 q 153 627 199 742 q 107 356 107 513 q 176 108 107 196 q 372 21 244 21 q 581 84 493 21 q 714 263 668 147 q 760 538 760 379 q 692 779 760 694 q 492 864 624 864 m 365 1051 q 489 1168 469 1149 l 496 1167 l 510 1153 l 508 1146 q 353 1000 460 1097 l 346 1001 l 331 1019 l 365 1051 m 546 1051 q 669 1168 650 1149 l 676 1167 l 690 1153 l 689 1146 q 533 1000 640 1097 l 526 1001 l 511 1019 l 546 1051 z "},"ő":{"ha":740,"x_min":79,"x_max":679,"o":"m 421 688 q 605 615 540 688 q 669 413 669 543 q 579 106 669 217 q 328 -6 489 -6 q 144 68 208 -6 q 79 275 79 142 q 169 578 79 469 q 421 688 258 688 m 418 660 q 190 560 271 660 q 110 278 110 460 q 165 88 110 154 q 326 22 221 22 q 557 124 474 22 q 640 408 640 226 q 583 595 640 531 q 418 660 526 660 m 275 790 q 478 981 382 885 l 485 979 l 499 965 l 497 958 q 297 771 400 863 l 290 772 l 275 790 m 456 790 q 658 981 563 885 l 665 979 l 679 965 l 678 958 q 478 771 581 863 l 471 772 l 456 790 z "},"Œ":{"ha":1096,"x_min":78,"x_max":1125,"o":"m 549 901 q 646 893 585 901 q 747 885 710 885 l 1121 885 l 1125 879 l 1117 857 l 742 857 l 694 472 l 1003 472 l 1006 467 l 997 444 l 689 444 l 667 261 l 638 28 l 1018 28 l 1022 22 l 1014 0 l 635 0 q 519 -8 594 0 q 418 -17 447 -17 q 166 83 254 -17 q 78 361 78 183 q 134 648 78 526 q 297 835 190 769 q 549 901 403 901 m 544 874 q 310 812 408 874 q 158 635 211 750 q 106 364 106 519 q 188 103 106 196 q 429 11 271 11 q 571 25 488 11 q 603 36 594 29 q 614 60 611 43 l 706 814 q 707 839 707 825 q 693 858 707 857 q 544 874 611 874 z "},"œ":{"ha":960,"x_min":81,"x_max":946,"o":"m 461 694 q 546 689 490 694 q 632 682 592 682 l 943 682 l 946 676 l 939 654 l 629 656 l 592 367 l 847 367 l 851 361 l 843 339 l 589 339 l 572 201 l 549 26 l 864 26 l 867 22 l 860 0 l 546 0 q 454 -7 503 0 q 369 -12 396 -12 q 156 65 232 -12 q 81 282 81 143 q 181 584 81 474 q 461 694 281 694 m 461 668 q 203 566 296 668 q 110 285 110 464 q 176 85 110 156 q 374 14 243 14 q 492 25 432 14 q 516 33 510 28 q 525 53 522 39 l 594 621 q 596 639 596 628 q 583 656 596 654 q 533 663 572 657 q 461 668 493 668 z "},"Ŕ":{"ha":686,"x_min":111,"x_max":618,"o":"m 618 682 q 558 484 618 565 q 389 369 499 403 q 579 7 472 183 l 578 1 q 560 -10 571 -6 l 553 -7 q 358 365 440 183 l 185 365 l 174 271 l 139 0 l 111 0 l 146 271 l 222 885 l 407 888 q 563 834 508 888 q 618 682 618 781 m 375 393 q 534 495 478 421 q 590 678 590 569 q 545 808 590 761 q 414 860 500 856 l 247 858 l 189 393 l 375 393 m 553 1171 l 551 1164 q 351 976 456 1068 l 344 978 l 329 996 q 532 1186 425 1076 l 539 1185 l 553 1171 z "},"ŕ":{"ha":625,"x_min":110,"x_max":531,"o":"m 531 522 q 482 373 531 435 q 344 285 433 311 q 504 7 415 142 l 504 1 l 483 -8 l 475 -4 q 315 279 382 144 l 172 279 l 164 210 l 138 0 l 110 0 l 136 208 l 196 682 l 349 683 q 483 641 435 683 q 531 522 531 599 m 326 307 q 456 383 410 328 q 501 518 501 438 q 354 658 501 650 l 221 657 l 176 308 l 326 307 m 499 968 l 497 961 q 297 774 401 865 l 290 775 l 275 793 q 478 983 371 874 l 485 982 l 499 968 z "},"Ŗ":{"ha":686,"x_min":111,"x_max":618,"o":"m 618 682 q 558 484 618 565 q 389 369 499 403 q 579 7 472 183 l 578 1 q 560 -10 571 -6 l 553 -7 q 358 365 440 183 l 185 365 l 174 271 l 139 0 l 111 0 l 146 271 l 222 885 l 407 888 q 563 834 508 888 q 618 682 618 781 m 375 393 q 534 495 478 421 q 590 678 590 569 q 545 808 590 761 q 414 860 500 856 l 247 858 l 189 393 l 375 393 m 279 -99 q 332 -165 332 -122 q 240 -294 332 -224 l 226 -279 l 228 -275 q 303 -167 303 -219 q 261 -119 303 -139 l 261 -114 q 279 -99 268 -104 z "},"ŗ":{"ha":625,"x_min":110,"x_max":531,"o":"m 531 522 q 482 373 531 435 q 344 285 433 311 q 504 7 415 142 l 504 1 l 483 -8 l 475 -4 q 315 279 382 144 l 172 279 l 164 210 l 138 0 l 110 0 l 136 208 l 196 682 l 349 683 q 483 641 435 683 q 531 522 531 599 m 326 307 q 456 383 410 328 q 501 518 501 438 q 354 658 501 650 l 221 657 l 176 308 l 326 307 m 265 -99 q 318 -165 318 -122 q 226 -294 318 -224 l 213 -279 l 214 -275 q 289 -167 289 -219 q 247 -119 289 -139 l 247 -114 q 265 -99 254 -104 z "},"Ř":{"ha":686,"x_min":111,"x_max":618,"o":"m 618 682 q 558 484 618 565 q 389 369 499 403 q 579 7 472 183 l 578 1 q 560 -10 571 -6 l 553 -7 q 358 365 440 183 l 185 365 l 174 271 l 139 0 l 111 0 l 146 271 l 222 885 l 407 888 q 563 834 508 888 q 618 682 618 781 m 375 393 q 534 495 478 421 q 590 678 590 569 q 545 808 590 761 q 414 860 500 856 l 247 858 l 189 393 l 375 393 m 589 1154 q 429 979 531 1097 l 404 979 q 283 1154 336 1088 l 299 1171 l 306 1171 q 418 1008 360 1101 q 571 1171 500 1103 l 578 1171 l 589 1154 z "},"ř":{"ha":625,"x_min":110,"x_max":535,"o":"m 531 522 q 482 373 531 435 q 344 285 433 311 q 504 7 415 142 l 504 1 l 483 -8 l 475 -4 q 315 279 382 144 l 172 279 l 164 210 l 138 0 l 110 0 l 136 208 l 196 682 l 349 683 q 483 641 435 683 q 531 522 531 599 m 326 307 q 456 383 410 328 q 501 518 501 438 q 354 658 501 650 l 221 657 l 176 308 l 326 307 m 535 951 q 375 776 476 894 l 350 776 q 229 951 282 885 l 244 968 l 251 968 q 364 806 306 899 q 517 968 446 900 l 524 968 l 535 951 z "},"Ś":{"ha":588,"x_min":39,"x_max":553,"o":"m 394 889 q 553 849 479 889 l 544 824 l 535 822 q 390 861 471 861 q 271 833 324 861 q 189 758 218 804 q 160 663 160 713 q 182 582 160 617 q 235 523 204 547 q 322 465 267 499 q 419 401 383 429 q 481 331 456 374 q 506 232 506 289 q 469 113 506 168 q 369 26 432 58 q 231 -6 306 -6 q 128 11 179 -6 q 39 60 76 28 l 43 86 l 51 89 q 136 39 88 56 q 233 22 185 22 q 359 51 303 22 q 447 128 415 81 q 478 229 478 175 q 455 315 478 278 q 399 376 432 351 q 310 436 367 401 q 215 500 250 474 q 156 567 181 526 q 132 664 132 608 q 167 778 132 726 q 261 859 201 829 q 394 889 321 889 m 504 1171 l 503 1164 q 303 976 407 1068 l 296 978 l 281 996 q 483 1186 376 1076 l 490 1185 l 504 1171 z "},"ś":{"ha":538,"x_min":56,"x_max":469,"o":"m 333 685 q 469 654 404 685 l 460 629 l 451 628 q 332 657 399 657 q 236 635 278 657 q 172 577 194 613 q 150 503 150 542 q 183 424 150 454 q 285 361 217 394 q 365 316 335 336 q 417 264 396 296 q 439 186 439 232 q 410 92 439 136 q 331 22 382 49 q 218 -4 281 -4 q 56 46 121 -4 l 58 74 l 65 75 q 219 24 129 24 q 318 47 274 24 q 387 109 363 71 q 411 188 411 147 q 377 267 411 238 q 275 331 343 296 q 194 377 224 357 q 143 428 164 397 q 122 504 122 460 q 149 594 122 553 q 224 660 176 635 q 333 685 272 685 m 449 968 l 447 961 q 247 774 351 865 l 240 775 l 225 793 q 428 983 321 874 l 435 982 l 449 968 z "},"Ŝ":{"ha":588,"x_min":39,"x_max":553,"o":"m 394 889 q 553 849 479 889 l 544 824 l 535 822 q 390 861 471 861 q 271 833 324 861 q 189 758 218 804 q 160 663 160 713 q 182 582 160 617 q 235 523 204 547 q 322 465 267 499 q 419 401 383 429 q 481 331 456 374 q 506 232 506 289 q 469 113 506 168 q 369 26 432 58 q 231 -6 306 -6 q 128 11 179 -6 q 39 60 76 28 l 43 86 l 51 89 q 136 39 88 56 q 233 22 185 22 q 359 51 303 22 q 447 128 415 81 q 478 229 478 175 q 455 315 478 278 q 399 376 432 351 q 310 436 367 401 q 215 500 250 474 q 156 567 181 526 q 132 664 132 608 q 167 778 132 726 q 261 859 201 829 q 394 889 321 889 m 233 982 q 394 1157 285 1032 l 419 1157 q 539 982 483 1054 l 524 965 l 517 965 q 404 1128 463 1035 q 251 965 322 1033 l 244 965 l 233 982 z "},"ŝ":{"ha":538,"x_min":56,"x_max":483,"o":"m 333 685 q 469 654 404 685 l 460 629 l 451 628 q 332 657 399 657 q 236 635 278 657 q 172 577 194 613 q 150 503 150 542 q 183 424 150 454 q 285 361 217 394 q 365 316 335 336 q 417 264 396 296 q 439 186 439 232 q 410 92 439 136 q 331 22 382 49 q 218 -4 281 -4 q 56 46 121 -4 l 58 74 l 65 75 q 219 24 129 24 q 318 47 274 24 q 387 109 363 71 q 411 188 411 147 q 377 267 411 238 q 275 331 343 296 q 194 377 224 357 q 143 428 164 397 q 122 504 122 460 q 149 594 122 553 q 224 660 176 635 q 333 685 272 685 m 178 779 q 339 954 229 829 l 364 954 q 483 779 428 851 l 468 763 l 461 763 q 349 925 407 832 q 196 763 267 831 l 189 763 l 178 779 z "},"Ş":{"ha":588,"x_min":39,"x_max":553,"o":"m 394 889 q 553 849 479 889 l 544 824 l 535 822 q 390 861 471 861 q 271 833 324 861 q 189 758 218 804 q 160 663 160 713 q 182 582 160 617 q 235 523 204 547 q 322 465 267 499 q 419 401 383 429 q 481 331 456 374 q 506 232 506 289 q 473 120 506 172 q 383 35 440 68 q 257 -4 326 1 l 235 -76 l 278 -104 q 324 -174 324 -133 q 299 -227 324 -207 q 240 -247 275 -247 q 158 -201 189 -247 l 167 -176 l 172 -176 q 201 -209 186 -199 q 240 -219 217 -219 q 281 -208 265 -219 q 296 -174 296 -196 q 288 -149 296 -158 q 263 -128 281 -140 l 203 -89 l 229 -6 q 39 60 117 -6 l 43 86 l 51 89 q 136 39 88 56 q 233 22 185 22 q 359 51 303 22 q 447 128 415 81 q 478 229 478 175 q 455 315 478 278 q 399 376 432 351 q 310 436 367 401 q 215 500 250 474 q 156 567 181 526 q 132 664 132 608 q 167 778 132 726 q 261 859 201 829 q 394 889 321 889 z "},"ş":{"ha":538,"x_min":56,"x_max":469,"o":"m 333 685 q 469 654 404 685 l 460 629 l 451 628 q 332 657 399 657 q 236 635 278 657 q 172 577 194 613 q 150 503 150 542 q 183 424 150 454 q 285 361 217 394 q 365 316 335 336 q 417 264 396 296 q 439 186 439 232 q 388 63 439 117 q 256 -1 336 10 l 232 -76 l 275 -104 q 321 -174 321 -133 q 297 -227 321 -207 q 238 -247 272 -247 q 156 -201 186 -247 l 164 -176 l 169 -176 q 199 -209 183 -199 q 238 -219 214 -219 q 278 -208 263 -219 q 293 -174 293 -196 q 285 -149 293 -158 q 260 -128 278 -140 l 200 -89 l 228 -4 l 218 -4 q 56 46 121 -4 l 58 74 l 65 75 q 219 24 129 24 q 318 47 274 24 q 387 109 363 71 q 411 188 411 147 q 377 267 411 238 q 275 331 343 296 q 194 377 224 357 q 143 428 164 397 q 122 504 122 460 q 149 594 122 553 q 224 660 176 635 q 333 685 272 685 z "},"Š":{"ha":588,"x_min":39,"x_max":553,"o":"m 394 889 q 553 849 479 889 l 544 824 l 535 822 q 390 861 471 861 q 271 833 324 861 q 189 758 218 804 q 160 663 160 713 q 182 582 160 617 q 235 523 204 547 q 322 465 267 499 q 419 401 383 429 q 481 331 456 374 q 506 232 506 289 q 469 113 506 168 q 369 26 432 58 q 231 -6 306 -6 q 128 11 179 -6 q 39 60 76 28 l 43 86 l 51 89 q 136 39 88 56 q 233 22 185 22 q 359 51 303 22 q 447 128 415 81 q 478 229 478 175 q 455 315 478 278 q 399 376 432 351 q 310 436 367 401 q 215 500 250 474 q 156 567 181 526 q 132 664 132 608 q 167 778 132 726 q 261 859 201 829 q 394 889 321 889 m 540 1154 q 381 979 482 1097 l 356 979 q 235 1154 288 1088 l 250 1171 l 257 1171 q 369 1008 311 1101 q 522 1171 451 1103 l 529 1171 l 540 1154 z "},"š":{"ha":538,"x_min":56,"x_max":485,"o":"m 333 685 q 469 654 404 685 l 460 629 l 451 628 q 332 657 399 657 q 236 635 278 657 q 172 577 194 613 q 150 503 150 542 q 183 424 150 454 q 285 361 217 394 q 365 316 335 336 q 417 264 396 296 q 439 186 439 232 q 410 92 439 136 q 331 22 382 49 q 218 -4 281 -4 q 56 46 121 -4 l 58 74 l 65 75 q 219 24 129 24 q 318 47 274 24 q 387 109 363 71 q 411 188 411 147 q 377 267 411 238 q 275 331 343 296 q 194 377 224 357 q 143 428 164 397 q 122 504 122 460 q 149 594 122 553 q 224 660 176 635 q 333 685 272 685 m 485 951 q 325 776 426 894 l 300 776 q 179 951 232 885 l 194 968 l 201 968 q 314 806 256 899 q 467 968 396 900 l 474 968 l 485 951 z "},"Ţ":{"ha":625,"x_min":107,"x_max":658,"o":"m 650 857 l 396 857 l 321 271 l 288 0 l 264 -76 l 304 -104 q 347 -174 347 -135 q 324 -227 347 -207 q 268 -247 300 -247 q 190 -201 221 -247 l 199 -176 l 204 -176 q 231 -209 218 -199 q 268 -219 244 -219 q 306 -208 292 -219 q 319 -174 319 -196 q 313 -149 319 -158 q 289 -128 306 -140 l 232 -89 l 260 0 l 293 271 l 368 857 l 111 857 l 107 863 l 115 885 l 654 885 l 658 879 l 650 857 z "},"ţ":{"ha":568,"x_min":101,"x_max":560,"o":"m 553 654 l 442 656 l 344 656 l 288 210 l 261 0 l 260 0 l 228 -76 l 265 -104 q 300 -165 300 -129 q 274 -225 300 -203 q 211 -247 247 -247 q 139 -201 160 -247 l 149 -176 l 154 -176 q 214 -219 176 -219 q 257 -206 240 -219 q 274 -168 274 -192 q 247 -128 274 -150 l 193 -89 l 233 0 l 260 208 l 317 656 l 217 656 l 104 654 l 101 660 l 108 682 l 558 682 l 560 676 l 553 654 z "},"Ť":{"ha":625,"x_min":107,"x_max":658,"o":"m 650 857 l 396 857 l 321 271 l 288 0 l 260 0 l 293 271 l 368 857 l 111 857 l 107 863 l 115 885 l 654 885 l 658 879 l 650 857 m 560 1154 q 400 979 501 1097 l 375 979 q 254 1154 307 1088 l 269 1171 l 276 1171 q 389 1008 331 1101 q 542 1171 471 1103 l 549 1171 l 560 1154 z "},"ť":{"ha":571,"x_min":101,"x_max":560,"o":"m 553 654 l 442 656 l 344 656 l 288 210 l 261 0 l 233 0 l 260 208 l 317 656 l 217 656 l 104 654 l 101 660 l 108 682 l 558 682 l 560 676 l 553 654 m 507 951 q 347 776 449 894 l 322 776 q 201 951 254 885 l 217 968 l 224 968 q 336 806 278 899 q 489 968 418 900 l 496 968 l 507 951 z "},"Ŧ":{"ha":625,"x_min":107,"x_max":658,"o":"m 650 857 l 396 857 l 349 486 l 478 486 l 482 482 l 479 458 l 344 458 l 321 271 l 288 0 l 260 0 l 293 271 l 317 458 l 188 458 l 183 463 l 186 486 l 321 486 l 368 857 l 111 857 l 107 863 l 115 885 l 654 885 l 658 879 l 650 857 z "},"ŧ":{"ha":568,"x_min":101,"x_max":560,"o":"m 553 654 l 442 656 l 344 656 l 307 361 l 436 361 l 439 357 l 433 333 l 303 333 l 288 210 l 261 0 l 233 0 l 260 208 l 275 333 l 140 333 l 138 338 l 143 361 l 279 361 l 317 656 l 217 656 l 104 654 l 101 660 l 108 682 l 558 682 l 560 676 l 553 654 z "},"Ũ":{"ha":810,"x_min":113,"x_max":765,"o":"m 694 318 q 594 79 679 164 q 369 -6 508 -6 q 179 59 246 -6 q 113 244 113 124 q 118 318 113 285 l 136 447 l 192 885 l 219 885 l 146 318 q 140 250 140 271 q 199 81 140 140 q 368 22 258 22 q 571 99 494 22 q 667 318 647 175 l 738 885 l 765 885 l 708 433 l 694 318 m 693 1113 l 621 1047 l 613 1044 q 500 1072 585 1047 q 396 1097 411 1097 q 354 1067 385 1097 l 325 1040 l 319 1040 l 307 1056 l 307 1061 l 379 1126 l 388 1129 q 500 1101 415 1126 q 604 1076 589 1076 q 646 1107 615 1076 l 675 1133 l 681 1133 l 693 1118 l 693 1113 z "},"ũ":{"ha":725,"x_min":110,"x_max":650,"o":"m 594 244 q 512 61 582 126 q 325 -4 442 -4 q 165 47 221 -4 q 110 193 110 97 q 114 244 110 218 l 129 344 l 171 682 l 200 682 l 142 246 q 139 199 139 229 q 187 67 139 113 q 326 22 235 22 q 491 80 429 22 q 567 246 553 138 l 622 682 l 650 682 l 606 333 l 594 244 m 624 910 l 551 844 l 543 842 q 431 869 515 844 q 326 894 342 894 q 285 864 315 894 l 256 838 l 250 838 l 238 853 l 238 858 l 310 924 l 318 926 q 431 899 346 924 q 535 874 519 874 q 576 904 546 874 l 606 931 l 611 931 l 624 915 l 624 910 z "},"Ū":{"ha":810,"x_min":113,"x_max":765,"o":"m 694 318 q 594 79 679 164 q 369 -6 508 -6 q 179 59 246 -6 q 113 244 113 124 q 118 318 113 285 l 136 447 l 192 885 l 219 885 l 146 318 q 140 250 140 271 q 199 81 140 140 q 368 22 258 22 q 571 99 494 22 q 667 318 647 175 l 738 885 l 765 885 l 708 433 l 694 318 m 701 1072 l 303 1072 l 299 1076 l 301 1100 l 700 1100 l 704 1096 l 701 1072 z "},"ū":{"ha":725,"x_min":110,"x_max":650,"o":"m 594 244 q 512 61 582 126 q 325 -4 442 -4 q 165 47 221 -4 q 110 193 110 97 q 114 244 110 218 l 129 344 l 171 682 l 200 682 l 142 246 q 139 199 139 229 q 187 67 139 113 q 326 22 235 22 q 491 80 429 22 q 567 246 553 138 l 622 682 l 650 682 l 606 333 l 594 244 m 632 869 l 233 869 l 229 874 l 232 897 l 631 897 l 635 893 l 632 869 z "},"Ŭ":{"ha":810,"x_min":113,"x_max":765,"o":"m 694 318 q 594 79 679 164 q 369 -6 508 -6 q 179 59 246 -6 q 113 244 113 124 q 118 318 113 285 l 136 447 l 192 885 l 219 885 l 146 318 q 140 250 140 271 q 199 81 140 140 q 368 22 258 22 q 571 99 494 22 q 667 318 647 175 l 738 885 l 765 885 l 708 433 l 694 318 m 639 1128 q 481 982 594 982 q 393 1017 422 982 q 358 1128 364 1053 l 379 1146 l 386 1146 q 411 1043 388 1076 q 485 1010 435 1010 q 615 1146 581 1010 l 622 1146 l 639 1128 z "},"ŭ":{"ha":725,"x_min":110,"x_max":650,"o":"m 594 244 q 512 61 582 126 q 325 -4 442 -4 q 165 47 221 -4 q 110 193 110 97 q 114 244 110 218 l 129 344 l 171 682 l 200 682 l 142 246 q 139 199 139 229 q 187 67 139 113 q 326 22 235 22 q 491 80 429 22 q 567 246 553 138 l 622 682 l 650 682 l 606 333 l 594 244 m 569 925 q 411 779 525 779 q 324 815 353 779 q 289 925 294 850 l 310 943 l 317 943 q 342 840 318 874 q 415 807 365 807 q 546 943 511 807 l 553 943 l 569 925 z "},"Ů":{"ha":810,"x_min":113,"x_max":765,"o":"m 694 318 q 594 79 679 164 q 369 -6 508 -6 q 179 59 246 -6 q 113 244 113 124 q 118 318 113 285 l 136 447 l 192 885 l 219 885 l 146 318 q 140 250 140 271 q 199 81 140 140 q 368 22 258 22 q 571 99 494 22 q 667 318 647 175 l 738 885 l 765 885 l 708 433 l 694 318 m 499 1185 q 571 1156 544 1185 q 597 1088 597 1126 q 567 1018 597 1044 q 499 992 538 992 q 431 1019 460 992 q 401 1089 401 1046 q 428 1158 401 1131 q 499 1185 456 1185 m 499 1157 q 448 1138 467 1157 q 429 1089 429 1119 q 449 1038 429 1057 q 499 1019 469 1019 q 549 1038 528 1019 q 569 1088 569 1056 q 551 1137 569 1117 q 499 1157 532 1157 z "},"ů":{"ha":725,"x_min":110,"x_max":650,"o":"m 594 244 q 512 61 582 126 q 325 -4 442 -4 q 165 47 221 -4 q 110 193 110 97 q 114 244 110 218 l 129 344 l 171 682 l 200 682 l 142 246 q 139 199 139 229 q 187 67 139 113 q 326 22 235 22 q 491 80 429 22 q 567 246 553 138 l 622 682 l 650 682 l 606 333 l 594 244 m 429 982 q 501 953 475 982 q 528 885 528 924 q 498 815 528 842 q 429 789 468 789 q 361 816 390 789 q 332 886 332 843 q 359 955 332 928 q 429 982 386 982 m 429 954 q 378 935 397 954 q 360 886 360 917 q 380 835 360 854 q 429 817 400 817 q 479 835 458 817 q 500 885 500 853 q 481 934 500 914 q 429 954 463 954 z "},"Ű":{"ha":810,"x_min":113,"x_max":765,"o":"m 694 318 q 594 79 679 164 q 369 -6 508 -6 q 179 59 246 -6 q 113 244 113 124 q 118 318 113 285 l 136 447 l 192 885 l 219 885 l 146 318 q 140 250 140 271 q 199 81 140 140 q 368 22 258 22 q 571 99 494 22 q 667 318 647 175 l 738 885 l 765 885 l 708 433 l 694 318 m 354 1051 q 478 1168 458 1149 l 485 1167 l 499 1153 l 497 1146 q 342 1000 449 1097 l 335 1001 l 319 1019 l 354 1051 m 535 1051 q 658 1168 639 1149 l 665 1167 l 679 1153 l 678 1146 q 522 1000 629 1097 l 515 1001 l 500 1019 l 535 1051 z "},"ű":{"ha":725,"x_min":110,"x_max":672,"o":"m 594 244 q 512 61 582 126 q 325 -4 442 -4 q 165 47 221 -4 q 110 193 110 97 q 114 244 110 218 l 129 344 l 171 682 l 200 682 l 142 246 q 139 199 139 229 q 187 67 139 113 q 326 22 235 22 q 491 80 429 22 q 567 246 553 138 l 622 682 l 650 682 l 606 333 l 594 244 m 268 790 q 471 981 375 885 l 478 979 l 492 965 l 490 958 q 290 771 393 863 l 283 772 l 268 790 m 449 790 q 651 981 556 885 l 658 979 l 672 965 l 671 958 q 471 771 574 863 l 464 772 l 449 790 z "},"Ų":{"ha":808,"x_min":113,"x_max":765,"o":"m 708 433 l 694 318 q 536 35 674 114 l 444 -108 q 418 -183 418 -150 q 433 -228 418 -211 q 475 -246 449 -246 q 531 -226 503 -246 q 581 -172 558 -207 l 583 -172 l 599 -194 q 475 -274 540 -274 q 413 -249 436 -274 q 390 -183 390 -225 q 418 -100 390 -140 l 492 15 q 369 -6 438 -6 q 179 59 246 -6 q 113 244 113 124 q 118 318 113 285 l 136 447 l 192 885 l 219 885 l 146 318 q 140 250 140 271 q 199 81 140 140 q 368 22 258 22 q 571 99 494 22 q 667 318 647 175 l 738 885 l 765 885 l 708 433 z "},"ų":{"ha":725,"x_min":110,"x_max":650,"o":"m 606 333 l 594 244 q 469 31 578 92 l 376 -108 q 349 -182 349 -149 q 365 -228 349 -211 q 411 -246 382 -246 q 524 -172 469 -246 l 526 -172 l 542 -194 q 411 -274 481 -274 q 346 -249 371 -274 q 321 -185 321 -225 q 350 -100 321 -143 l 424 10 q 325 -4 372 -4 q 165 47 221 -4 q 110 193 110 97 q 114 244 110 218 l 129 344 l 171 682 l 200 682 l 142 246 q 139 199 139 229 q 187 67 139 113 q 326 22 235 22 q 491 80 429 22 q 567 246 553 138 l 622 682 l 650 682 l 606 333 z "},"Ŵ":{"ha":1158,"x_min":103,"x_max":1213,"o":"m 749 0 l 622 608 l 617 608 l 321 0 l 290 0 l 103 885 l 135 885 l 144 825 l 310 47 l 315 47 l 611 654 l 561 885 l 592 885 l 601 825 l 765 47 l 771 47 l 1154 825 l 1181 885 l 1213 885 l 776 0 l 749 0 m 497 1042 q 644 1147 558 1081 l 667 1147 q 793 1042 750 1075 l 782 1022 l 775 1022 q 654 1119 719 1063 q 511 1022 589 1071 l 504 1022 l 497 1042 z "},"ŵ":{"ha":1011,"x_min":99,"x_max":1018,"o":"m 639 0 l 528 460 l 524 460 l 288 0 l 258 0 l 99 682 l 131 682 l 136 633 l 276 43 l 279 43 l 518 504 l 476 682 l 507 682 l 515 632 l 654 43 l 660 43 l 965 633 l 988 682 l 1018 682 l 668 0 l 639 0 m 390 779 q 551 954 442 829 l 576 954 q 696 779 640 851 l 681 763 l 674 763 q 561 925 619 832 q 408 763 479 831 l 401 763 l 390 779 z "},"Ŷ":{"ha":651,"x_min":107,"x_max":683,"o":"m 321 271 l 288 0 l 260 0 l 293 271 l 303 340 l 107 885 l 142 885 l 151 849 l 318 385 l 325 385 l 628 849 l 647 885 l 683 885 l 331 343 l 321 271 m 272 1042 q 419 1147 333 1081 l 442 1147 q 568 1042 525 1075 l 557 1022 l 550 1022 q 429 1119 494 1063 q 286 1022 364 1071 l 279 1022 l 272 1042 z "},"ŷ":{"ha":594,"x_min":101,"x_max":585,"o":"m 289 207 l 261 0 l 233 0 l 261 207 l 268 263 l 101 682 l 136 682 l 144 653 l 283 301 l 289 301 l 533 653 l 550 682 l 585 682 l 294 257 l 289 207 m 211 779 q 372 954 263 829 l 397 954 q 517 779 461 851 l 501 763 l 494 763 q 382 925 440 832 q 229 763 300 831 l 222 763 l 211 779 z "},"Ÿ":{"ha":651,"x_min":107,"x_max":683,"o":"m 321 271 l 288 0 l 260 0 l 293 271 l 303 340 l 107 885 l 142 885 l 151 849 l 318 385 l 325 385 l 628 849 l 647 885 l 683 885 l 331 343 l 321 271 m 317 1113 q 344 1085 344 1113 q 317 1057 344 1057 q 289 1085 289 1057 q 317 1113 289 1113 m 525 1113 q 553 1085 553 1113 q 525 1057 553 1057 q 497 1085 497 1057 q 525 1113 497 1113 z "},"Ź":{"ha":669,"x_min":7,"x_max":679,"o":"m 47 28 l 478 28 l 568 29 l 574 22 l 565 0 l 54 0 l 7 -1 l 10 24 l 639 857 l 222 857 l 146 856 l 140 863 l 149 886 l 233 885 l 631 885 l 679 886 l 676 861 l 47 28 m 535 1142 l 532 1135 q 290 1006 439 1082 l 283 1010 l 274 1031 q 518 1161 400 1092 l 525 1158 l 535 1142 z "},"ź":{"ha":606,"x_min":24,"x_max":576,"o":"m 64 26 l 414 26 l 492 28 l 496 22 l 489 0 l 65 0 l 24 -1 l 26 22 l 536 656 l 196 656 l 131 654 l 126 660 l 133 683 l 207 682 l 535 682 l 576 683 l 572 658 l 64 26 m 486 968 l 485 961 q 285 774 389 865 l 278 775 l 263 793 q 465 983 358 874 l 472 982 l 486 968 z "},"Ż":{"ha":669,"x_min":7,"x_max":679,"o":"m 47 28 l 478 28 l 568 29 l 574 22 l 565 0 l 54 0 l 7 -1 l 10 24 l 639 857 l 222 857 l 146 856 l 140 863 l 149 886 l 233 885 l 631 885 l 679 886 l 676 861 l 47 28 m 392 1132 q 419 1104 419 1132 q 392 1076 419 1076 q 364 1104 364 1076 q 392 1132 364 1132 z "},"ż":{"ha":606,"x_min":24,"x_max":576,"o":"m 64 26 l 414 26 l 492 28 l 496 22 l 489 0 l 65 0 l 24 -1 l 26 22 l 536 656 l 196 656 l 131 654 l 126 660 l 133 683 l 207 682 l 535 682 l 576 683 l 572 658 l 64 26 m 372 929 q 400 901 400 929 q 372 874 400 874 q 344 901 344 874 q 372 929 344 929 z "},"Ž":{"ha":669,"x_min":7,"x_max":679,"o":"m 47 28 l 478 28 l 568 29 l 574 22 l 565 0 l 54 0 l 7 -1 l 10 24 l 639 857 l 222 857 l 146 856 l 140 863 l 149 886 l 233 885 l 631 885 l 679 886 l 676 861 l 47 28 m 536 1118 q 390 1013 485 1085 l 368 1013 q 240 1118 296 1075 l 251 1138 l 258 1138 q 379 1040 314 1097 q 522 1138 444 1089 l 529 1138 l 536 1118 z "},"ž":{"ha":606,"x_min":24,"x_max":576,"o":"m 64 26 l 414 26 l 492 28 l 496 22 l 489 0 l 65 0 l 24 -1 l 26 22 l 536 656 l 196 656 l 131 654 l 126 660 l 133 683 l 207 682 l 535 682 l 576 683 l 572 658 l 64 26 m 522 951 q 363 776 464 894 l 338 776 q 217 951 269 885 l 232 968 l 239 968 q 351 806 293 899 q 504 968 433 900 l 511 968 l 522 951 z "},"ƒ":{"ha":325,"x_min":-15,"x_max":458,"o":"m 372 849 q 458 838 406 849 l 451 811 l 447 808 q 374 821 415 821 q 214 661 235 821 l 194 507 l 353 507 l 357 501 l 354 479 l 192 479 l 139 57 q 101 -86 129 -33 q 1 -207 74 -139 l -15 -193 l -14 -186 q 76 -74 51 -122 q 111 54 101 -25 l 136 257 l 164 479 l 76 479 l 71 485 l 74 507 l 167 507 l 186 661 q 244 800 196 751 q 372 849 293 849 z "},"Ơ":{"ha":835,"x_min":78,"x_max":869,"o":"m 829 1046 q 856 1018 842 1046 q 869 953 869 990 q 822 849 869 886 q 700 815 775 813 q 788 531 788 728 q 738 249 788 371 q 594 60 688 128 q 372 -7 500 -7 q 78 368 78 -7 q 126 642 78 524 q 269 826 175 760 q 497 892 364 892 q 644 861 571 892 q 721 842 694 842 q 804 869 768 842 q 840 943 840 896 q 808 1032 840 989 l 811 1039 q 829 1046 824 1046 m 489 864 q 283 801 369 864 q 151 627 197 739 q 106 369 106 515 q 375 21 106 21 q 581 85 493 21 q 714 262 668 149 q 760 521 760 375 q 489 864 760 864 z "},"ơ":{"ha":747,"x_min":79,"x_max":736,"o":"m 682 800 q 700 807 693 807 q 724 785 711 807 q 736 735 736 764 q 701 655 736 685 q 614 625 665 625 l 596 626 q 668 411 668 556 q 578 107 668 219 q 328 -6 488 -6 q 144 67 208 -6 q 79 274 79 140 q 169 578 79 469 q 424 688 258 688 q 547 664 485 688 q 608 649 586 649 q 678 669 647 649 q 708 725 708 690 q 679 794 708 758 l 682 800 m 329 21 q 558 124 475 21 q 640 408 640 228 q 583 595 640 531 q 417 660 526 660 q 190 560 271 660 q 110 278 110 460 q 166 87 110 153 q 329 21 222 21 z "},"Ư":{"ha":824,"x_min":113,"x_max":871,"o":"m 871 958 q 841 888 871 915 q 763 857 811 860 l 708 433 l 694 318 q 594 79 679 164 q 369 -6 508 -6 q 179 59 246 -6 q 113 244 113 124 q 118 318 113 285 l 136 447 l 192 885 l 219 885 l 146 318 q 140 250 140 271 q 199 81 140 140 q 368 22 258 22 q 571 99 494 22 q 667 318 647 175 l 738 885 l 753 885 q 819 905 794 885 q 843 958 843 925 q 800 1043 843 996 l 803 1050 q 819 1057 811 1057 q 840 1043 828 1057 q 862 1007 853 1029 q 871 958 871 985 z "},"ư":{"ha":736,"x_min":110,"x_max":744,"o":"m 744 747 q 717 687 744 711 q 647 658 690 663 l 606 333 l 594 244 q 512 61 582 126 q 325 -4 442 -4 q 165 47 221 -4 q 110 193 110 97 q 114 244 110 218 l 129 344 l 171 682 l 200 682 l 142 246 q 139 199 139 229 q 187 67 139 113 q 326 22 235 22 q 491 80 429 22 q 567 246 553 138 l 622 682 l 635 682 q 694 699 672 682 q 717 743 717 715 q 688 803 717 772 l 690 808 q 708 815 701 815 q 731 794 718 815 q 744 747 744 774 z "},"Ǎ":{"ha":728,"x_min":-11,"x_max":653,"o":"m 621 0 l 613 60 l 561 296 l 168 296 l 50 60 l 22 0 l -11 0 l 432 885 l 461 885 l 653 0 l 621 0 m 442 838 l 438 838 l 182 324 l 554 324 l 442 838 m 614 1118 q 468 1013 563 1085 l 446 1013 q 318 1118 374 1075 l 329 1138 l 336 1138 q 457 1040 392 1097 q 600 1138 522 1089 l 607 1138 l 614 1118 z "},"ǎ":{"ha":657,"x_min":8,"x_max":561,"o":"m 529 0 l 521 49 l 479 224 l 154 224 l 63 49 l 40 0 l 8 0 l 365 682 l 396 682 l 561 0 l 529 0 m 378 640 l 374 640 l 168 250 l 472 250 l 378 640 m 556 951 q 396 776 497 894 l 371 776 q 250 951 303 885 l 265 968 l 272 968 q 385 806 326 899 q 538 968 467 900 l 544 968 l 556 951 z "},"Ǐ":{"ha":326,"x_min":108,"x_max":404,"o":"m 139 0 l 111 0 l 146 271 l 222 885 l 250 885 l 174 271 l 139 0 m 404 1118 q 258 1013 353 1085 l 236 1013 q 108 1118 164 1075 l 119 1138 l 126 1138 q 247 1040 182 1097 q 390 1138 313 1089 l 397 1138 l 404 1118 z "},"ǐ":{"ha":324,"x_min":81,"x_max":386,"o":"m 136 0 l 108 0 l 136 208 l 194 682 l 222 682 l 164 210 l 136 0 m 386 951 q 226 776 328 894 l 201 776 q 81 951 133 885 l 96 968 l 103 968 q 215 806 157 899 q 368 968 297 900 l 375 968 l 386 951 z "},"Ǒ":{"ha":832,"x_min":78,"x_max":789,"o":"m 493 892 q 713 801 638 892 q 789 543 789 711 q 740 250 789 374 q 597 60 690 126 q 371 -7 503 -7 q 153 86 229 -7 q 78 351 78 179 q 126 641 78 519 q 269 827 175 763 q 493 892 363 892 m 492 864 q 285 803 371 864 q 153 627 199 742 q 107 356 107 513 q 176 108 107 196 q 372 21 244 21 q 581 84 493 21 q 714 263 668 147 q 760 538 760 379 q 692 779 760 694 q 492 864 624 864 m 657 1118 q 511 1013 606 1085 l 489 1013 q 361 1118 417 1075 l 372 1138 l 379 1138 q 500 1040 435 1097 q 643 1138 565 1089 l 650 1138 l 657 1118 z "},"ǒ":{"ha":740,"x_min":79,"x_max":669,"o":"m 421 688 q 605 615 540 688 q 669 413 669 543 q 579 106 669 217 q 328 -6 489 -6 q 144 68 208 -6 q 79 275 79 142 q 169 578 79 469 q 421 688 258 688 m 418 660 q 190 560 271 660 q 110 278 110 460 q 165 88 110 154 q 326 22 221 22 q 557 124 474 22 q 640 408 640 226 q 583 595 640 531 q 418 660 526 660 m 589 951 q 429 776 531 894 l 404 776 q 283 951 336 885 l 299 968 l 306 968 q 418 806 360 899 q 571 968 500 900 l 578 968 l 589 951 z "},"Ǔ":{"ha":810,"x_min":113,"x_max":765,"o":"m 694 318 q 594 79 679 164 q 369 -6 508 -6 q 179 59 246 -6 q 113 244 113 124 q 118 318 113 285 l 136 447 l 192 885 l 219 885 l 146 318 q 140 250 140 271 q 199 81 140 140 q 368 22 258 22 q 571 99 494 22 q 667 318 647 175 l 738 885 l 765 885 l 708 433 l 694 318 m 651 1154 q 492 979 593 1097 l 467 979 q 346 1154 399 1088 l 361 1171 l 368 1171 q 481 1008 422 1101 q 633 1171 563 1103 l 640 1171 l 651 1154 z "},"ǔ":{"ha":725,"x_min":110,"x_max":650,"o":"m 594 244 q 512 61 582 126 q 325 -4 442 -4 q 165 47 221 -4 q 110 193 110 97 q 114 244 110 218 l 129 344 l 171 682 l 200 682 l 142 246 q 139 199 139 229 q 187 67 139 113 q 326 22 235 22 q 491 80 429 22 q 567 246 553 138 l 622 682 l 650 682 l 606 333 l 594 244 m 582 951 q 422 776 524 894 l 397 776 q 276 951 329 885 l 292 968 l 299 968 q 411 806 353 899 q 564 968 493 900 l 571 968 l 582 951 z "},"Ǖ":{"ha":810,"x_min":113,"x_max":765,"o":"m 694 318 q 594 79 679 164 q 369 -6 508 -6 q 179 59 246 -6 q 113 244 113 124 q 118 318 113 285 l 136 447 l 192 885 l 219 885 l 146 318 q 140 250 140 271 q 199 81 140 140 q 368 22 258 22 q 571 99 494 22 q 667 318 647 175 l 738 885 l 765 885 l 708 433 l 694 318 m 689 1189 l 360 1189 l 356 1193 l 358 1217 l 688 1217 l 692 1213 l 689 1189 m 414 1083 q 442 1056 442 1083 q 414 1028 442 1028 q 386 1056 386 1028 q 414 1083 386 1083 m 608 1083 q 636 1056 636 1083 q 608 1028 636 1028 q 581 1056 581 1028 q 608 1083 581 1083 z "},"ǖ":{"ha":725,"x_min":110,"x_max":650,"o":"m 594 244 q 512 61 582 126 q 325 -4 442 -4 q 165 47 221 -4 q 110 193 110 97 q 114 244 110 218 l 129 344 l 171 682 l 200 682 l 142 246 q 139 199 139 229 q 187 67 139 113 q 326 22 235 22 q 491 80 429 22 q 567 246 553 138 l 622 682 l 650 682 l 606 333 l 594 244 m 619 986 l 290 986 l 286 990 l 289 1014 l 618 1014 l 622 1010 l 619 986 m 344 881 q 372 853 372 881 q 344 825 372 825 q 317 853 317 825 q 344 881 317 881 m 539 881 q 567 853 567 881 q 539 825 567 825 q 511 853 511 825 q 539 881 511 881 z "},"Ǘ":{"ha":810,"x_min":113,"x_max":765,"o":"m 694 318 q 594 79 679 164 q 369 -6 508 -6 q 179 59 246 -6 q 113 244 113 124 q 118 318 113 285 l 136 447 l 192 885 l 219 885 l 146 318 q 140 250 140 271 q 199 81 140 140 q 368 22 258 22 q 571 99 494 22 q 667 318 647 175 l 738 885 l 765 885 l 708 433 l 694 318 m 650 1257 l 646 1250 q 386 1165 535 1210 l 379 1171 l 374 1193 q 638 1279 503 1229 l 643 1275 l 650 1257 m 397 1083 q 425 1056 425 1083 q 397 1028 425 1028 q 369 1056 369 1028 q 397 1083 369 1083 m 592 1083 q 619 1056 619 1083 q 592 1028 619 1028 q 564 1056 564 1028 q 592 1083 564 1083 z "},"ǘ":{"ha":725,"x_min":110,"x_max":650,"o":"m 594 244 q 512 61 582 126 q 325 -4 442 -4 q 165 47 221 -4 q 110 193 110 97 q 114 244 110 218 l 129 344 l 171 682 l 200 682 l 142 246 q 139 199 139 229 q 187 67 139 113 q 326 22 235 22 q 491 80 429 22 q 567 246 553 138 l 622 682 l 650 682 l 606 333 l 594 244 m 581 1054 l 576 1047 q 317 963 465 1007 l 310 968 l 304 990 q 568 1076 433 1026 l 574 1072 l 581 1054 m 328 881 q 356 853 356 881 q 328 825 356 825 q 300 853 300 825 q 328 881 300 881 m 522 881 q 550 853 550 881 q 522 825 550 825 q 494 853 494 825 q 522 881 494 881 z "},"Ǚ":{"ha":810,"x_min":113,"x_max":765,"o":"m 694 318 q 594 79 679 164 q 369 -6 508 -6 q 179 59 246 -6 q 113 244 113 124 q 118 318 113 285 l 136 447 l 192 885 l 219 885 l 146 318 q 140 250 140 271 q 199 81 140 140 q 368 22 258 22 q 571 99 494 22 q 667 318 647 175 l 738 885 l 765 885 l 708 433 l 694 318 m 653 1235 q 507 1129 601 1201 l 485 1129 q 357 1235 413 1192 l 368 1254 l 375 1254 q 496 1157 431 1214 q 639 1254 561 1206 l 646 1254 l 653 1235 m 394 1083 q 422 1056 422 1083 q 394 1028 422 1028 q 367 1056 367 1028 q 394 1083 367 1083 m 589 1083 q 617 1056 617 1083 q 589 1028 617 1028 q 561 1056 561 1028 q 589 1083 561 1083 z "},"ǚ":{"ha":725,"x_min":110,"x_max":650,"o":"m 594 244 q 512 61 582 126 q 325 -4 442 -4 q 165 47 221 -4 q 110 193 110 97 q 114 244 110 218 l 129 344 l 171 682 l 200 682 l 142 246 q 139 199 139 229 q 187 67 139 113 q 326 22 235 22 q 491 80 429 22 q 567 246 553 138 l 622 682 l 650 682 l 606 333 l 594 244 m 583 1032 q 438 926 532 999 l 415 926 q 288 1032 343 989 l 299 1051 l 306 1051 q 426 954 361 1011 q 569 1051 492 1003 l 576 1051 l 583 1032 m 325 881 q 353 853 353 881 q 325 825 353 825 q 297 853 297 825 q 325 881 297 881 m 519 881 q 547 853 547 881 q 519 825 547 825 q 492 853 492 825 q 519 881 492 881 z "},"Ǜ":{"ha":810,"x_min":113,"x_max":765,"o":"m 694 318 q 594 79 679 164 q 369 -6 508 -6 q 179 59 246 -6 q 113 244 113 124 q 118 318 113 285 l 136 447 l 192 885 l 219 885 l 146 318 q 140 250 140 271 q 199 81 140 140 q 368 22 258 22 q 571 99 494 22 q 667 318 647 175 l 738 885 l 765 885 l 708 433 l 694 318 m 397 1279 q 651 1193 525 1229 l 643 1171 l 635 1165 q 386 1250 485 1213 l 382 1257 l 392 1275 l 397 1279 m 390 1083 q 415 1060 415 1083 q 406 1037 415 1046 q 383 1028 397 1028 q 358 1051 358 1028 q 367 1074 358 1065 q 390 1083 376 1083 m 585 1083 q 610 1060 610 1083 q 601 1037 610 1046 q 578 1028 592 1028 q 553 1051 553 1028 q 562 1074 553 1065 q 585 1083 571 1083 z "},"ǜ":{"ha":725,"x_min":110,"x_max":650,"o":"m 594 244 q 512 61 582 126 q 325 -4 442 -4 q 165 47 221 -4 q 110 193 110 97 q 114 244 110 218 l 129 344 l 171 682 l 200 682 l 142 246 q 139 199 139 229 q 187 67 139 113 q 326 22 235 22 q 491 80 429 22 q 567 246 553 138 l 622 682 l 650 682 l 606 333 l 594 244 m 328 1076 q 582 990 456 1026 l 574 968 l 565 963 q 317 1047 415 1010 l 313 1054 l 322 1072 l 328 1076 m 321 881 q 346 857 346 881 q 337 834 346 843 q 314 825 328 825 q 289 849 289 825 q 298 872 289 863 q 321 881 307 881 m 515 881 q 540 857 540 881 q 531 834 540 843 q 508 825 522 825 q 483 849 483 825 q 492 872 483 863 q 515 881 501 881 z "},"Ǫ":{"ha":832,"x_min":78,"x_max":789,"o":"m 447 -108 q 419 -182 419 -149 q 436 -228 419 -211 q 482 -246 453 -246 q 594 -172 540 -246 l 597 -172 l 613 -194 q 482 -274 551 -274 q 417 -249 442 -274 q 392 -185 392 -225 q 421 -100 392 -143 l 494 10 q 371 -7 436 -7 q 153 86 229 -7 q 78 351 78 179 q 126 641 78 519 q 269 827 175 763 q 493 892 363 892 q 713 801 638 892 q 789 543 789 711 q 724 214 789 347 q 538 26 660 81 l 447 -108 m 107 356 q 176 108 107 196 q 372 21 244 21 q 581 84 493 21 q 714 263 668 147 q 760 538 760 379 q 692 779 760 694 q 492 864 624 864 q 285 803 371 864 q 153 627 199 742 q 107 356 107 513 z "},"ǫ":{"ha":740,"x_min":79,"x_max":669,"o":"m 376 -108 q 349 -182 349 -149 q 365 -228 349 -211 q 411 -246 382 -246 q 524 -172 469 -246 l 526 -172 l 542 -194 q 411 -274 481 -274 q 346 -249 371 -274 q 321 -185 321 -225 q 350 -100 321 -143 l 419 6 q 328 -6 375 -6 q 144 68 208 -6 q 79 275 79 142 q 169 578 79 469 q 421 688 258 688 q 605 615 540 688 q 669 413 669 543 q 616 160 669 263 q 463 18 563 58 l 376 -108 m 326 22 q 557 124 474 22 q 640 408 640 226 q 583 595 640 531 q 418 660 526 660 q 190 560 271 660 q 110 278 110 460 q 165 88 110 154 q 326 22 221 22 z "},"Ǻ":{"ha":728,"x_min":-11,"x_max":653,"o":"m 358 1100 q 621 1186 496 1139 l 628 1182 l 635 1164 l 631 1158 q 369 1072 535 1124 l 364 1078 l 358 1100 m 621 0 l 611 60 l 560 296 l 167 296 l 49 60 l 22 0 l -11 0 l 421 858 q 374 892 392 868 q 356 950 356 917 q 383 1019 356 992 q 453 1046 410 1046 q 525 1017 499 1046 q 551 949 551 988 q 527 885 551 910 q 468 854 503 860 l 653 0 l 621 0 m 383 950 q 403 899 383 918 q 453 881 424 881 q 503 899 482 881 q 524 949 524 917 q 505 998 524 978 q 453 1018 486 1018 q 402 999 421 1018 q 383 950 383 981 m 442 838 l 438 838 l 181 324 l 554 324 l 442 838 z "},"ǻ":{"ha":657,"x_min":8,"x_max":574,"o":"m 529 0 l 521 49 l 479 224 l 154 224 l 63 49 l 40 0 l 8 0 l 365 682 l 396 682 l 561 0 l 529 0 m 378 640 l 374 640 l 168 250 l 472 250 l 378 640 m 574 1069 l 569 1064 q 308 978 474 1029 l 303 983 l 297 1006 q 560 1092 435 1044 l 567 1088 l 574 1069 m 392 951 q 464 922 438 951 q 490 854 490 893 q 460 785 490 811 q 392 758 431 758 q 324 785 353 758 q 294 856 294 813 q 322 924 294 897 q 392 951 349 951 m 392 924 q 341 905 360 924 q 322 856 322 886 q 342 805 322 824 q 392 786 363 786 q 442 804 421 786 q 463 854 463 822 q 444 903 463 883 q 392 924 425 924 z "},"Ǽ":{"ha":1033,"x_min":-58,"x_max":965,"o":"m 957 0 l 560 0 l 560 60 l 549 403 l 203 343 l 15 60 l -21 0 l -58 0 l 533 885 l 929 885 l 932 879 l 922 857 l 564 857 l 576 435 l 892 489 l 894 485 l 888 461 l 576 408 l 588 28 l 964 28 l 965 22 l 957 0 m 535 836 l 531 836 l 225 375 l 547 431 l 535 836 m 886 1142 l 883 1135 q 642 1006 790 1082 l 635 1010 l 625 1031 q 869 1161 751 1092 l 876 1158 l 886 1142 z "},"ǽ":{"ha":911,"x_min":-29,"x_max":822,"o":"m 815 0 l 481 0 l 483 49 l 472 307 l 185 258 l 36 49 l 7 0 l -29 0 l 454 682 l 788 682 l 790 676 l 782 654 l 486 656 l 499 338 l 757 379 l 760 376 l 754 353 l 499 313 l 510 26 l 821 26 l 822 22 l 815 0 m 457 639 l 453 639 l 206 290 l 471 333 l 457 639 m 760 968 l 758 961 q 558 774 663 865 l 551 775 l 536 793 q 739 983 632 874 l 746 982 l 760 968 z "},"Ǿ":{"ha":833,"x_min":78,"x_max":789,"o":"m 679 835 q 789 543 789 746 q 740 250 789 374 q 597 60 690 126 q 371 -7 503 -7 q 225 26 286 -7 l 142 -121 l 121 -117 l 118 -111 l 203 40 q 78 351 78 128 q 126 641 78 519 q 269 827 175 763 q 493 892 363 892 q 657 850 592 892 l 733 985 l 756 981 l 757 974 l 679 835 m 107 356 q 218 67 107 150 l 643 824 q 492 864 582 864 q 285 803 371 864 q 153 627 199 742 q 107 356 107 513 m 372 21 q 581 84 493 21 q 714 263 668 147 q 760 538 760 379 q 664 808 760 728 l 239 53 q 372 21 296 21 m 656 1142 l 653 1135 q 411 1006 560 1082 l 404 1010 l 394 1031 q 639 1161 521 1092 l 646 1158 l 656 1142 z "},"ǿ":{"ha":740,"x_min":79,"x_max":669,"o":"m 557 654 q 669 413 669 589 q 579 106 669 217 q 328 -6 489 -6 q 208 19 258 -6 l 136 -111 l 114 -103 l 111 -97 l 183 33 q 79 275 79 104 q 169 578 79 469 q 421 688 258 688 q 532 667 483 688 l 593 778 l 615 771 l 618 764 l 557 654 m 110 278 q 197 58 110 121 l 518 642 q 418 660 476 660 q 190 560 271 660 q 110 278 110 460 m 326 22 q 557 124 474 22 q 640 408 640 226 q 543 629 640 568 l 221 44 q 326 22 265 22 m 528 968 l 526 961 q 326 774 431 865 l 319 775 l 304 793 q 507 983 400 874 l 514 982 l 528 968 z "},"Ș":{"ha":588,"x_min":39,"x_max":553,"o":"m 394 889 q 553 849 479 889 l 544 824 l 535 822 q 390 861 471 861 q 271 833 324 861 q 189 758 218 804 q 160 663 160 713 q 182 582 160 617 q 235 523 204 547 q 322 465 267 499 q 419 401 383 429 q 481 331 456 374 q 506 232 506 289 q 469 113 506 168 q 369 26 432 58 q 231 -6 306 -6 q 128 11 179 -6 q 39 60 76 28 l 43 86 l 51 89 q 136 39 88 56 q 233 22 185 22 q 359 51 303 22 q 447 128 415 81 q 478 229 478 175 q 455 315 478 278 q 399 376 432 351 q 310 436 367 401 q 215 500 250 474 q 156 567 181 526 q 132 664 132 608 q 167 778 132 726 q 261 859 201 829 q 394 889 321 889 m 231 -99 q 283 -165 283 -122 q 192 -294 283 -224 l 178 -279 l 179 -275 q 254 -167 254 -219 q 213 -119 254 -139 l 213 -114 q 231 -99 219 -104 z "},"ș":{"ha":538,"x_min":56,"x_max":469,"o":"m 333 685 q 469 654 404 685 l 460 629 l 451 628 q 332 657 399 657 q 236 635 278 657 q 172 577 194 613 q 150 503 150 542 q 183 424 150 454 q 285 361 217 394 q 365 316 335 336 q 417 264 396 296 q 439 186 439 232 q 410 92 439 136 q 331 22 382 49 q 218 -4 281 -4 q 56 46 121 -4 l 58 74 l 65 75 q 219 24 129 24 q 318 47 274 24 q 387 109 363 71 q 411 188 411 147 q 377 267 411 238 q 275 331 343 296 q 194 377 224 357 q 143 428 164 397 q 122 504 122 460 q 149 594 122 553 q 224 660 176 635 q 333 685 272 685 m 228 -99 q 281 -165 281 -122 q 189 -294 281 -224 l 175 -279 l 176 -275 q 251 -167 251 -219 q 210 -119 251 -139 l 210 -114 q 228 -99 217 -104 z "},"Ț":{"ha":625,"x_min":107,"x_max":658,"o":"m 650 857 l 396 857 l 321 271 l 288 0 l 260 0 l 293 271 l 368 857 l 111 857 l 107 863 l 115 885 l 654 885 l 658 879 l 650 857 m 250 -99 q 303 -165 303 -122 q 211 -294 303 -224 l 197 -279 l 199 -275 q 274 -167 274 -219 q 232 -119 274 -139 l 232 -114 q 250 -99 239 -104 z "},"ț":{"ha":571,"x_min":101,"x_max":560,"o":"m 553 654 l 442 656 l 344 656 l 288 210 l 261 0 l 233 0 l 260 208 l 317 656 l 217 656 l 104 654 l 101 660 l 108 682 l 558 682 l 560 676 l 553 654 m 293 -99 q 346 -165 346 -122 q 254 -294 346 -224 l 240 -279 l 242 -275 q 317 -167 317 -219 q 275 -119 317 -139 l 275 -114 q 293 -99 282 -104 z "},"ȷ":{"ha":363,"x_min":8,"x_max":246,"o":"m 190 226 l 178 124 q 133 -5 168 47 q 21 -106 97 -57 l 8 -87 l 8 -81 q 108 12 75 -36 q 150 125 142 60 l 161 222 l 215 656 l 74 656 l 69 660 l 76 682 l 246 682 l 190 226 z "},"ˆ":{"ha":542,"x_min":168,"x_max":474,"o":"m 168 725 q 329 900 219 775 l 354 900 q 474 725 418 797 l 458 708 l 451 708 q 339 871 397 778 q 186 708 257 776 l 179 708 l 168 725 z "},"ˇ":{"ha":542,"x_min":190,"x_max":496,"o":"m 496 897 q 336 722 438 840 l 311 722 q 190 897 243 831 l 206 914 l 213 914 q 325 751 267 844 q 478 914 407 846 l 485 914 l 496 897 z "},"ˉ":{"ha":542,"x_min":129,"x_max":535,"o":"m 532 815 l 133 815 l 129 819 l 132 843 l 531 843 l 535 839 l 532 815 z "},"˘":{"ha":542,"x_min":200,"x_max":481,"o":"m 481 871 q 322 725 436 725 q 235 760 264 725 q 200 871 206 796 l 221 889 l 228 889 q 253 786 229 819 q 326 753 276 753 q 457 889 422 753 l 464 889 l 481 871 z "},"˙":{"ha":542,"x_min":307,"x_max":363,"o":"m 335 875 q 363 847 363 875 q 335 819 363 819 q 307 847 307 819 q 335 875 307 875 z "},"˚":{"ha":542,"x_min":235,"x_max":431,"o":"m 332 928 q 404 899 378 928 q 431 831 431 869 q 401 761 431 788 q 332 735 371 735 q 264 762 293 735 q 235 832 235 789 q 262 901 235 874 q 332 928 289 928 m 332 900 q 281 881 300 900 q 263 832 263 863 q 283 781 263 800 q 332 763 303 763 q 382 781 361 763 q 403 831 403 799 q 384 880 403 860 q 332 900 365 900 z "},"˛":{"ha":542,"x_min":99,"x_max":319,"o":"m 154 -108 q 126 -182 126 -149 q 143 -228 126 -211 q 189 -246 160 -246 q 301 -172 247 -246 l 304 -172 l 319 -194 q 189 -274 258 -274 q 124 -249 149 -274 q 99 -185 99 -225 q 128 -100 99 -143 l 213 28 l 246 28 l 154 -108 z "},"˜":{"ha":542,"x_min":140,"x_max":526,"o":"m 526 856 l 454 790 l 446 788 q 333 815 418 790 q 229 840 244 840 q 188 810 218 840 l 158 783 l 153 783 l 140 799 l 140 804 l 213 869 l 221 872 q 333 844 249 869 q 438 819 422 819 q 479 850 449 819 l 508 876 l 514 876 l 526 861 l 526 856 z "},"˝":{"ha":542,"x_min":131,"x_max":535,"o":"m 131 736 q 333 926 238 831 l 340 925 l 354 911 l 353 904 q 153 717 256 808 l 146 718 l 131 736 m 311 736 q 514 926 418 831 l 521 925 l 535 911 l 533 904 q 333 717 436 808 l 326 718 l 311 736 z "},"̃":{"ha":0,"x_min":140,"x_max":526,"o":"m 526 856 l 453 789 l 444 786 q 332 815 411 790 q 229 840 246 840 q 188 810 218 840 l 158 783 l 153 783 l 140 799 l 140 804 l 214 871 l 222 874 q 335 844 256 869 q 438 819 421 819 q 479 850 449 819 l 508 876 l 514 876 l 526 861 l 526 856 z "},"̣":{"ha":0,"x_min":186,"x_max":242,"o":"m 214 -121 q 242 -149 242 -121 q 214 -176 242 -176 q 186 -149 186 -176 q 214 -121 186 -121 z "},"̦":{"ha":0,"x_min":150,"x_max":256,"o":"m 203 -99 q 256 -165 256 -122 q 164 -294 256 -224 l 150 -279 l 151 -275 q 226 -167 226 -219 q 185 -119 226 -139 l 185 -114 q 203 -99 192 -104 z "},"Δ":{"ha":728,"x_min":-11,"x_max":653,"o":"m -11 0 l 431 885 l 460 885 l 653 0 l -11 0 m 32 28 l 618 28 l 443 838 l 438 838 l 32 28 z "},"Ω":{"ha":963,"x_min":32,"x_max":860,"o":"m 558 892 q 781 805 703 892 q 858 557 858 718 q 788 253 858 390 q 592 32 718 117 l 590 28 l 756 28 l 856 29 l 860 24 l 851 -1 l 743 0 l 585 0 l 532 -1 l 529 1 l 532 24 q 751 244 674 107 q 829 553 829 382 q 759 783 829 703 q 557 864 689 864 q 353 810 439 864 q 223 653 268 756 q 178 411 178 551 q 226 186 178 288 q 361 24 274 85 l 358 1 l 356 -1 l 304 0 l 136 0 l 36 -1 l 32 4 l 40 29 l 146 28 l 304 28 l 306 32 q 190 191 231 93 q 150 407 150 289 q 257 763 150 635 q 558 892 364 892 z "},"μ":{"ha":636,"x_min":53,"x_max":550,"o":"m 486 147 l 474 0 l 439 -6 l 489 371 l 482 371 q 323 122 392 215 q 186 -15 254 29 l 171 -15 q 118 26 135 -4 l 100 -117 l 88 -264 l 53 -269 l 153 503 l 161 628 l 196 633 l 128 104 q 140 44 124 68 q 176 21 157 21 q 302 139 213 21 q 500 458 392 257 l 506 503 l 515 628 l 550 633 l 486 147 z "},"π":{"ha":786,"x_min":56,"x_max":779,"o":"m 535 110 q 532 78 532 85 q 572 24 532 24 q 632 44 606 24 l 639 40 l 631 15 q 567 -4 600 -4 q 506 69 506 -4 q 508 110 506 94 l 576 654 l 289 654 l 189 -136 l 161 -136 l 261 654 l 179 654 q 72 582 160 654 l 64 582 l 56 594 l 57 601 l 154 678 l 175 682 l 775 682 l 779 676 l 771 654 l 604 654 l 535 110 z "},"Ẁ":{"ha":1158,"x_min":103,"x_max":1213,"o":"m 749 0 l 622 608 l 617 608 l 321 0 l 290 0 l 103 885 l 135 885 l 144 825 l 310 47 l 315 47 l 611 654 l 561 885 l 592 885 l 601 825 l 765 47 l 771 47 l 1154 825 l 1181 885 l 1213 885 l 776 0 l 749 0 m 531 1161 q 775 1031 649 1092 l 765 1010 l 758 1006 q 517 1135 610 1082 l 514 1142 l 524 1158 l 531 1161 z "},"ẁ":{"ha":1011,"x_min":99,"x_max":1018,"o":"m 639 0 l 528 460 l 524 460 l 288 0 l 258 0 l 99 682 l 131 682 l 136 633 l 276 43 l 279 43 l 518 504 l 476 682 l 507 682 l 515 632 l 654 43 l 660 43 l 965 633 l 988 682 l 1018 682 l 668 0 l 639 0 m 440 983 q 643 793 547 874 l 628 775 l 621 774 q 421 961 517 865 l 419 968 l 433 982 l 440 983 z "},"Ẃ":{"ha":1158,"x_min":103,"x_max":1213,"o":"m 749 0 l 622 608 l 617 608 l 321 0 l 290 0 l 103 885 l 135 885 l 144 825 l 310 47 l 315 47 l 611 654 l 561 885 l 592 885 l 601 825 l 765 47 l 771 47 l 1154 825 l 1181 885 l 1213 885 l 776 0 l 749 0 m 790 1142 l 788 1135 q 546 1006 694 1082 l 539 1010 l 529 1031 q 774 1161 656 1092 l 781 1158 l 790 1142 z "},"ẃ":{"ha":1011,"x_min":99,"x_max":1018,"o":"m 639 0 l 528 460 l 524 460 l 288 0 l 258 0 l 99 682 l 131 682 l 136 633 l 276 43 l 279 43 l 518 504 l 476 682 l 507 682 l 515 632 l 654 43 l 660 43 l 965 633 l 988 682 l 1018 682 l 668 0 l 639 0 m 661 968 l 660 961 q 460 774 564 865 l 453 775 l 438 793 q 640 983 533 874 l 647 982 l 661 968 z "},"Ẅ":{"ha":1158,"x_min":103,"x_max":1213,"o":"m 749 0 l 622 608 l 617 608 l 321 0 l 290 0 l 103 885 l 135 885 l 144 825 l 310 47 l 315 47 l 611 654 l 561 885 l 592 885 l 601 825 l 765 47 l 771 47 l 1154 825 l 1181 885 l 1213 885 l 776 0 l 749 0 m 542 1113 q 569 1085 569 1113 q 542 1057 569 1057 q 514 1085 514 1057 q 542 1113 514 1113 m 750 1113 q 778 1085 778 1113 q 750 1057 778 1057 q 722 1085 722 1057 q 750 1113 722 1113 z "},"ẅ":{"ha":1011,"x_min":99,"x_max":1018,"o":"m 639 0 l 528 460 l 524 460 l 288 0 l 258 0 l 99 682 l 131 682 l 136 633 l 276 43 l 279 43 l 518 504 l 476 682 l 507 682 l 515 632 l 654 43 l 660 43 l 965 633 l 988 682 l 1018 682 l 668 0 l 639 0 m 442 910 q 469 882 469 910 q 442 854 469 854 q 414 882 414 854 q 442 910 414 910 m 650 910 q 678 882 678 910 q 650 854 678 854 q 622 882 622 854 q 650 910 622 910 z "},"ẞ":{"ha":783,"x_min":82,"x_max":729,"o":"m 476 889 q 726 814 597 889 l 729 799 l 439 478 q 644 406 574 463 q 715 254 715 349 q 680 121 715 181 q 584 28 644 61 q 453 -6 524 -6 q 347 12 401 -6 q 256 60 293 29 l 263 86 l 269 89 q 355 40 304 57 q 454 22 406 22 q 573 53 519 22 q 657 137 626 85 q 688 250 688 189 q 401 451 688 426 l 400 472 l 693 799 q 472 861 585 861 q 278 790 357 861 q 186 603 200 719 l 144 272 l 110 0 l 82 0 l 117 264 l 158 601 q 213 751 169 686 q 325 853 257 817 q 476 889 393 889 z "},"Ạ":{"ha":728,"x_min":-11,"x_max":653,"o":"m 621 0 l 613 60 l 561 296 l 168 296 l 50 60 l 22 0 l -11 0 l 432 885 l 461 885 l 653 0 l 621 0 m 442 838 l 438 838 l 182 324 l 554 324 l 442 838 m 300 -121 q 328 -149 328 -121 q 300 -176 328 -176 q 272 -149 272 -176 q 300 -121 272 -121 z "},"ạ":{"ha":657,"x_min":8,"x_max":561,"o":"m 529 0 l 521 49 l 479 224 l 154 224 l 63 49 l 40 0 l 8 0 l 365 682 l 396 682 l 561 0 l 529 0 m 378 640 l 374 640 l 168 250 l 472 250 l 378 640 m 294 -121 q 322 -149 322 -121 q 294 -176 322 -176 q 267 -149 267 -176 q 294 -121 267 -121 z "},"Ả":{"ha":728,"x_min":-11,"x_max":653,"o":"m 621 0 l 613 60 l 561 296 l 168 296 l 50 60 l 22 0 l -11 0 l 432 885 l 461 885 l 653 0 l 621 0 m 442 838 l 438 838 l 182 324 l 554 324 l 442 838 m 453 1197 q 497 1182 479 1197 q 514 1144 514 1167 q 447 1054 514 1104 l 469 1014 l 446 1004 l 415 1061 q 486 1142 486 1108 q 450 1169 486 1169 q 375 1138 414 1169 l 364 1157 q 453 1197 411 1197 z "},"ả":{"ha":657,"x_min":8,"x_max":561,"o":"m 529 0 l 521 49 l 479 224 l 154 224 l 63 49 l 40 0 l 8 0 l 365 682 l 396 682 l 561 0 l 529 0 m 378 640 l 374 640 l 168 250 l 472 250 l 378 640 m 389 994 q 433 979 415 994 q 450 942 450 964 q 383 851 450 901 l 406 811 l 382 801 l 351 858 q 422 939 422 906 q 386 967 422 967 q 311 935 350 967 l 300 954 q 389 994 347 994 z "},"Ấ":{"ha":728,"x_min":-11,"x_max":653,"o":"m 621 0 l 613 60 l 561 296 l 168 296 l 50 60 l 22 0 l -11 0 l 432 885 l 461 885 l 653 0 l 621 0 m 442 838 l 438 838 l 182 324 l 554 324 l 442 838 m 649 1231 l 647 1224 l 553 1118 l 544 1118 l 529 1133 l 626 1244 l 633 1243 l 649 1231 m 478 1121 q 604 1015 561 1049 l 593 996 l 586 996 q 465 1093 531 1036 q 322 996 400 1044 l 315 996 l 308 1015 q 456 1121 369 1054 l 478 1121 z "},"ấ":{"ha":657,"x_min":8,"x_max":585,"o":"m 529 0 l 521 49 l 479 224 l 154 224 l 63 49 l 40 0 l 8 0 l 365 682 l 396 682 l 561 0 l 529 0 m 378 640 l 374 640 l 168 250 l 472 250 l 378 640 m 585 1028 l 583 1021 l 489 915 l 481 915 l 465 931 l 563 1042 l 569 1040 l 585 1028 m 414 918 q 540 813 497 846 l 529 793 l 522 793 q 401 890 467 833 q 258 793 336 842 l 251 793 l 244 813 q 392 918 306 851 l 414 918 z "},"Ầ":{"ha":728,"x_min":-11,"x_max":653,"o":"m 621 0 l 613 60 l 561 296 l 168 296 l 50 60 l 22 0 l -11 0 l 432 885 l 461 885 l 653 0 l 621 0 m 442 838 l 438 838 l 182 324 l 554 324 l 442 838 m 607 1117 l 599 1117 l 504 1222 l 503 1229 l 518 1242 l 525 1243 l 622 1132 l 607 1117 m 481 1122 q 607 1017 564 1050 l 596 997 l 589 997 q 468 1094 533 1038 q 325 997 403 1046 l 318 997 l 311 1017 q 458 1122 372 1056 l 481 1122 z "},"ầ":{"ha":657,"x_min":8,"x_max":561,"o":"m 529 0 l 521 49 l 479 224 l 154 224 l 63 49 l 40 0 l 8 0 l 365 682 l 396 682 l 561 0 l 529 0 m 378 640 l 374 640 l 168 250 l 472 250 l 378 640 m 543 914 l 535 914 l 440 1019 l 439 1026 l 454 1039 l 461 1040 l 558 929 l 543 914 m 417 919 q 543 814 500 847 l 532 794 l 525 794 q 404 892 469 835 q 261 794 339 843 l 254 794 l 247 814 q 394 919 308 853 l 417 919 z "},"Ẩ":{"ha":728,"x_min":-11,"x_max":653,"o":"m 621 0 l 613 60 l 561 296 l 168 296 l 50 60 l 22 0 l -11 0 l 432 885 l 461 885 l 653 0 l 621 0 m 442 838 l 438 838 l 182 324 l 554 324 l 442 838 m 578 1281 q 619 1265 603 1281 q 636 1229 636 1250 q 572 1143 636 1190 l 593 1106 l 571 1096 l 542 1150 q 610 1226 610 1194 q 575 1253 610 1253 q 504 1224 540 1253 l 493 1242 q 578 1281 539 1281 m 478 1122 q 604 1017 561 1050 l 593 997 l 586 997 q 465 1094 531 1038 q 322 997 400 1046 l 315 997 l 308 1017 q 456 1122 369 1056 l 478 1122 z "},"ẩ":{"ha":657,"x_min":8,"x_max":572,"o":"m 529 0 l 521 49 l 479 224 l 154 224 l 63 49 l 40 0 l 8 0 l 365 682 l 396 682 l 561 0 l 529 0 m 378 640 l 374 640 l 168 250 l 472 250 l 378 640 m 514 1078 q 556 1063 539 1078 q 572 1026 572 1047 q 508 940 572 988 l 529 903 l 507 893 l 478 947 q 546 1024 546 992 q 511 1050 546 1050 q 440 1021 476 1050 l 429 1039 q 514 1078 475 1078 m 414 919 q 540 814 497 847 l 529 794 l 522 794 q 401 892 467 835 q 258 794 336 843 l 251 794 l 244 814 q 392 919 306 853 l 414 919 z "},"Ẫ":{"ha":728,"x_min":-11,"x_max":682,"o":"m 621 0 l 613 60 l 561 296 l 168 296 l 50 60 l 22 0 l -11 0 l 432 885 l 461 885 l 653 0 l 621 0 m 442 838 l 438 838 l 182 324 l 554 324 l 442 838 m 682 1239 l 613 1174 l 606 1171 q 497 1199 581 1174 q 399 1224 414 1224 q 357 1192 389 1224 l 332 1167 l 326 1167 l 314 1182 l 314 1188 l 383 1253 l 390 1256 q 499 1228 415 1253 q 597 1203 582 1203 q 639 1235 607 1203 l 664 1260 l 669 1260 l 682 1244 l 682 1239 m 478 1126 q 604 1021 561 1054 l 593 1001 l 586 1001 q 465 1099 531 1042 q 322 1001 400 1050 l 315 1001 l 308 1021 q 456 1126 369 1060 l 478 1126 z "},"ẫ":{"ha":657,"x_min":8,"x_max":618,"o":"m 529 0 l 521 49 l 479 224 l 154 224 l 63 49 l 40 0 l 8 0 l 365 682 l 396 682 l 561 0 l 529 0 m 378 640 l 374 640 l 168 250 l 472 250 l 378 640 m 618 1036 l 549 971 l 542 968 q 433 996 517 971 q 335 1021 350 1021 q 293 989 325 1021 l 268 964 l 263 964 l 250 979 l 250 985 l 319 1050 l 326 1053 q 435 1025 351 1050 q 533 1000 518 1000 q 575 1032 543 1000 l 600 1057 l 606 1057 l 618 1042 l 618 1036 m 414 924 q 540 818 497 851 l 529 799 l 522 799 q 401 896 467 839 q 258 799 336 847 l 251 799 l 244 818 q 392 924 306 857 l 414 924 z "},"Ậ":{"ha":728,"x_min":-11,"x_max":653,"o":"m 319 1042 q 467 1147 381 1081 l 489 1147 q 615 1042 572 1075 l 604 1022 l 597 1022 q 476 1119 542 1063 q 333 1022 411 1071 l 326 1022 l 319 1042 m 621 0 l 613 60 l 561 296 l 168 296 l 50 60 l 22 0 l -11 0 l 432 885 l 461 885 l 653 0 l 621 0 m 442 838 l 438 838 l 182 324 l 554 324 l 442 838 m 300 -121 q 328 -149 328 -121 q 300 -176 328 -176 q 272 -149 272 -176 q 300 -121 272 -121 z "},"ậ":{"ha":657,"x_min":8,"x_max":561,"o":"m 249 779 q 410 954 300 829 l 435 954 q 554 779 499 851 l 539 763 l 532 763 q 419 925 478 832 q 267 763 338 831 l 260 763 l 249 779 m 529 0 l 521 49 l 479 224 l 154 224 l 63 49 l 40 0 l 8 0 l 365 682 l 396 682 l 561 0 l 529 0 m 378 640 l 374 640 l 168 250 l 472 250 l 378 640 m 294 -121 q 322 -149 322 -121 q 294 -176 322 -176 q 267 -149 267 -176 q 294 -121 267 -121 z "},"Ắ":{"ha":728,"x_min":-11,"x_max":653,"o":"m 621 0 l 613 60 l 561 296 l 168 296 l 50 60 l 22 0 l -11 0 l 432 885 l 461 885 l 653 0 l 621 0 m 442 838 l 438 838 l 182 324 l 554 324 l 442 838 m 556 1224 q 471 1131 514 1175 l 443 1101 l 436 1103 l 419 1119 q 535 1244 456 1157 l 542 1244 l 557 1231 l 556 1224 m 606 1086 q 454 983 561 983 q 369 1010 403 983 q 326 1086 335 1036 l 346 1101 l 353 1101 q 456 1011 364 1011 q 582 1101 547 1011 l 589 1101 l 606 1086 z "},"ắ":{"ha":657,"x_min":8,"x_max":561,"o":"m 529 0 l 521 49 l 479 224 l 154 224 l 63 49 l 40 0 l 8 0 l 365 682 l 396 682 l 561 0 l 529 0 m 378 640 l 374 640 l 168 250 l 472 250 l 378 640 m 492 1021 q 407 928 450 972 l 379 899 l 372 900 l 356 917 q 471 1042 392 954 l 478 1042 l 493 1028 l 492 1021 m 542 883 q 390 781 497 781 q 305 807 339 781 q 263 883 271 833 l 282 899 l 289 899 q 392 808 300 808 q 518 899 483 808 l 525 899 l 542 883 z "},"Ằ":{"ha":728,"x_min":-11,"x_max":653,"o":"m 621 0 l 613 60 l 561 296 l 168 296 l 50 60 l 22 0 l -11 0 l 432 885 l 461 885 l 653 0 l 621 0 m 442 838 l 438 838 l 182 324 l 554 324 l 442 838 m 472 1101 l 444 1131 q 360 1224 401 1175 l 358 1231 l 374 1244 l 381 1244 q 496 1119 460 1157 l 479 1103 l 472 1101 m 606 1088 q 454 985 561 985 q 369 1011 403 985 q 326 1088 335 1038 l 346 1103 l 353 1103 q 456 1013 364 1013 q 582 1103 547 1013 l 589 1103 l 606 1088 z "},"ằ":{"ha":657,"x_min":8,"x_max":561,"o":"m 529 0 l 521 49 l 479 224 l 154 224 l 63 49 l 40 0 l 8 0 l 365 682 l 396 682 l 561 0 l 529 0 m 378 640 l 374 640 l 168 250 l 472 250 l 378 640 m 408 899 l 381 928 q 296 1021 338 972 l 294 1028 l 310 1042 l 317 1042 q 432 917 396 954 l 415 900 l 408 899 m 542 885 q 390 782 497 782 q 305 808 339 782 q 263 885 271 835 l 282 900 l 289 900 q 392 810 300 810 q 518 900 483 810 l 525 900 l 542 885 z "},"Ẳ":{"ha":728,"x_min":-11,"x_max":653,"o":"m 621 0 l 613 60 l 561 296 l 168 296 l 50 60 l 22 0 l -11 0 l 432 885 l 461 885 l 653 0 l 621 0 m 442 838 l 438 838 l 182 324 l 554 324 l 442 838 m 469 1294 q 513 1279 496 1294 q 531 1242 531 1264 q 464 1151 531 1201 l 486 1111 l 463 1101 l 432 1158 q 503 1239 503 1206 q 467 1267 503 1267 q 392 1235 431 1267 l 381 1254 q 469 1294 428 1294 m 606 1086 q 454 983 561 983 q 369 1010 403 983 q 326 1086 335 1036 l 346 1101 l 353 1101 q 456 1011 364 1011 q 582 1101 547 1011 l 589 1101 l 606 1086 z "},"ẳ":{"ha":657,"x_min":8,"x_max":561,"o":"m 529 0 l 521 49 l 479 224 l 154 224 l 63 49 l 40 0 l 8 0 l 365 682 l 396 682 l 561 0 l 529 0 m 378 640 l 374 640 l 168 250 l 472 250 l 378 640 m 406 1092 q 449 1076 432 1092 q 467 1039 467 1061 q 400 949 467 999 l 422 908 l 399 899 l 368 956 q 439 1036 439 1003 q 403 1064 439 1064 q 328 1032 367 1064 l 317 1051 q 406 1092 364 1092 m 542 883 q 390 781 497 781 q 305 807 339 781 q 263 883 271 833 l 282 899 l 289 899 q 392 808 300 808 q 518 899 483 808 l 525 899 l 542 883 z "},"Ẵ":{"ha":728,"x_min":-11,"x_max":674,"o":"m 621 0 l 613 60 l 561 296 l 168 296 l 50 60 l 22 0 l -11 0 l 432 885 l 461 885 l 653 0 l 621 0 m 442 838 l 438 838 l 182 324 l 554 324 l 442 838 m 674 1239 l 604 1174 l 597 1171 q 489 1199 572 1174 q 390 1224 406 1224 q 349 1192 381 1224 l 324 1167 l 318 1167 l 306 1182 l 306 1188 l 375 1253 l 382 1256 q 490 1228 407 1253 q 589 1203 574 1203 q 631 1235 599 1203 l 656 1260 l 661 1260 l 674 1244 l 674 1239 m 601 1086 q 450 983 557 983 q 365 1010 399 983 q 322 1086 331 1036 l 342 1101 l 349 1101 q 451 1011 360 1011 q 578 1101 543 1011 l 585 1101 l 601 1086 z "},"ẵ":{"ha":657,"x_min":8,"x_max":610,"o":"m 529 0 l 521 49 l 479 224 l 154 224 l 63 49 l 40 0 l 8 0 l 365 682 l 396 682 l 561 0 l 529 0 m 378 640 l 374 640 l 168 250 l 472 250 l 378 640 m 610 1036 l 540 971 l 533 968 q 425 996 508 971 q 326 1021 342 1021 q 285 989 317 1021 l 260 964 l 254 964 l 242 979 l 242 985 l 311 1050 l 318 1053 q 426 1025 343 1050 q 525 1000 510 1000 q 567 1032 535 1000 l 592 1057 l 597 1057 l 610 1042 l 610 1036 m 538 883 q 386 781 493 781 q 301 807 335 781 q 258 883 267 833 l 278 899 l 285 899 q 388 808 296 808 q 514 899 479 808 l 521 899 l 538 883 z "},"Ặ":{"ha":728,"x_min":-11,"x_max":653,"o":"m 454 1011 q 369 1038 403 1011 q 326 1114 335 1064 l 346 1129 l 353 1129 q 456 1039 364 1039 q 582 1129 547 1039 l 589 1129 l 606 1114 q 454 1011 561 1011 m 621 0 l 613 60 l 561 296 l 168 296 l 50 60 l 22 0 l -11 0 l 432 885 l 461 885 l 653 0 l 621 0 m 442 838 l 438 838 l 182 324 l 554 324 l 442 838 m 300 -121 q 328 -149 328 -121 q 300 -176 328 -176 q 272 -149 272 -176 q 300 -121 272 -121 z "},"ặ":{"ha":657,"x_min":8,"x_max":561,"o":"m 385 779 q 297 815 326 779 q 263 925 268 850 l 283 943 l 290 943 q 315 840 292 874 q 389 807 339 807 q 519 943 485 807 l 526 943 l 543 925 q 385 779 499 779 m 529 0 l 521 49 l 479 224 l 154 224 l 63 49 l 40 0 l 8 0 l 365 682 l 396 682 l 561 0 l 529 0 m 378 640 l 374 640 l 168 250 l 472 250 l 378 640 m 294 -121 q 322 -149 322 -121 q 294 -176 322 -176 q 267 -149 267 -176 q 294 -121 267 -121 z "},"Ẹ":{"ha":600,"x_min":111,"x_max":629,"o":"m 199 472 l 508 472 l 513 467 l 504 444 l 196 444 l 174 271 l 143 28 l 522 28 l 526 22 l 518 0 l 111 0 l 146 271 l 222 885 l 626 885 l 629 879 l 621 857 l 247 857 l 199 472 m 331 -121 q 358 -149 358 -121 q 331 -176 358 -176 q 303 -149 303 -176 q 331 -121 303 -121 z "},"ẹ":{"ha":551,"x_min":108,"x_max":538,"o":"m 182 367 l 439 367 l 442 361 l 435 339 l 179 339 l 163 210 l 139 26 l 454 26 l 458 22 l 450 0 l 108 0 l 135 208 l 194 682 l 533 682 l 538 676 l 529 654 l 219 656 l 182 367 m 281 -121 q 308 -149 308 -121 q 281 -176 308 -176 q 253 -149 253 -176 q 281 -121 253 -121 z "},"Ẻ":{"ha":600,"x_min":111,"x_max":629,"o":"m 199 472 l 508 472 l 513 467 l 504 444 l 196 444 l 174 271 l 143 28 l 522 28 l 526 22 l 518 0 l 111 0 l 146 271 l 222 885 l 626 885 l 629 879 l 621 857 l 247 857 l 199 472 m 442 1197 q 485 1182 468 1197 q 503 1144 503 1167 q 436 1054 503 1104 l 458 1014 l 435 1004 l 404 1061 q 475 1142 475 1108 q 439 1169 475 1169 q 364 1138 403 1169 l 353 1157 q 442 1197 400 1197 z "},"ẻ":{"ha":551,"x_min":108,"x_max":538,"o":"m 182 367 l 439 367 l 442 361 l 435 339 l 179 339 l 163 210 l 139 26 l 454 26 l 458 22 l 450 0 l 108 0 l 135 208 l 194 682 l 533 682 l 538 676 l 529 654 l 219 656 l 182 367 m 372 994 q 416 979 399 994 q 433 942 433 964 q 367 851 433 901 l 389 811 l 365 801 l 335 858 q 406 939 406 906 q 369 967 406 967 q 294 935 333 967 l 283 954 q 372 994 331 994 z "},"Ẽ":{"ha":600,"x_min":111,"x_max":650,"o":"m 199 472 l 508 472 l 513 467 l 504 444 l 196 444 l 174 271 l 143 28 l 522 28 l 526 22 l 518 0 l 111 0 l 146 271 l 222 885 l 626 885 l 629 879 l 621 857 l 247 857 l 199 472 m 650 1113 l 578 1047 l 569 1044 q 457 1072 542 1047 q 353 1097 368 1097 q 311 1067 342 1097 l 282 1040 l 276 1040 l 264 1056 l 264 1061 l 336 1126 l 344 1129 q 457 1101 372 1126 q 561 1076 546 1076 q 603 1107 572 1076 l 632 1133 l 638 1133 l 650 1118 l 650 1113 z "},"ẽ":{"ha":551,"x_min":108,"x_max":581,"o":"m 182 367 l 439 367 l 442 361 l 435 339 l 179 339 l 163 210 l 139 26 l 454 26 l 458 22 l 450 0 l 108 0 l 135 208 l 194 682 l 533 682 l 538 676 l 529 654 l 219 656 l 182 367 m 581 910 l 508 844 l 500 842 q 388 869 472 844 q 283 894 299 894 q 242 864 272 894 l 213 838 l 207 838 l 194 853 l 194 858 l 267 924 l 275 926 q 388 899 303 924 q 492 874 476 874 q 533 904 503 874 l 563 931 l 568 931 l 581 915 l 581 910 z "},"Ế":{"ha":600,"x_min":111,"x_max":638,"o":"m 199 472 l 508 472 l 513 467 l 504 444 l 196 444 l 174 271 l 143 28 l 522 28 l 526 22 l 518 0 l 111 0 l 146 271 l 222 885 l 626 885 l 629 879 l 621 857 l 247 857 l 199 472 m 638 1231 l 636 1224 l 542 1118 l 533 1118 l 518 1133 l 615 1244 l 622 1243 l 638 1231 m 467 1121 q 593 1015 550 1049 l 582 996 l 575 996 q 454 1093 519 1036 q 311 996 389 1044 l 304 996 l 297 1015 q 444 1121 358 1054 l 467 1121 z "},"ế":{"ha":551,"x_min":108,"x_max":568,"o":"m 182 367 l 439 367 l 442 361 l 435 339 l 179 339 l 163 210 l 139 26 l 454 26 l 458 22 l 450 0 l 108 0 l 135 208 l 194 682 l 533 682 l 538 676 l 529 654 l 219 656 l 182 367 m 568 1028 l 567 1021 l 472 915 l 464 915 l 449 931 l 546 1042 l 553 1040 l 568 1028 m 397 918 q 524 813 481 846 l 513 793 l 506 793 q 385 890 450 833 q 242 793 319 842 l 235 793 l 228 813 q 375 918 289 851 l 397 918 z "},"Ề":{"ha":600,"x_min":111,"x_max":629,"o":"m 199 472 l 508 472 l 513 467 l 504 444 l 196 444 l 174 271 l 143 28 l 522 28 l 526 22 l 518 0 l 111 0 l 146 271 l 222 885 l 626 885 l 629 879 l 621 857 l 247 857 l 199 472 m 596 1117 l 588 1117 l 493 1222 l 492 1229 l 507 1242 l 514 1243 l 611 1132 l 596 1117 m 469 1122 q 596 1017 553 1050 l 585 997 l 578 997 q 457 1094 522 1038 q 314 997 392 1046 l 307 997 l 300 1017 q 447 1122 361 1056 l 469 1122 z "},"ề":{"ha":551,"x_min":108,"x_max":542,"o":"m 182 367 l 439 367 l 442 361 l 435 339 l 179 339 l 163 210 l 139 26 l 454 26 l 458 22 l 450 0 l 108 0 l 135 208 l 194 682 l 533 682 l 538 676 l 529 654 l 219 656 l 182 367 m 526 914 l 518 914 l 424 1019 l 422 1026 l 438 1039 l 444 1040 l 542 929 l 526 914 m 400 919 q 526 814 483 847 l 515 794 l 508 794 q 388 892 453 835 q 244 794 322 843 l 238 794 l 231 814 q 378 919 292 853 l 400 919 z "},"Ể":{"ha":600,"x_min":111,"x_max":629,"o":"m 199 472 l 508 472 l 513 467 l 504 444 l 196 444 l 174 271 l 143 28 l 522 28 l 526 22 l 518 0 l 111 0 l 146 271 l 222 885 l 626 885 l 629 879 l 621 857 l 247 857 l 199 472 m 567 1281 q 608 1265 592 1281 q 625 1229 625 1250 q 561 1143 625 1190 l 582 1106 l 560 1096 l 531 1150 q 599 1226 599 1194 q 564 1253 599 1253 q 493 1224 529 1253 l 482 1242 q 567 1281 528 1281 m 467 1122 q 593 1017 550 1050 l 582 997 l 575 997 q 454 1094 519 1038 q 311 997 389 1046 l 304 997 l 297 1017 q 444 1122 358 1056 l 467 1122 z "},"ể":{"ha":551,"x_min":108,"x_max":556,"o":"m 182 367 l 439 367 l 442 361 l 435 339 l 179 339 l 163 210 l 139 26 l 454 26 l 458 22 l 450 0 l 108 0 l 135 208 l 194 682 l 533 682 l 538 676 l 529 654 l 219 656 l 182 367 m 497 1078 q 539 1063 522 1078 q 556 1026 556 1047 q 492 940 556 988 l 513 903 l 490 893 l 461 947 q 529 1024 529 992 q 494 1050 529 1050 q 424 1021 460 1050 l 413 1039 q 497 1078 458 1078 m 397 919 q 524 814 481 847 l 513 794 l 506 794 q 385 892 450 835 q 242 794 319 843 l 235 794 l 228 814 q 375 919 289 853 l 397 919 z "},"Ễ":{"ha":600,"x_min":111,"x_max":629,"o":"m 199 472 l 508 472 l 513 467 l 504 444 l 196 444 l 174 271 l 143 28 l 522 28 l 526 22 l 518 0 l 111 0 l 146 271 l 222 885 l 626 885 l 629 879 l 621 857 l 247 857 l 199 472 m 596 1117 l 588 1117 l 493 1222 l 492 1229 l 507 1242 l 514 1243 l 611 1132 l 596 1117 m 469 1122 q 596 1017 553 1050 l 585 997 l 578 997 q 457 1094 522 1038 q 314 997 392 1046 l 307 997 l 300 1017 q 447 1122 361 1056 l 469 1122 z "},"ễ":{"ha":551,"x_min":108,"x_max":601,"o":"m 182 367 l 439 367 l 442 361 l 435 339 l 179 339 l 163 210 l 139 26 l 454 26 l 458 22 l 450 0 l 108 0 l 135 208 l 194 682 l 533 682 l 538 676 l 529 654 l 219 656 l 182 367 m 601 1036 l 532 971 l 525 968 q 417 996 500 971 q 318 1021 333 1021 q 276 989 308 1021 l 251 964 l 246 964 l 233 979 l 233 985 l 303 1050 l 310 1053 q 418 1025 335 1050 q 517 1000 501 1000 q 558 1032 526 1000 l 583 1057 l 589 1057 l 601 1042 l 601 1036 m 397 924 q 524 818 481 851 l 513 799 l 506 799 q 385 896 450 839 q 242 799 319 847 l 235 799 l 228 818 q 375 924 289 857 l 397 924 z "},"Ệ":{"ha":600,"x_min":111,"x_max":629,"o":"m 199 472 l 508 472 l 513 467 l 504 444 l 196 444 l 174 271 l 143 28 l 522 28 l 526 22 l 518 0 l 111 0 l 146 271 l 222 885 l 626 885 l 629 879 l 621 857 l 247 857 l 199 472 m 331 -121 q 358 -149 358 -121 q 331 -176 358 -176 q 303 -149 303 -176 q 331 -121 303 -121 m 308 1042 q 456 1147 369 1081 l 478 1147 q 604 1042 561 1075 l 593 1022 l 586 1022 q 465 1119 531 1063 q 322 1022 400 1071 l 315 1022 l 308 1042 z "},"ệ":{"ha":551,"x_min":108,"x_max":538,"o":"m 182 367 l 439 367 l 442 361 l 435 339 l 179 339 l 163 210 l 139 26 l 454 26 l 458 22 l 450 0 l 108 0 l 135 208 l 194 682 l 533 682 l 538 676 l 529 654 l 219 656 l 182 367 m 281 -121 q 308 -149 308 -121 q 281 -176 308 -176 q 253 -149 253 -176 q 281 -121 253 -121 m 232 779 q 393 954 283 829 l 418 954 q 538 779 482 851 l 522 763 l 515 763 q 403 925 461 832 q 250 763 321 831 l 243 763 l 232 779 z "},"Ỉ":{"ha":326,"x_min":111,"x_max":304,"o":"m 139 0 l 111 0 l 146 271 l 222 885 l 250 885 l 174 271 l 139 0 m 243 1197 q 287 1182 269 1197 q 304 1144 304 1167 q 238 1054 304 1104 l 260 1014 l 236 1004 l 206 1061 q 276 1142 276 1108 q 240 1169 276 1169 q 165 1138 204 1169 l 154 1157 q 243 1197 201 1197 z "},"ỉ":{"ha":324,"x_min":108,"x_max":281,"o":"m 136 0 l 108 0 l 136 208 l 194 682 l 222 682 l 164 210 l 136 0 m 219 994 q 263 979 246 994 q 281 942 281 964 q 214 851 281 901 l 236 811 l 213 801 l 182 858 q 253 939 253 906 q 217 967 253 967 q 142 935 181 967 l 131 954 q 219 994 178 994 z "},"Ị":{"ha":326,"x_min":89,"x_max":250,"o":"m 139 0 l 111 0 l 146 271 l 222 885 l 250 885 l 174 271 l 139 0 m 117 -121 q 144 -149 144 -121 q 117 -176 144 -176 q 89 -149 89 -176 q 117 -121 89 -121 z "},"ị":{"ha":324,"x_min":86,"x_max":222,"o":"m 136 0 l 108 0 l 136 208 l 194 682 l 222 682 l 164 210 l 136 0 m 114 -121 q 142 -149 142 -121 q 114 -176 142 -176 q 86 -149 86 -176 q 114 -121 86 -121 z "},"Ọ":{"ha":832,"x_min":78,"x_max":789,"o":"m 493 892 q 713 801 638 892 q 789 543 789 711 q 740 250 789 374 q 597 60 690 126 q 371 -7 503 -7 q 153 86 229 -7 q 78 351 78 179 q 126 641 78 519 q 269 827 175 763 q 493 892 363 892 m 492 864 q 285 803 371 864 q 153 627 199 742 q 107 356 107 513 q 176 108 107 196 q 372 21 244 21 q 581 84 493 21 q 714 263 668 147 q 760 538 760 379 q 692 779 760 694 q 492 864 624 864 m 400 -121 q 428 -149 428 -121 q 400 -176 428 -176 q 372 -149 372 -176 q 400 -121 372 -121 z "},"ọ":{"ha":740,"x_min":79,"x_max":669,"o":"m 421 688 q 605 615 540 688 q 669 413 669 543 q 579 106 669 217 q 328 -6 489 -6 q 144 68 208 -6 q 79 275 79 142 q 169 578 79 469 q 421 688 258 688 m 418 660 q 190 560 271 660 q 110 278 110 460 q 165 88 110 154 q 326 22 221 22 q 557 124 474 22 q 640 408 640 226 q 583 595 640 531 q 418 660 526 660 m 351 -121 q 379 -149 379 -121 q 351 -176 379 -176 q 324 -149 324 -176 q 351 -121 324 -121 z "},"Ỏ":{"ha":832,"x_min":78,"x_max":789,"o":"m 493 892 q 713 801 638 892 q 789 543 789 711 q 740 250 789 374 q 597 60 690 126 q 371 -7 503 -7 q 153 86 229 -7 q 78 351 78 179 q 126 641 78 519 q 269 827 175 763 q 493 892 363 892 m 492 864 q 285 803 371 864 q 153 627 199 742 q 107 356 107 513 q 176 108 107 196 q 372 21 244 21 q 581 84 493 21 q 714 263 668 147 q 760 538 760 379 q 692 779 760 694 q 492 864 624 864 m 496 1197 q 540 1182 522 1197 q 557 1144 557 1167 q 490 1054 557 1104 l 513 1014 l 489 1004 l 458 1061 q 529 1142 529 1108 q 493 1169 529 1169 q 418 1138 457 1169 l 407 1157 q 496 1197 454 1197 z "},"ỏ":{"ha":740,"x_min":79,"x_max":669,"o":"m 421 688 q 605 615 540 688 q 669 413 669 543 q 579 106 669 217 q 328 -6 489 -6 q 144 68 208 -6 q 79 275 79 142 q 169 578 79 469 q 421 688 258 688 m 418 660 q 190 560 271 660 q 110 278 110 460 q 165 88 110 154 q 326 22 221 22 q 557 124 474 22 q 640 408 640 226 q 583 595 640 531 q 418 660 526 660 m 422 994 q 466 979 449 994 q 483 942 483 964 q 417 851 483 901 l 439 811 l 415 801 l 385 858 q 456 939 456 906 q 419 967 456 967 q 344 935 383 967 l 333 954 q 422 994 381 994 z "},"Ố":{"ha":832,"x_min":78,"x_max":789,"o":"m 493 892 q 713 801 638 892 q 789 543 789 711 q 740 250 789 374 q 597 60 690 126 q 371 -7 503 -7 q 153 86 229 -7 q 78 351 78 179 q 126 641 78 519 q 269 827 175 763 q 493 892 363 892 m 492 864 q 285 803 371 864 q 153 627 199 742 q 107 356 107 513 q 176 108 107 196 q 372 21 244 21 q 581 84 493 21 q 714 263 668 147 q 760 538 760 379 q 692 779 760 694 q 492 864 624 864 m 692 1231 l 690 1224 l 596 1118 l 588 1118 l 572 1133 l 669 1244 l 676 1243 l 692 1231 m 521 1121 q 647 1015 604 1049 l 636 996 l 629 996 q 508 1093 574 1036 q 365 996 443 1044 l 358 996 l 351 1015 q 499 1121 413 1054 l 521 1121 z "},"ố":{"ha":740,"x_min":79,"x_max":669,"o":"m 421 688 q 605 615 540 688 q 669 413 669 543 q 579 106 669 217 q 328 -6 489 -6 q 144 68 208 -6 q 79 275 79 142 q 169 578 79 469 q 421 688 258 688 m 418 660 q 190 560 271 660 q 110 278 110 460 q 165 88 110 154 q 326 22 221 22 q 557 124 474 22 q 640 408 640 226 q 583 595 640 531 q 418 660 526 660 m 618 1028 l 617 1021 l 522 915 l 514 915 l 499 931 l 596 1042 l 603 1040 l 618 1028 m 447 918 q 574 813 531 846 l 563 793 l 556 793 q 435 890 500 833 q 292 793 369 842 l 285 793 l 278 813 q 425 918 339 851 l 447 918 z "},"Ồ":{"ha":832,"x_min":78,"x_max":789,"o":"m 493 892 q 713 801 638 892 q 789 543 789 711 q 740 250 789 374 q 597 60 690 126 q 371 -7 503 -7 q 153 86 229 -7 q 78 351 78 179 q 126 641 78 519 q 269 827 175 763 q 493 892 363 892 m 492 864 q 285 803 371 864 q 153 627 199 742 q 107 356 107 513 q 176 108 107 196 q 372 21 244 21 q 581 84 493 21 q 714 263 668 147 q 760 538 760 379 q 692 779 760 694 q 492 864 624 864 m 650 1117 l 642 1117 l 547 1222 l 546 1229 l 561 1242 l 568 1243 l 665 1132 l 650 1117 m 524 1122 q 650 1017 607 1050 l 639 997 l 632 997 q 511 1094 576 1038 q 368 997 446 1046 l 361 997 l 354 1017 q 501 1122 415 1056 l 524 1122 z "},"ồ":{"ha":740,"x_min":79,"x_max":669,"o":"m 421 688 q 605 615 540 688 q 669 413 669 543 q 579 106 669 217 q 328 -6 489 -6 q 144 68 208 -6 q 79 275 79 142 q 169 578 79 469 q 421 688 258 688 m 418 660 q 190 560 271 660 q 110 278 110 460 q 165 88 110 154 q 326 22 221 22 q 557 124 474 22 q 640 408 640 226 q 583 595 640 531 q 418 660 526 660 m 576 914 l 568 914 l 474 1019 l 472 1026 l 488 1039 l 494 1040 l 592 929 l 576 914 m 450 919 q 576 814 533 847 l 565 794 l 558 794 q 438 892 503 835 q 294 794 372 843 l 288 794 l 281 814 q 428 919 342 853 l 450 919 z "},"Ổ":{"ha":832,"x_min":78,"x_max":789,"o":"m 493 892 q 713 801 638 892 q 789 543 789 711 q 740 250 789 374 q 597 60 690 126 q 371 -7 503 -7 q 153 86 229 -7 q 78 351 78 179 q 126 641 78 519 q 269 827 175 763 q 493 892 363 892 m 492 864 q 285 803 371 864 q 153 627 199 742 q 107 356 107 513 q 176 108 107 196 q 372 21 244 21 q 581 84 493 21 q 714 263 668 147 q 760 538 760 379 q 692 779 760 694 q 492 864 624 864 m 621 1281 q 663 1265 646 1281 q 679 1229 679 1250 q 615 1143 679 1190 l 636 1106 l 614 1096 l 585 1150 q 653 1226 653 1194 q 618 1253 653 1253 q 547 1224 583 1253 l 536 1242 q 621 1281 582 1281 m 521 1122 q 647 1017 604 1050 l 636 997 l 629 997 q 508 1094 574 1038 q 365 997 443 1046 l 358 997 l 351 1017 q 499 1122 413 1056 l 521 1122 z "},"ổ":{"ha":740,"x_min":79,"x_max":669,"o":"m 421 688 q 605 615 540 688 q 669 413 669 543 q 579 106 669 217 q 328 -6 489 -6 q 144 68 208 -6 q 79 275 79 142 q 169 578 79 469 q 421 688 258 688 m 418 660 q 190 560 271 660 q 110 278 110 460 q 165 88 110 154 q 326 22 221 22 q 557 124 474 22 q 640 408 640 226 q 583 595 640 531 q 418 660 526 660 m 547 1078 q 589 1063 572 1078 q 606 1026 606 1047 q 542 940 606 988 l 563 903 l 540 893 l 511 947 q 579 1024 579 992 q 544 1050 579 1050 q 474 1021 510 1050 l 463 1039 q 547 1078 508 1078 m 447 919 q 574 814 531 847 l 563 794 l 556 794 q 435 892 500 835 q 292 794 369 843 l 285 794 l 278 814 q 425 919 339 853 l 447 919 z "},"Ỗ":{"ha":832,"x_min":78,"x_max":789,"o":"m 493 892 q 713 801 638 892 q 789 543 789 711 q 740 250 789 374 q 597 60 690 126 q 371 -7 503 -7 q 153 86 229 -7 q 78 351 78 179 q 126 641 78 519 q 269 827 175 763 q 493 892 363 892 m 492 864 q 285 803 371 864 q 153 627 199 742 q 107 356 107 513 q 176 108 107 196 q 372 21 244 21 q 581 84 493 21 q 714 263 668 147 q 760 538 760 379 q 692 779 760 694 q 492 864 624 864 m 725 1239 l 656 1174 l 649 1171 q 540 1199 624 1174 q 442 1224 457 1224 q 400 1192 432 1224 l 375 1167 l 369 1167 l 357 1182 l 357 1188 l 426 1253 l 433 1256 q 542 1228 458 1253 q 640 1203 625 1203 q 682 1235 650 1203 l 707 1260 l 713 1260 l 725 1244 l 725 1239 m 521 1126 q 647 1021 604 1054 l 636 1001 l 629 1001 q 508 1099 574 1042 q 365 1001 443 1050 l 358 1001 l 351 1021 q 499 1126 413 1060 l 521 1126 z "},"ỗ":{"ha":740,"x_min":79,"x_max":669,"o":"m 421 688 q 605 615 540 688 q 669 413 669 543 q 579 106 669 217 q 328 -6 489 -6 q 144 68 208 -6 q 79 275 79 142 q 169 578 79 469 q 421 688 258 688 m 418 660 q 190 560 271 660 q 110 278 110 460 q 165 88 110 154 q 326 22 221 22 q 557 124 474 22 q 640 408 640 226 q 583 595 640 531 q 418 660 526 660 m 651 1036 l 582 971 l 575 968 q 467 996 550 971 q 368 1021 383 1021 q 326 989 358 1021 l 301 964 l 296 964 l 283 979 l 283 985 l 353 1050 l 360 1053 q 468 1025 385 1050 q 567 1000 551 1000 q 608 1032 576 1000 l 633 1057 l 639 1057 l 651 1042 l 651 1036 m 447 924 q 574 818 531 851 l 563 799 l 556 799 q 435 896 500 839 q 292 799 369 847 l 285 799 l 278 818 q 425 924 339 857 l 447 924 z "},"Ộ":{"ha":832,"x_min":78,"x_max":789,"o":"m 363 1042 q 510 1147 424 1081 l 532 1147 q 658 1042 615 1075 l 647 1022 l 640 1022 q 519 1119 585 1063 q 376 1022 454 1071 l 369 1022 l 363 1042 m 493 892 q 713 801 638 892 q 789 543 789 711 q 740 250 789 374 q 597 60 690 126 q 371 -7 503 -7 q 153 86 229 -7 q 78 351 78 179 q 126 641 78 519 q 269 827 175 763 q 493 892 363 892 m 492 864 q 285 803 371 864 q 153 627 199 742 q 107 356 107 513 q 176 108 107 196 q 372 21 244 21 q 581 84 493 21 q 714 263 668 147 q 760 538 760 379 q 692 779 760 694 q 492 864 624 864 m 400 -121 q 428 -149 428 -121 q 400 -176 428 -176 q 372 -149 372 -176 q 400 -121 372 -121 z "},"ộ":{"ha":740,"x_min":79,"x_max":669,"o":"m 282 779 q 443 954 333 829 l 468 954 q 588 779 532 851 l 572 763 l 565 763 q 453 925 511 832 q 300 763 371 831 l 293 763 l 282 779 m 421 688 q 605 615 540 688 q 669 413 669 543 q 579 106 669 217 q 328 -6 489 -6 q 144 68 208 -6 q 79 275 79 142 q 169 578 79 469 q 421 688 258 688 m 418 660 q 190 560 271 660 q 110 278 110 460 q 165 88 110 154 q 326 22 221 22 q 557 124 474 22 q 640 408 640 226 q 583 595 640 531 q 418 660 526 660 m 351 -121 q 379 -149 379 -121 q 351 -176 379 -176 q 324 -149 324 -176 q 351 -121 324 -121 z "},"Ớ":{"ha":835,"x_min":78,"x_max":869,"o":"m 829 1046 q 856 1018 842 1046 q 869 953 869 990 q 822 849 869 886 q 700 815 775 813 q 788 531 788 728 q 738 249 788 371 q 594 60 688 128 q 372 -7 500 -7 q 78 368 78 -7 q 126 642 78 524 q 269 826 175 760 q 497 892 364 892 q 644 861 571 892 q 721 842 694 842 q 804 869 768 842 q 840 943 840 896 q 808 1032 840 989 l 811 1039 q 829 1046 824 1046 m 489 864 q 283 801 369 864 q 151 627 197 739 q 106 369 106 515 q 375 21 106 21 q 581 85 493 21 q 714 262 668 149 q 760 521 760 375 q 489 864 760 864 m 656 1142 l 653 1135 q 411 1006 560 1082 l 404 1010 l 394 1031 q 639 1161 521 1092 l 646 1158 l 656 1142 z "},"ớ":{"ha":747,"x_min":79,"x_max":736,"o":"m 682 800 q 700 807 693 807 q 724 785 711 807 q 736 735 736 764 q 701 655 736 685 q 614 625 665 625 l 596 626 q 668 411 668 556 q 578 107 668 219 q 328 -6 488 -6 q 144 67 208 -6 q 79 274 79 140 q 169 578 79 469 q 424 688 258 688 q 547 664 485 688 q 608 649 586 649 q 678 669 647 649 q 708 725 708 690 q 679 794 708 758 l 682 800 m 329 21 q 558 124 475 21 q 640 408 640 228 q 583 595 640 531 q 417 660 526 660 q 190 560 271 660 q 110 278 110 460 q 166 87 110 153 q 329 21 222 21 m 567 939 l 564 932 q 322 803 471 879 l 315 807 l 306 828 q 550 958 432 889 l 557 956 l 567 939 z "},"Ờ":{"ha":835,"x_min":78,"x_max":869,"o":"m 829 1046 q 856 1018 842 1046 q 869 953 869 990 q 822 849 869 886 q 700 815 775 813 q 788 531 788 728 q 738 249 788 371 q 594 60 688 128 q 372 -7 500 -7 q 78 368 78 -7 q 126 642 78 524 q 269 826 175 760 q 497 892 364 892 q 644 861 571 892 q 721 842 694 842 q 804 869 768 842 q 840 943 840 896 q 808 1032 840 989 l 811 1039 q 829 1046 824 1046 m 489 864 q 283 801 369 864 q 151 627 197 739 q 106 369 106 515 q 375 21 106 21 q 581 85 493 21 q 714 262 668 149 q 760 521 760 375 q 489 864 760 864 m 396 1161 q 640 1031 514 1092 l 631 1010 l 624 1006 q 382 1135 475 1082 l 379 1142 l 389 1158 l 396 1161 z "},"ờ":{"ha":747,"x_min":79,"x_max":736,"o":"m 682 800 q 700 807 693 807 q 724 785 711 807 q 736 735 736 764 q 701 655 736 685 q 614 625 665 625 l 596 626 q 668 411 668 556 q 578 107 668 219 q 328 -6 488 -6 q 144 67 208 -6 q 79 274 79 140 q 169 578 79 469 q 424 688 258 688 q 547 664 485 688 q 608 649 586 649 q 678 669 647 649 q 708 725 708 690 q 679 794 708 758 l 682 800 m 329 21 q 558 124 475 21 q 640 408 640 228 q 583 595 640 531 q 417 660 526 660 q 190 560 271 660 q 110 278 110 460 q 166 87 110 153 q 329 21 222 21 m 307 958 q 551 828 425 889 l 542 807 l 535 803 q 293 932 386 879 l 290 939 l 300 956 l 307 958 z "},"Ở":{"ha":835,"x_min":78,"x_max":869,"o":"m 829 1046 q 856 1018 842 1046 q 869 953 869 990 q 822 849 869 886 q 700 815 775 813 q 788 531 788 728 q 738 249 788 371 q 594 60 688 128 q 372 -7 500 -7 q 78 368 78 -7 q 126 642 78 524 q 269 826 175 760 q 497 892 364 892 q 644 861 571 892 q 721 842 694 842 q 804 869 768 842 q 840 943 840 896 q 808 1032 840 989 l 811 1039 q 829 1046 824 1046 m 489 864 q 283 801 369 864 q 151 627 197 739 q 106 369 106 515 q 375 21 106 21 q 581 85 493 21 q 714 262 668 149 q 760 521 760 375 q 489 864 760 864 m 496 1197 q 540 1182 522 1197 q 557 1144 557 1167 q 490 1054 557 1104 l 513 1014 l 489 1004 l 458 1061 q 529 1142 529 1108 q 493 1169 529 1169 q 418 1138 457 1169 l 407 1157 q 496 1197 454 1197 z "},"ở":{"ha":747,"x_min":79,"x_max":736,"o":"m 682 800 q 700 807 693 807 q 724 785 711 807 q 736 735 736 764 q 701 655 736 685 q 614 625 665 625 l 596 626 q 668 411 668 556 q 578 107 668 219 q 328 -6 488 -6 q 144 67 208 -6 q 79 274 79 140 q 169 578 79 469 q 424 688 258 688 q 547 664 485 688 q 608 649 586 649 q 678 669 647 649 q 708 725 708 690 q 679 794 708 758 l 682 800 m 329 21 q 558 124 475 21 q 640 408 640 228 q 583 595 640 531 q 417 660 526 660 q 190 560 271 660 q 110 278 110 460 q 166 87 110 153 q 329 21 222 21 m 407 994 q 451 979 433 994 q 468 942 468 964 q 401 851 468 901 l 424 811 l 400 801 l 369 858 q 440 939 440 906 q 404 967 440 967 q 329 935 368 967 l 318 954 q 407 994 365 994 z "},"Ỡ":{"ha":835,"x_min":78,"x_max":869,"o":"m 829 1046 q 856 1018 842 1046 q 869 953 869 990 q 822 849 869 886 q 700 815 775 813 q 788 531 788 728 q 738 249 788 371 q 594 60 688 128 q 372 -7 500 -7 q 78 368 78 -7 q 126 642 78 524 q 269 826 175 760 q 497 892 364 892 q 644 861 571 892 q 721 842 694 842 q 804 869 768 842 q 840 943 840 896 q 808 1032 840 989 l 811 1039 q 829 1046 824 1046 m 489 864 q 283 801 369 864 q 151 627 197 739 q 106 369 106 515 q 375 21 106 21 q 581 85 493 21 q 714 262 668 149 q 760 521 760 375 q 489 864 760 864 m 704 1113 l 632 1047 l 624 1044 q 511 1072 596 1047 q 407 1097 422 1097 q 365 1067 396 1097 l 336 1040 l 331 1040 l 318 1056 l 318 1061 l 390 1126 l 399 1129 q 511 1101 426 1126 q 615 1076 600 1076 q 657 1107 626 1076 l 686 1133 l 692 1133 l 704 1118 l 704 1113 z "},"ỡ":{"ha":747,"x_min":79,"x_max":736,"o":"m 682 800 q 700 807 693 807 q 724 785 711 807 q 736 735 736 764 q 701 655 736 685 q 614 625 665 625 l 596 626 q 668 411 668 556 q 578 107 668 219 q 328 -6 488 -6 q 144 67 208 -6 q 79 274 79 140 q 169 578 79 469 q 424 688 258 688 q 547 664 485 688 q 608 649 586 649 q 678 669 647 649 q 708 725 708 690 q 679 794 708 758 l 682 800 m 329 21 q 558 124 475 21 q 640 408 640 228 q 583 595 640 531 q 417 660 526 660 q 190 560 271 660 q 110 278 110 460 q 166 87 110 153 q 329 21 222 21 m 615 910 l 543 844 l 535 842 q 422 869 507 844 q 318 894 333 894 q 276 864 307 894 l 247 838 l 242 838 l 229 853 l 229 858 l 301 924 l 310 926 q 422 899 338 924 q 526 874 511 874 q 568 904 538 874 l 597 931 l 603 931 l 615 915 l 615 910 z "},"Ợ":{"ha":835,"x_min":78,"x_max":869,"o":"m 829 1046 q 856 1018 842 1046 q 869 953 869 990 q 822 849 869 886 q 700 815 775 813 q 788 531 788 728 q 738 249 788 371 q 594 60 688 128 q 372 -7 500 -7 q 78 368 78 -7 q 126 642 78 524 q 269 826 175 760 q 497 892 364 892 q 644 861 571 892 q 721 842 694 842 q 804 869 768 842 q 840 943 840 896 q 808 1032 840 989 l 811 1039 q 829 1046 824 1046 m 489 864 q 283 801 369 864 q 151 627 197 739 q 106 369 106 515 q 375 21 106 21 q 581 85 493 21 q 714 262 668 149 q 760 521 760 375 q 489 864 760 864 m 400 -121 q 428 -149 428 -121 q 400 -176 428 -176 q 372 -149 372 -176 q 400 -121 372 -121 z "},"ợ":{"ha":747,"x_min":79,"x_max":736,"o":"m 682 800 q 700 807 693 807 q 724 785 711 807 q 736 735 736 764 q 701 655 736 685 q 614 625 665 625 l 596 626 q 668 411 668 556 q 578 107 668 219 q 328 -6 488 -6 q 144 67 208 -6 q 79 274 79 140 q 169 578 79 469 q 424 688 258 688 q 547 664 485 688 q 608 649 586 649 q 678 669 647 649 q 708 725 708 690 q 679 794 708 758 l 682 800 m 329 21 q 558 124 475 21 q 640 408 640 228 q 583 595 640 531 q 417 660 526 660 q 190 560 271 660 q 110 278 110 460 q 166 87 110 153 q 329 21 222 21 m 351 -121 q 379 -149 379 -121 q 351 -176 379 -176 q 324 -149 324 -176 q 351 -121 324 -121 z "},"Ụ":{"ha":810,"x_min":113,"x_max":765,"o":"m 694 318 q 594 79 679 164 q 369 -6 508 -6 q 179 59 246 -6 q 113 244 113 124 q 118 318 113 285 l 136 447 l 192 885 l 219 885 l 146 318 q 140 250 140 271 q 199 81 140 140 q 368 22 258 22 q 571 99 494 22 q 667 318 647 175 l 738 885 l 765 885 l 708 433 l 694 318 m 371 -121 q 399 -149 399 -121 q 371 -176 399 -176 q 343 -149 343 -176 q 371 -121 343 -121 z "},"ụ":{"ha":725,"x_min":110,"x_max":650,"o":"m 594 244 q 512 61 582 126 q 325 -4 442 -4 q 165 47 221 -4 q 110 193 110 97 q 114 244 110 218 l 129 344 l 171 682 l 200 682 l 142 246 q 139 199 139 229 q 187 67 139 113 q 326 22 235 22 q 491 80 429 22 q 567 246 553 138 l 622 682 l 650 682 l 606 333 l 594 244 m 321 -121 q 349 -149 349 -121 q 321 -176 349 -176 q 293 -149 293 -176 q 321 -121 293 -121 z "},"Ủ":{"ha":810,"x_min":113,"x_max":765,"o":"m 694 318 q 594 79 679 164 q 369 -6 508 -6 q 179 59 246 -6 q 113 244 113 124 q 118 318 113 285 l 136 447 l 192 885 l 219 885 l 146 318 q 140 250 140 271 q 199 81 140 140 q 368 22 258 22 q 571 99 494 22 q 667 318 647 175 l 738 885 l 765 885 l 708 433 l 694 318 m 485 1197 q 528 1182 511 1197 q 546 1144 546 1167 q 479 1054 546 1104 l 501 1014 l 478 1004 l 447 1061 q 518 1142 518 1108 q 482 1169 518 1169 q 407 1138 446 1169 l 396 1157 q 485 1197 443 1197 z "},"ủ":{"ha":725,"x_min":110,"x_max":650,"o":"m 594 244 q 512 61 582 126 q 325 -4 442 -4 q 165 47 221 -4 q 110 193 110 97 q 114 244 110 218 l 129 344 l 171 682 l 200 682 l 142 246 q 139 199 139 229 q 187 67 139 113 q 326 22 235 22 q 491 80 429 22 q 567 246 553 138 l 622 682 l 650 682 l 606 333 l 594 244 m 415 994 q 459 979 442 994 q 476 942 476 964 q 410 851 476 901 l 432 811 l 408 801 l 378 858 q 449 939 449 906 q 413 967 449 967 q 338 935 376 967 l 326 954 q 415 994 374 994 z "},"Ứ":{"ha":824,"x_min":113,"x_max":871,"o":"m 871 958 q 841 888 871 915 q 763 857 811 860 l 708 433 l 694 318 q 594 79 679 164 q 369 -6 508 -6 q 179 59 246 -6 q 113 244 113 124 q 118 318 113 285 l 136 447 l 192 885 l 219 885 l 146 318 q 140 250 140 271 q 199 81 140 140 q 368 22 258 22 q 571 99 494 22 q 667 318 647 175 l 738 885 l 753 885 q 819 905 794 885 q 843 958 843 925 q 800 1043 843 996 l 803 1050 q 819 1057 811 1057 q 840 1043 828 1057 q 862 1007 853 1029 q 871 958 871 985 m 640 1142 l 638 1135 q 396 1006 544 1082 l 389 1010 l 379 1031 q 624 1161 506 1092 l 631 1158 l 640 1142 z "},"ứ":{"ha":736,"x_min":110,"x_max":744,"o":"m 744 747 q 717 687 744 711 q 647 658 690 663 l 606 333 l 594 244 q 512 61 582 126 q 325 -4 442 -4 q 165 47 221 -4 q 110 193 110 97 q 114 244 110 218 l 129 344 l 171 682 l 200 682 l 142 246 q 139 199 139 229 q 187 67 139 113 q 326 22 235 22 q 491 80 429 22 q 567 246 553 138 l 622 682 l 635 682 q 694 699 672 682 q 717 743 717 715 q 688 803 717 772 l 690 808 q 708 815 701 815 q 731 794 718 815 q 744 747 744 774 m 574 939 l 571 932 q 329 803 478 879 l 322 807 l 313 828 q 557 958 439 889 l 564 956 l 574 939 z "},"Ừ":{"ha":824,"x_min":113,"x_max":871,"o":"m 871 958 q 841 888 871 915 q 763 857 811 860 l 708 433 l 694 318 q 594 79 679 164 q 369 -6 508 -6 q 179 59 246 -6 q 113 244 113 124 q 118 318 113 285 l 136 447 l 192 885 l 219 885 l 146 318 q 140 250 140 271 q 199 81 140 140 q 368 22 258 22 q 571 99 494 22 q 667 318 647 175 l 738 885 l 753 885 q 819 905 794 885 q 843 958 843 925 q 800 1043 843 996 l 803 1050 q 819 1057 811 1057 q 840 1043 828 1057 q 862 1007 853 1029 q 871 958 871 985 m 381 1161 q 625 1031 499 1092 l 615 1010 l 608 1006 q 367 1135 460 1082 l 364 1142 l 374 1158 l 381 1161 z "},"ừ":{"ha":736,"x_min":110,"x_max":744,"o":"m 744 747 q 717 687 744 711 q 647 658 690 663 l 606 333 l 594 244 q 512 61 582 126 q 325 -4 442 -4 q 165 47 221 -4 q 110 193 110 97 q 114 244 110 218 l 129 344 l 171 682 l 200 682 l 142 246 q 139 199 139 229 q 187 67 139 113 q 326 22 235 22 q 491 80 429 22 q 567 246 553 138 l 622 682 l 635 682 q 694 699 672 682 q 717 743 717 715 q 688 803 717 772 l 690 808 q 708 815 701 815 q 731 794 718 815 q 744 747 744 774 m 314 958 q 558 828 432 889 l 549 807 l 542 803 q 300 932 393 879 l 297 939 l 307 956 l 314 958 z "},"Ử":{"ha":824,"x_min":113,"x_max":871,"o":"m 871 958 q 841 888 871 915 q 763 857 811 860 l 708 433 l 694 318 q 594 79 679 164 q 369 -6 508 -6 q 179 59 246 -6 q 113 244 113 124 q 118 318 113 285 l 136 447 l 192 885 l 219 885 l 146 318 q 140 250 140 271 q 199 81 140 140 q 368 22 258 22 q 571 99 494 22 q 667 318 647 175 l 738 885 l 753 885 q 819 905 794 885 q 843 958 843 925 q 800 1043 843 996 l 803 1050 q 819 1057 811 1057 q 840 1043 828 1057 q 862 1007 853 1029 q 871 958 871 985 m 481 1197 q 524 1182 507 1197 q 542 1144 542 1167 q 475 1054 542 1104 l 497 1014 l 474 1004 l 443 1061 q 514 1142 514 1108 q 478 1169 514 1169 q 403 1138 442 1169 l 392 1157 q 481 1197 439 1197 z "},"ử":{"ha":736,"x_min":110,"x_max":744,"o":"m 744 747 q 717 687 744 711 q 647 658 690 663 l 606 333 l 594 244 q 512 61 582 126 q 325 -4 442 -4 q 165 47 221 -4 q 110 193 110 97 q 114 244 110 218 l 129 344 l 171 682 l 200 682 l 142 246 q 139 199 139 229 q 187 67 139 113 q 326 22 235 22 q 491 80 429 22 q 567 246 553 138 l 622 682 l 635 682 q 694 699 672 682 q 717 743 717 715 q 688 803 717 772 l 690 808 q 708 815 701 815 q 731 794 718 815 q 744 747 744 774 m 414 994 q 458 979 440 994 q 475 942 475 964 q 408 851 475 901 l 431 811 l 407 801 l 376 858 q 447 939 447 906 q 411 967 447 967 q 336 935 375 967 l 325 954 q 414 994 372 994 z "},"Ữ":{"ha":824,"x_min":113,"x_max":871,"o":"m 871 958 q 841 888 871 915 q 763 857 811 860 l 708 433 l 694 318 q 594 79 679 164 q 369 -6 508 -6 q 179 59 246 -6 q 113 244 113 124 q 118 318 113 285 l 136 447 l 192 885 l 219 885 l 146 318 q 140 250 140 271 q 199 81 140 140 q 368 22 258 22 q 571 99 494 22 q 667 318 647 175 l 738 885 l 753 885 q 819 905 794 885 q 843 958 843 925 q 800 1043 843 996 l 803 1050 q 819 1057 811 1057 q 840 1043 828 1057 q 862 1007 853 1029 q 871 958 871 985 m 689 1113 l 617 1047 l 608 1044 q 496 1072 581 1047 q 392 1097 407 1097 q 350 1067 381 1097 l 321 1040 l 315 1040 l 303 1056 l 303 1061 l 375 1126 l 383 1129 q 496 1101 411 1126 q 600 1076 585 1076 q 642 1107 611 1076 l 671 1133 l 676 1133 l 689 1118 l 689 1113 z "},"ữ":{"ha":736,"x_min":110,"x_max":744,"o":"m 744 747 q 717 687 744 711 q 647 658 690 663 l 606 333 l 594 244 q 512 61 582 126 q 325 -4 442 -4 q 165 47 221 -4 q 110 193 110 97 q 114 244 110 218 l 129 344 l 171 682 l 200 682 l 142 246 q 139 199 139 229 q 187 67 139 113 q 326 22 235 22 q 491 80 429 22 q 567 246 553 138 l 622 682 l 635 682 q 694 699 672 682 q 717 743 717 715 q 688 803 717 772 l 690 808 q 708 815 701 815 q 731 794 718 815 q 744 747 744 774 m 622 910 l 550 844 l 542 842 q 429 869 514 844 q 325 894 340 894 q 283 864 314 894 l 254 838 l 249 838 l 236 853 l 236 858 l 308 924 l 317 926 q 429 899 344 924 q 533 874 518 874 q 575 904 544 874 l 604 931 l 610 931 l 622 915 l 622 910 z "},"Ự":{"ha":824,"x_min":113,"x_max":871,"o":"m 871 958 q 841 888 871 915 q 763 857 811 860 l 708 433 l 694 318 q 594 79 679 164 q 369 -6 508 -6 q 179 59 246 -6 q 113 244 113 124 q 118 318 113 285 l 136 447 l 192 885 l 219 885 l 146 318 q 140 250 140 271 q 199 81 140 140 q 368 22 258 22 q 571 99 494 22 q 667 318 647 175 l 738 885 l 753 885 q 819 905 794 885 q 843 958 843 925 q 800 1043 843 996 l 803 1050 q 819 1057 811 1057 q 840 1043 828 1057 q 862 1007 853 1029 q 871 958 871 985 m 351 -124 q 379 -151 379 -124 q 351 -179 379 -179 q 324 -151 324 -179 q 351 -124 324 -124 z "},"ự":{"ha":736,"x_min":110,"x_max":744,"o":"m 744 747 q 717 687 744 711 q 647 658 690 663 l 606 333 l 594 244 q 512 61 582 126 q 325 -4 442 -4 q 165 47 221 -4 q 110 193 110 97 q 114 244 110 218 l 129 344 l 171 682 l 200 682 l 142 246 q 139 199 139 229 q 187 67 139 113 q 326 22 235 22 q 491 80 429 22 q 567 246 553 138 l 622 682 l 635 682 q 694 699 672 682 q 717 743 717 715 q 688 803 717 772 l 690 808 q 708 815 701 815 q 731 794 718 815 q 744 747 744 774 m 321 -121 q 349 -149 349 -121 q 321 -176 349 -176 q 293 -149 293 -176 q 321 -121 293 -121 z "},"Ỳ":{"ha":651,"x_min":107,"x_max":683,"o":"m 321 271 l 288 0 l 260 0 l 293 271 l 303 340 l 107 885 l 142 885 l 151 849 l 318 385 l 325 385 l 628 849 l 647 885 l 683 885 l 331 343 l 321 271 m 306 1161 q 550 1031 424 1092 l 540 1010 l 533 1006 q 292 1135 385 1082 l 289 1142 l 299 1158 l 306 1161 z "},"ỳ":{"ha":594,"x_min":101,"x_max":585,"o":"m 289 207 l 261 0 l 233 0 l 261 207 l 268 263 l 101 682 l 136 682 l 144 653 l 283 301 l 289 301 l 533 653 l 550 682 l 585 682 l 294 257 l 289 207 m 261 983 q 464 793 368 874 l 449 775 l 442 774 q 242 961 338 865 l 240 968 l 254 982 l 261 983 z "},"Ỵ":{"ha":651,"x_min":107,"x_max":683,"o":"m 321 271 l 288 0 l 260 0 l 293 271 l 303 340 l 107 885 l 142 885 l 151 849 l 318 385 l 325 385 l 628 849 l 647 885 l 683 885 l 331 343 l 321 271 m 260 -121 q 288 -149 288 -121 q 260 -176 288 -176 q 232 -149 232 -176 q 260 -121 232 -121 z "},"ỵ":{"ha":594,"x_min":101,"x_max":585,"o":"m 289 207 l 261 0 l 233 0 l 261 207 l 268 263 l 101 682 l 136 682 l 144 653 l 283 301 l 289 301 l 533 653 l 550 682 l 585 682 l 294 257 l 289 207 m 233 -121 q 261 -149 261 -121 q 233 -176 261 -176 q 206 -149 206 -176 q 233 -121 206 -121 z "},"Ỷ":{"ha":651,"x_min":107,"x_max":683,"o":"m 321 271 l 288 0 l 260 0 l 293 271 l 303 340 l 107 885 l 142 885 l 151 849 l 318 385 l 325 385 l 628 849 l 647 885 l 683 885 l 331 343 l 321 271 m 406 1197 q 449 1182 432 1197 q 467 1144 467 1167 q 400 1054 467 1104 l 422 1014 l 399 1004 l 368 1061 q 439 1142 439 1108 q 403 1169 439 1169 q 328 1138 367 1169 l 317 1157 q 406 1197 364 1197 z "},"ỷ":{"ha":594,"x_min":101,"x_max":585,"o":"m 289 207 l 261 0 l 233 0 l 261 207 l 268 263 l 101 682 l 136 682 l 144 653 l 283 301 l 289 301 l 533 653 l 550 682 l 585 682 l 294 257 l 289 207 m 351 994 q 395 979 378 994 q 413 942 413 964 q 346 851 413 901 l 368 811 l 344 801 l 314 858 q 385 939 385 906 q 349 967 385 967 q 274 935 313 967 l 263 954 q 351 994 310 994 z "},"Ỹ":{"ha":651,"x_min":107,"x_max":683,"o":"m 321 271 l 288 0 l 260 0 l 293 271 l 303 340 l 107 885 l 142 885 l 151 849 l 318 385 l 325 385 l 628 849 l 647 885 l 683 885 l 331 343 l 321 271 m 614 1113 l 542 1047 l 533 1044 q 421 1072 506 1047 q 317 1097 332 1097 q 275 1067 306 1097 l 246 1040 l 240 1040 l 228 1056 l 228 1061 l 300 1126 l 308 1129 q 421 1101 336 1126 q 525 1076 510 1076 q 567 1107 536 1076 l 596 1133 l 601 1133 l 614 1118 l 614 1113 z "},"ỹ":{"ha":594,"x_min":101,"x_max":585,"o":"m 289 207 l 261 0 l 233 0 l 261 207 l 268 263 l 101 682 l 136 682 l 144 653 l 283 301 l 289 301 l 533 653 l 550 682 l 585 682 l 294 257 l 289 207 m 560 910 l 488 844 l 479 842 q 367 869 451 844 q 263 894 278 894 q 221 864 251 894 l 192 838 l 186 838 l 174 853 l 174 858 l 246 924 l 254 926 q 367 899 282 924 q 471 874 456 874 q 513 904 482 874 l 542 931 l 547 931 l 560 915 l 560 910 z "},"–":{"ha":683,"x_min":-17,"x_max":710,"o":"m 704 339 l -14 339 l -17 343 l -11 367 l 707 367 l 710 363 l 704 339 z "},"—":{"ha":1350,"x_min":-17,"x_max":1376,"o":"m 1371 339 l -14 339 l -17 343 l -11 367 l 1374 367 l 1376 363 l 1371 339 z "},"‘":{"ha":172,"x_min":90,"x_max":182,"o":"m 160 665 q 90 742 90 682 q 164 883 90 806 l 182 868 l 182 863 q 121 747 121 797 q 174 693 121 706 l 174 688 q 160 665 172 683 z "},"’":{"ha":172,"x_min":93,"x_max":185,"o":"m 115 881 q 185 804 185 864 q 111 663 185 740 l 93 678 l 93 683 q 154 799 154 749 q 101 853 154 840 l 101 858 q 115 881 103 863 z "},"‚":{"ha":319,"x_min":57,"x_max":163,"o":"m 110 57 q 163 -10 163 33 q 71 -139 163 -68 l 57 -124 l 58 -119 q 133 -11 133 -64 q 92 36 133 17 l 92 42 q 110 57 99 51 z "},"“":{"ha":286,"x_min":78,"x_max":301,"o":"m 279 665 q 210 742 210 682 q 283 883 210 806 l 301 868 l 301 863 q 240 747 240 797 q 293 693 240 706 l 293 688 q 279 665 292 683 m 147 665 q 78 742 78 682 q 151 883 78 806 l 169 868 l 169 863 q 108 747 108 797 q 161 693 108 706 l 161 688 q 147 665 160 683 z "},"”":{"ha":304,"x_min":88,"x_max":311,"o":"m 242 881 q 311 804 311 864 q 238 663 311 740 l 219 678 l 219 683 q 281 799 281 749 q 228 853 281 840 l 228 858 q 242 881 229 863 m 110 881 q 179 804 179 864 q 106 663 179 740 l 88 678 l 88 683 q 149 799 149 749 q 96 853 149 840 l 96 858 q 110 881 97 863 z "},"„":{"ha":451,"x_min":57,"x_max":294,"o":"m 242 57 q 294 -10 294 33 q 203 -139 294 -68 l 189 -124 l 190 -119 q 265 -11 265 -64 q 224 36 265 17 l 224 42 q 242 57 231 51 m 110 57 q 163 -10 163 33 q 71 -139 163 -68 l 57 -124 l 58 -119 q 133 -11 133 -64 q 92 36 133 17 l 92 42 q 110 57 99 51 z "},"†":{"ha":640,"x_min":89,"x_max":607,"o":"m 360 519 l 344 396 l 281 -131 l 257 -131 l 253 -125 l 317 396 l 332 519 l 92 519 l 89 524 l 94 547 l 335 547 l 368 814 l 394 817 l 396 814 l 363 547 l 604 547 l 607 543 l 601 519 l 360 519 z "},"‡":{"ha":642,"x_min":42,"x_max":608,"o":"m 318 167 l 557 167 l 561 163 l 556 139 l 314 139 l 281 -131 l 257 -131 l 254 -125 l 286 139 l 46 139 l 42 143 l 47 167 l 290 167 l 318 396 l 333 519 l 92 519 l 89 524 l 94 547 l 336 547 l 369 814 l 394 817 l 397 814 l 364 547 l 604 547 l 608 543 l 601 519 l 361 519 l 346 396 l 318 167 z "},"•":{"ha":319,"x_min":139,"x_max":194,"o":"m 167 357 q 194 329 194 357 q 167 301 194 301 q 139 329 139 301 q 167 357 139 357 z "},"․":{"ha":319,"x_min":96,"x_max":151,"o":"m 124 53 q 151 25 151 53 q 124 -3 151 -3 q 96 25 96 -3 q 124 53 96 53 z "},"‥":{"ha":528,"x_min":90,"x_max":354,"o":"m 326 53 q 354 25 354 53 q 326 -3 354 -3 q 299 25 299 -3 q 326 53 299 53 m 118 53 q 146 25 146 53 q 118 -3 146 -3 q 90 25 90 -3 q 118 53 90 53 z "},"…":{"ha":735,"x_min":54,"x_max":526,"o":"m 290 53 q 318 25 318 53 q 290 -3 318 -3 q 263 25 263 -3 q 290 53 263 53 m 499 53 q 526 25 526 53 q 499 -3 526 -3 q 471 25 471 -3 q 499 53 471 53 m 82 53 q 110 25 110 53 q 82 -3 110 -3 q 54 25 54 -3 q 82 53 54 53 z "},"‰":{"ha":1628,"x_min":108,"x_max":1550,"o":"m 946 911 l 144 -125 l 133 -119 l 129 -107 l 929 929 l 943 922 l 946 911 m 336 886 q 455 838 414 886 q 496 697 496 789 q 437 488 496 564 q 269 411 378 411 q 149 460 190 411 q 108 600 108 508 q 169 810 108 733 q 336 886 229 886 m 329 860 q 186 792 238 860 q 135 606 135 725 q 171 481 135 524 q 276 438 207 438 q 419 505 368 438 q 471 692 471 572 q 435 817 471 774 q 329 860 399 860 m 872 471 q 991 422 950 471 q 1032 282 1032 374 q 973 72 1032 149 q 806 -4 914 -4 q 685 44 726 -4 q 644 185 644 93 q 705 394 644 318 q 872 471 765 471 m 1390 471 q 1509 422 1468 471 q 1550 282 1550 374 q 1491 72 1550 149 q 1324 -4 1432 -4 q 1203 44 1244 -4 q 1163 185 1163 93 q 1223 394 1163 318 q 1390 471 1283 471 m 865 444 q 722 377 774 444 q 671 190 671 310 q 707 65 671 108 q 813 22 743 22 q 956 90 904 22 q 1007 276 1007 157 q 971 401 1007 358 q 865 444 935 444 m 1383 444 q 1240 377 1292 444 q 1189 190 1189 310 q 1225 65 1189 108 q 1331 22 1261 22 q 1474 90 1422 22 q 1525 276 1525 157 q 1489 401 1525 358 q 1383 444 1453 444 z "},"′":{"ha":174,"x_min":111,"x_max":179,"o":"m 138 676 l 114 674 l 111 679 l 151 879 l 176 882 l 179 876 l 138 676 z "},"″":{"ha":278,"x_min":111,"x_max":283,"o":"m 242 676 l 218 674 l 215 679 l 256 879 l 281 882 l 283 876 l 242 676 m 138 676 l 114 674 l 111 679 l 151 879 l 176 882 l 179 876 l 138 676 z "},"‹":{"ha":297,"x_min":53,"x_max":314,"o":"m 56 321 l 299 550 l 314 538 l 313 529 l 85 310 l 260 90 l 258 82 l 240 69 l 53 306 l 56 321 z "},"›":{"ha":292,"x_min":1,"x_max":263,"o":"m 260 299 l 17 69 l 1 82 l 3 90 l 231 310 l 56 529 l 57 538 l 75 550 l 263 314 l 260 299 z "},"⁄":{"ha":64,"x_min":-392,"x_max":425,"o":"m 425 911 l -376 -125 l -387 -119 l -392 -107 l 408 929 l 422 922 l 425 911 z "},"⁰":{"ha":522,"x_min":117,"x_max":504,"o":"m 344 974 q 463 921 422 974 q 504 768 504 868 q 445 539 504 622 q 278 456 386 456 q 158 508 199 456 q 117 661 117 561 q 176 890 117 807 q 344 974 236 974 m 338 946 q 194 872 246 946 q 143 668 143 799 q 179 531 143 579 q 285 483 215 483 q 428 558 376 483 q 479 763 479 632 q 443 899 479 851 q 338 946 407 946 z "},"⁴":{"ha":465,"x_min":81,"x_max":451,"o":"m 444 624 l 375 625 l 349 625 l 331 463 l 326 460 l 304 457 l 301 460 l 322 625 l 128 625 l 85 624 l 81 628 l 83 649 l 365 972 l 392 972 l 351 650 l 447 650 l 451 646 l 444 624 m 360 928 l 356 928 l 114 650 l 325 650 l 360 928 z "},"⁵":{"ha":400,"x_min":71,"x_max":421,"o":"m 415 947 l 411 944 l 369 947 l 194 947 l 168 776 l 228 763 q 376 636 376 729 q 310 506 376 557 q 142 456 244 456 q 72 463 114 456 l 71 485 l 74 488 q 147 481 119 481 q 292 523 235 481 q 349 632 349 565 q 213 738 349 707 l 144 753 l 140 758 l 171 965 l 181 974 l 226 972 l 354 972 l 418 974 l 421 971 l 415 947 z "},"⁶":{"ha":449,"x_min":99,"x_max":439,"o":"m 438 960 q 144 708 201 882 l 146 706 q 294 756 221 756 q 391 725 357 756 q 425 639 425 694 q 424 614 425 622 q 367 496 414 538 q 240 454 321 454 q 135 493 172 454 q 99 604 99 532 q 101 640 99 615 q 199 844 115 757 q 421 978 283 932 l 425 978 l 439 964 l 438 960 m 288 731 q 135 675 208 731 q 129 642 132 664 q 126 606 126 617 q 242 478 126 478 q 348 513 308 478 q 396 613 388 547 q 397 632 397 619 q 369 705 397 679 q 288 731 340 731 z "},"⁷":{"ha":400,"x_min":115,"x_max":436,"o":"m 403 972 l 436 974 l 435 950 l 185 532 l 139 451 l 115 458 l 115 464 l 403 946 l 175 946 l 119 944 l 117 950 l 122 974 l 186 972 l 403 972 z "},"⁸":{"ha":446,"x_min":90,"x_max":426,"o":"m 308 975 q 395 948 364 975 q 426 874 426 921 q 299 729 426 774 l 297 726 q 383 679 353 704 q 413 607 413 654 q 362 497 413 539 q 231 456 311 456 q 128 488 165 456 q 90 572 90 519 q 236 725 90 675 l 236 728 q 149 838 149 767 q 193 938 149 901 q 308 975 238 975 m 304 951 q 211 920 247 951 q 175 839 175 889 q 199 780 175 801 q 269 739 224 758 q 400 868 400 779 q 374 929 400 907 q 304 951 349 951 m 263 714 q 156 662 196 692 q 117 575 117 632 q 149 506 117 532 q 235 481 181 481 q 344 515 303 481 q 386 601 386 549 q 369 652 386 632 q 331 683 353 672 q 263 714 308 694 z "},"⁹":{"ha":449,"x_min":115,"x_max":453,"o":"m 315 979 q 417 942 382 979 q 453 833 453 904 q 368 605 453 704 q 131 456 283 506 l 126 456 l 115 469 l 115 475 q 408 725 349 550 l 406 728 q 257 678 335 678 q 163 708 196 678 q 129 796 129 739 q 179 931 129 882 q 315 979 229 979 m 424 793 q 426 831 426 818 q 313 956 426 956 q 198 915 240 956 q 156 800 156 874 q 264 703 156 703 q 418 758 340 703 q 424 793 421 768 z "},"₣":{"ha":521,"x_min":26,"x_max":540,"o":"m 178 356 l 438 356 l 440 350 l 433 328 l 175 328 l 160 210 l 157 189 l 322 189 l 326 185 l 321 161 l 154 161 l 136 0 l 107 0 l 126 161 l 31 161 l 26 165 l 32 189 l 129 189 l 132 208 l 190 682 l 538 682 l 540 676 l 532 654 l 215 654 l 178 356 z "},"€":{"ha":703,"x_min":22,"x_max":671,"o":"m 486 686 q 671 625 594 686 l 660 600 l 651 600 q 481 658 582 658 q 192 426 257 658 l 493 426 l 496 422 l 490 399 l 185 399 q 169 256 169 333 l 472 256 l 475 251 l 469 228 l 171 228 q 234 75 179 128 q 386 22 289 22 q 594 92 497 22 l 603 89 l 597 64 q 382 -6 493 -6 q 209 55 271 -6 q 139 228 147 115 l 26 228 l 22 232 l 29 256 l 139 256 q 154 399 142 336 l 47 399 l 44 403 l 50 426 l 161 426 q 279 619 196 553 q 486 686 363 686 z "},"ℓ":{"ha":488,"x_min":107,"x_max":421,"o":"m 414 0 l 107 0 l 135 208 l 194 682 l 222 682 l 163 210 l 139 26 l 419 26 l 421 22 l 414 0 z "},"™":{"ha":797,"x_min":110,"x_max":746,"o":"m 351 882 l 346 861 l 288 863 l 243 863 l 217 663 l 207 563 l 181 563 l 192 660 l 217 863 l 172 863 l 113 861 l 110 864 l 115 885 l 349 885 l 351 882 m 742 563 l 718 563 l 718 661 l 719 838 l 715 838 l 579 601 l 554 601 l 479 838 l 476 838 l 433 664 l 411 563 l 386 563 l 463 885 l 496 885 l 510 836 l 571 639 l 572 639 l 690 839 l 714 885 l 746 885 l 742 563 z "},"Ω":{"ha":963,"x_min":32,"x_max":860,"o":"m 558 892 q 781 805 703 892 q 858 557 858 718 q 788 253 858 390 q 592 32 718 117 l 590 28 l 756 28 l 856 29 l 860 24 l 851 -1 l 743 0 l 585 0 l 532 -1 l 529 1 l 532 24 q 751 244 674 107 q 829 553 829 382 q 759 783 829 703 q 557 864 689 864 q 353 810 439 864 q 223 653 268 756 q 178 411 178 551 q 226 186 178 288 q 361 24 274 85 l 358 1 l 356 -1 l 304 0 l 136 0 l 36 -1 l 32 4 l 40 29 l 146 28 l 304 28 l 306 32 q 190 191 231 93 q 150 407 150 289 q 257 763 150 635 q 558 892 364 892 z "},"℮":{"ha":1100,"x_min":74,"x_max":1089,"o":"m 582 900 q 836 839 719 900 q 1021 673 953 778 q 1089 443 1089 568 l 1089 436 l 264 436 q 253 426 253 436 l 253 175 q 267 143 253 160 q 409 50 326 85 q 583 15 492 15 q 778 54 686 15 q 936 158 869 93 l 978 158 q 804 33 908 79 q 582 -12 700 -12 q 327 49 444 -12 q 142 215 210 110 q 74 443 74 319 q 142 673 74 568 q 327 839 210 778 q 582 900 444 900 m 583 872 q 409 839 490 872 q 268 746 328 806 q 253 711 253 731 l 253 475 q 264 464 253 464 l 900 464 q 911 475 911 464 l 911 717 q 896 750 911 735 q 755 840 836 808 q 583 872 674 872 z "},"←":{"ha":694,"x_min":29,"x_max":660,"o":"m 29 1010 l 29 1004 l -235 738 l -254 749 l -254 757 l -22 993 l -599 993 l -601 996 l -599 1021 l -22 1021 l -254 1257 l -254 1265 l -235 1276 l 29 1010 z "},"↑":{"ha":694,"x_min":75,"x_max":614,"o":"m 342 632 l 347 632 l 614 368 l 603 349 l 594 349 l 358 581 l 358 4 l 356 1 l 331 4 l 331 581 l 94 349 l 86 349 l 75 368 l 342 632 z "},"→":{"ha":694,"x_min":31,"x_max":661,"o":"m 661 -378 l 661 -372 l 925 -106 l 944 -117 l 944 -125 l 713 -361 l 1289 -361 l 1292 -364 l 1289 -389 l 713 -389 l 944 -625 l 944 -633 l 925 -644 l 661 -378 z "},"↓":{"ha":694,"x_min":76,"x_max":615,"o":"m 349 0 l 343 0 l 76 264 l 88 283 l 96 283 l 332 51 l 332 628 l 335 631 l 360 628 l 360 51 l 596 283 l 604 283 l 615 264 l 349 0 z "},"↖":{"ha":694,"x_min":146,"x_max":604,"o":"m 148 1030 l 152 1026 l 154 651 l 132 645 l 126 651 l 123 982 l -284 574 l -288 574 l -304 594 l 104 1001 l -227 1004 l -233 1010 l -227 1032 l 148 1030 z "},"↗":{"ha":694,"x_min":89,"x_max":547,"o":"m 541 48 l 545 52 l 920 54 l 926 32 l 920 26 l 589 23 l 997 -384 l 997 -388 l 977 -404 l 570 4 l 567 -327 l 561 -333 l 539 -327 l 541 48 z "},"↘":{"ha":694,"x_min":86,"x_max":544,"o":"m 542 -399 l 538 -395 l 536 -20 l 558 -14 l 564 -20 l 567 -351 l 974 56 l 978 56 l 994 37 l 586 -371 l 917 -374 l 923 -380 l 917 -401 l 542 -399 z "},"↙":{"ha":694,"x_min":144,"x_max":603,"o":"m 151 584 l 147 580 l -228 578 l -234 600 l -228 606 l 103 609 l -305 1016 l -305 1020 l -285 1036 l 122 628 l 125 959 l 131 965 l 153 959 l 151 584 z "},"∂":{"ha":700,"x_min":57,"x_max":628,"o":"m 211 992 q 521 772 414 911 q 628 440 628 633 q 622 351 628 392 q 515 85 600 178 q 294 -8 431 -8 q 117 51 178 -8 q 57 222 57 110 q 61 279 57 250 q 160 494 79 419 q 376 569 242 569 q 597 478 496 563 l 600 479 q 485 774 589 650 q 193 972 382 899 l 194 982 l 203 992 l 211 992 m 299 21 q 499 107 422 21 q 596 351 576 193 q 601 433 601 407 q 364 540 490 540 q 175 473 246 540 q 89 279 104 406 q 86 229 86 243 q 140 74 86 128 q 299 21 194 21 z "},"∆":{"ha":728,"x_min":-11,"x_max":653,"o":"m -11 0 l 431 885 l 460 885 l 653 0 l -11 0 m 32 28 l 618 28 l 443 838 l 438 838 l 32 28 z "},"∏":{"ha":879,"x_min":121,"x_max":858,"o":"m 790 857 l 717 271 l 682 0 l 654 0 l 689 271 l 763 857 l 257 857 l 183 271 l 149 0 l 121 0 l 156 271 l 229 857 l 161 857 l 158 863 l 167 885 l 856 885 l 858 879 l 850 857 l 790 857 z "},"∑":{"ha":636,"x_min":11,"x_max":690,"o":"m 683 856 l 597 857 l 158 857 l 403 454 l 401 444 l 50 28 l 474 28 l 569 29 l 575 22 l 568 0 l 11 0 l 14 25 l 369 450 l 124 860 l 126 885 l 601 885 l 686 886 l 690 879 l 683 856 z "},"−":{"ha":665,"x_min":61,"x_max":619,"o":"m 617 361 l 65 361 l 61 365 l 64 389 l 615 389 l 619 385 l 617 361 z "},"∕":{"ha":403,"x_min":26,"x_max":411,"o":"m 53 -153 l 31 -153 l 26 -147 l 385 938 l 407 938 l 411 931 l 53 -153 z "},"∙":{"ha":321,"x_min":175,"x_max":231,"o":"m 203 357 q 231 329 231 357 q 203 301 231 301 q 175 329 175 301 q 203 357 175 357 z "},"√":{"ha":722,"x_min":10,"x_max":813,"o":"m 267 0 l 135 600 l 13 600 l 10 604 l 15 628 l 154 628 l 160 622 l 285 43 l 290 43 l 779 982 l 786 986 l 813 986 l 297 0 l 267 0 z "},"∞":{"ha":668,"x_min":4,"x_max":678,"o":"m 539 544 q 641 503 604 544 q 678 393 678 461 q 628 251 678 304 q 499 199 578 199 q 398 237 433 199 q 338 346 363 275 q 252 237 297 275 q 143 199 207 199 q 41 240 78 199 q 4 349 4 281 q 54 490 4 436 q 186 544 104 544 q 290 508 253 544 q 347 410 326 471 q 539 544 421 544 m 185 518 q 74 473 115 518 q 32 353 32 428 q 63 260 32 294 q 146 225 93 225 q 247 265 206 225 q 328 375 288 304 q 278 481 308 443 q 185 518 247 518 m 535 518 q 432 480 472 518 q 356 375 392 442 q 411 264 379 303 q 504 225 443 225 q 610 269 569 225 q 651 390 651 314 q 621 483 651 447 q 535 518 590 518 z "},"∫":{"ha":342,"x_min":-6,"x_max":482,"o":"m 396 992 q 482 981 442 992 l 476 954 l 472 951 q 399 964 440 964 q 239 804 260 964 l 147 71 q 109 -74 136 -21 q 11 -193 82 -126 l -6 -179 l -6 -172 q 85 -60 60 -108 q 121 68 111 -11 l 211 804 q 269 943 221 894 q 396 992 317 992 z "},"≈":{"ha":668,"x_min":115,"x_max":610,"o":"m 246 493 q 185 453 232 493 l 158 429 l 150 429 l 140 442 l 140 449 l 229 522 l 238 526 q 367 496 254 524 q 504 464 476 464 q 529 474 515 464 q 563 502 543 485 q 592 528 582 519 l 600 528 l 610 514 l 610 508 l 519 433 l 511 431 q 371 464 479 433 q 246 493 269 493 m 221 293 q 160 253 207 293 l 133 229 l 125 229 l 115 242 l 115 249 l 204 322 l 213 326 q 342 296 229 324 q 479 264 451 264 q 504 274 490 264 q 538 302 518 285 q 567 328 557 319 l 575 328 l 585 314 l 585 308 l 494 233 l 486 231 q 346 264 454 233 q 221 293 244 293 z "},"≠":{"ha":665,"x_min":49,"x_max":632,"o":"m 313 289 l 603 289 l 607 285 l 604 261 l 301 261 l 224 46 l 200 46 l 196 50 l 272 261 l 53 261 l 49 265 l 51 289 l 282 289 l 344 461 l 78 461 l 74 465 l 76 489 l 356 489 l 428 689 l 451 689 l 456 683 l 385 489 l 628 489 l 632 485 l 629 461 l 375 461 l 313 289 z "},"≤":{"ha":701,"x_min":13,"x_max":642,"o":"m 638 606 l 96 378 l 94 372 l 588 160 l 576 139 l 571 136 l 57 358 l 61 389 l 65 394 l 635 632 l 642 613 l 638 606 m 568 -90 l 17 -90 l 13 -86 l 15 -62 l 567 -62 l 571 -67 l 568 -90 z "},"≥":{"ha":701,"x_min":13,"x_max":667,"o":"m 667 389 l 663 358 l 94 136 l 89 139 l 83 160 l 629 372 l 629 378 l 143 606 l 140 613 l 153 632 l 664 394 l 667 389 m 568 -90 l 17 -90 l 13 -86 l 15 -62 l 567 -62 l 571 -67 l 568 -90 z "},"◊":{"ha":667,"x_min":96,"x_max":572,"o":"m 572 401 l 569 382 l 286 -106 l 265 -106 l 263 -103 l 96 382 l 99 401 l 382 889 l 403 889 l 406 886 l 572 401 m 124 392 l 278 -60 l 283 -60 l 544 392 l 390 842 l 385 842 l 124 392 z "},"":{"ha":542,"x_min":204,"x_max":485,"o":"m 485 1000 l 481 993 q 221 908 369 953 l 214 914 l 208 936 q 472 1022 338 972 l 478 1018 l 485 1000 m 232 826 q 260 799 260 826 q 232 771 260 771 q 204 799 204 771 q 232 826 204 826 m 426 826 q 454 799 454 826 q 426 771 454 771 q 399 799 399 771 q 426 826 399 826 z "}}}
